STARTFONT 2.3
FONT -FontForge-Lobster-Book-R-Normal--12-120-72-72-P-70-ISO10646-1
SIZE 12 72 72  4
FONTBOUNDINGBOX 25 19 -6 -6
COMMENT "Generated by fontforge, http://fontforge.sourceforge.net"
COMMENT "Copyright 2010 The Lobster Project Authors (https://github.com/impallari/The-Lobster-Font), with Reserved Font Name "Lobster"."
STARTPROPERTIES 41
FOUNDRY "FontForge"
FAMILY_NAME "Lobster"
WEIGHT_NAME "Book"
SLANT "R"
SETWIDTH_NAME "Normal"
ADD_STYLE_NAME ""
PIXEL_SIZE 12
POINT_SIZE 120
RESOLUTION_X 72
RESOLUTION_Y 72
SPACING "P"
AVERAGE_WIDTH 70
CHARSET_REGISTRY "ISO10646"
CHARSET_ENCODING "1"
FONTNAME_REGISTRY ""
CHARSET_COLLECTIONS "ISO8859-2 ISO8859-5 ISO8859-9 ISO8859-4 ISO10646-1"
BITS_PER_PIXEL 4
FONT_NAME "Lobster-Regular"
FACE_NAME "Lobster Regular"
COPYRIGHT "Copyright 2010 The Lobster Project Authors (https://github.com/impallari/The-Lobster-Font), with Reserved Font Name "Lobster"."
FONT_VERSION "2.100"
FONT_ASCENT 10
FONT_DESCENT 2
UNDERLINE_POSITION -1
UNDERLINE_THICKNESS 1
X_HEIGHT 5
CAP_HEIGHT 8
DEFAULT_CHAR 1
RAW_ASCENT 800
RAW_DESCENT 200
NORM_SPACE 3
RELATIVE_WEIGHT 40
RELATIVE_SETWIDTH 50
SUPERSCRIPT_X 0
SUPERSCRIPT_Y 4
SUPERSCRIPT_SIZE 7
SUBSCRIPT_X 0
SUBSCRIPT_Y 0
SUBSCRIPT_SIZE 7
AVG_LOWERCASE_WIDTH 56
AVG_UPPERCASE_WIDTH 75
ENDPROPERTIES
CHARS 1148
STARTCHAR NULL.dup1
ENCODING 0
SWIDTH 600 0
DWIDTH 7 0
BBX 1 1 0 0
BITMAP
00
ENDCHAR
STARTCHAR nonmarkingreturn
ENCODING 13
SWIDTH 600 0
DWIDTH 7 0
BBX 1 1 0 0
BITMAP
00
ENDCHAR
STARTCHAR space
ENCODING 32
SWIDTH 217 0
DWIDTH 3 0
BBX 1 1 0 0
BITMAP
00
ENDCHAR
STARTCHAR exclam
ENCODING 33
SWIDTH 257 0
DWIDTH 3 0
BBX 4 10 0 0
BITMAP
0001
00EB
02F7
04F3
07E0
0990
0B50
0000
5C20
6E20
ENDCHAR
STARTCHAR quotedbl
ENCODING 34
SWIDTH 353 0
DWIDTH 4 0
BBX 4 3 1 6
BITMAP
5D6C
96B5
B1B0
ENDCHAR
STARTCHAR numbersign
ENCODING 35
SWIDTH 659 0
DWIDTH 8 0
BBX 7 9 0 0
BITMAP
00030210
001C0A40
00490C10
08DCCEB0
00B34900
2BEBDD60
02B0B200
0580D000
02103000
ENDCHAR
STARTCHAR dollar
ENCODING 36
SWIDTH 548 0
DWIDTH 7 0
BBX 7 11 0 -1
BITMAP
00008100
006CDA00
04F58C50
04F96E20
00BF3000
001ED100
6E59F900
C944DC00
A984F700
2BFD7000
01800000
ENDCHAR
STARTCHAR percent
ENCODING 37
SWIDTH 796 0
DWIDTH 10 0
BBX 10 9 0 0
BITMAP
03CC104900
0D4A50B100
4E0B658000
6C0D4C1000
5B3C764CD2
1BB3B1E3A6
000945D0C5
002B06B2E1
00A302DC40
ENDCHAR
STARTCHAR ampersand
ENCODING 38
SWIDTH 682 0
DWIDTH 8 0
BBX 8 9 0 0
BITMAP
003CC900
01E80F20
04F33C00
01E80000
05E9257C
4FB0DFE6
BF506730
BF603900
3CEA8100
ENDCHAR
STARTCHAR quotesingle
ENCODING 39
SWIDTH 196 0
DWIDTH 2 0
BBX 2 3 1 6
BITMAP
5D
A5
60
ENDCHAR
STARTCHAR parenleft
ENCODING 40
SWIDTH 437 0
DWIDTH 5 0
BBX 6 12 1 -3
BITMAP
000193
002C30
00B700
05E000
0B9000
1F6000
2F4000
2F3000
1F4000
0C6000
05A000
007000
ENDCHAR
STARTCHAR parenright
ENCODING 41
SWIDTH 413 0
DWIDTH 5 0
BBX 5 12 -1 -3
BITMAP
005600
001E10
000C60
000AA0
0009B0
000BA0
000D80
002F30
008B00
02E200
1B4000
620000
ENDCHAR
STARTCHAR asterisk
ENCODING 42
SWIDTH 515 0
DWIDTH 6 0
BBX 5 5 1 4
BITMAP
159000
CABD10
5EE600
BAAD00
077000
ENDCHAR
STARTCHAR plus
ENCODING 43
SWIDTH 442 0
DWIDTH 5 0
BBX 5 5 0 1
BITMAP
00A500
00C200
AEFEA0
04B000
034000
ENDCHAR
STARTCHAR comma
ENCODING 44
SWIDTH 216 0
DWIDTH 3 0
BBX 2 4 0 -2
BITMAP
8D
6E
36
20
ENDCHAR
STARTCHAR hyphen
ENCODING 45
SWIDTH 290 0
DWIDTH 3 0
BBX 3 1 0 3
BITMAP
7B80
ENDCHAR
STARTCHAR period
ENCODING 46
SWIDTH 263 0
DWIDTH 3 0
BBX 3 2 0 0
BITMAP
5C10
7E20
ENDCHAR
STARTCHAR slash
ENCODING 47
SWIDTH 311 0
DWIDTH 4 0
BBX 4 12 0 -3
BITMAP
0077
00A3
00D0
01C0
0490
0760
0B20
0D00
2B00
5800
8500
C200
ENDCHAR
STARTCHAR zero
ENCODING 48
SWIDTH 546 0
DWIDTH 7 0
BBX 7 9 0 0
BITMAP
005CCA00
05F52F60
1EC00F90
5F701F90
9F403F70
BF206F30
BF10BD00
8F33F400
1BDC5000
ENDCHAR
STARTCHAR one
ENCODING 49
SWIDTH 317 0
DWIDTH 4 0
BBX 4 9 0 0
BITMAP
0026
3DF9
04F6
08F3
0BE0
0EB0
3F80
6F50
AF10
ENDCHAR
STARTCHAR two
ENCODING 50
SWIDTH 492 0
DWIDTH 6 0
BBX 7 9 -1 0
BITMAP
005BDB10
01F14F80
01F53F90
00108E20
0004D300
004A1000
04A10110
0DFFEE40
1A7BEB10
ENDCHAR
STARTCHAR three
ENCODING 51
SWIDTH 514 0
DWIDTH 6 0
BBX 6 9 0 0
BITMAP
02BBD5
0AA0AE
0690DB
002BC2
001AE4
6C32FC
D901FB
C806F4
4CCC50
ENDCHAR
STARTCHAR four
ENCODING 52
SWIDTH 476 0
DWIDTH 6 0
BBX 6 9 0 0
BITMAP
006D10
007F20
00CA63
05D1D1
1C23D2
BEFEF9
424FA1
003F30
009F00
ENDCHAR
STARTCHAR five
ENCODING 53
SWIDTH 517 0
DWIDTH 6 0
BBX 6 9 0 0
BITMAP
001013
04FFFD
087120
0CBDA1
0405F8
2940FB
AC11FA
B907F4
4DDC50
ENDCHAR
STARTCHAR six
ENCODING 54
SWIDTH 500 0
DWIDTH 6 0
BBX 7 9 0 0
BITMAP
005CC900
06F51F10
1EC02A00
6F700000
AF8BB300
CF40DB00
BF00CB00
8F13F400
1BDC5000
ENDCHAR
STARTCHAR seven
ENCODING 55
SWIDTH 464 0
DWIDTH 6 0
BBX 7 9 0 0
BITMAP
1CE71410
3536CB00
0005E200
002E7000
00CC0000
07F50000
0EE00000
1FB00000
0BC00000
ENDCHAR
STARTCHAR eight
ENCODING 56
SWIDTH 499 0
DWIDTH 6 0
BBX 6 9 0 0
BITMAP
01ADC5
0AE15E
0CF18C
06FCC2
04DFB1
7E29F8
E901FB
DB03F7
3CCC70
ENDCHAR
STARTCHAR nine
ENCODING 57
SWIDTH 489 0
DWIDTH 6 0
BBX 6 9 0 0
BITMAP
02BCC2
1D70EA
7F10DD
AD00ED
8E14FC
1AC8F8
1106F3
B62E80
7DD700
ENDCHAR
STARTCHAR colon
ENCODING 58
SWIDTH 267 0
DWIDTH 3 0
BBX 3 5 0 1
BITMAP
09A0
0BC0
0000
4C30
5E40
ENDCHAR
STARTCHAR semicolon
ENCODING 59
SWIDTH 276 0
DWIDTH 3 0
BBX 3 7 0 -2
BITMAP
08A0
0AC0
0000
4E30
3E30
1800
1000
ENDCHAR
STARTCHAR less
ENCODING 60
SWIDTH 358 0
DWIDTH 4 0
BBX 5 5 0 1
BITMAP
000110
018D20
7D7000
6D7100
018800
ENDCHAR
STARTCHAR equal
ENCODING 61
SWIDTH 515 0
DWIDTH 6 0
BBX 6 4 0 1
BITMAP
0ABBB5
000000
000000
5BBBB0
ENDCHAR
STARTCHAR greater
ENCODING 62
SWIDTH 362 0
DWIDTH 4 0
BBX 5 5 0 1
BITMAP
110000
3D7000
01AD20
2AC500
A50000
ENDCHAR
STARTCHAR question
ENCODING 63
SWIDTH 441 0
DWIDTH 5 0
BBX 6 9 0 0
BITMAP
07BE90
4D08F2
3E2AD0
004D30
02C200
094000
030000
3C3000
4E4000
ENDCHAR
STARTCHAR at
ENCODING 64
SWIDTH 688 0
DWIDTH 8 0
BBX 9 9 -1 -1
BITMAP
00029CB600
005D500B50
02E39BA5A0
0A87B695B0
0E3D5A6880
1F0F3D4D20
0F1A97C400
0B80046000
019BC92000
ENDCHAR
STARTCHAR A
ENCODING 65
SWIDTH 668 0
DWIDTH 8 0
BBX 9 11 0 -2
BITMAP
000004AE30
000066CF00
0004B0FC00
2ACEA7F900
C88C08F600
43E709F200
06F20CE000
0AC00FB000
0E903F8000
0E70000000
0340000000
ENDCHAR
STARTCHAR B
ENCODING 66
SWIDTH 641 0
DWIDTH 8 0
BBX 8 9 0 0
BITMAP
029BBD60
4D5A64F0
C66F49A0
849FDF80
00CC0AF2
01F906F4
04F607F1
07F40BB0
0AF6CC20
ENDCHAR
STARTCHAR C
ENCODING 67
SWIDTH 497 0
DWIDTH 6 0
BBX 7 9 0 0
BITMAP
006DCB10
05FA0950
0EE10B30
5FA00000
9F600000
BF400000
BF400000
8F700610
1AEB8200
ENDCHAR
STARTCHAR D
ENCODING 68
SWIDTH 663 0
DWIDTH 8 0
BBX 8 9 0 0
BITMAP
029BCC60
3D6745F4
B77F40F9
D3AF10EB
32DD01F9
01FA03F6
05F608F1
08F32E80
0CEAD900
ENDCHAR
STARTCHAR E
ENCODING 69
SWIDTH 459 0
DWIDTH 6 0
BBX 6 9 0 0
BITMAP
005DC7
02F61D
06F248
03F700
07E810
6FA000
DF4000
CF4025
4DE950
ENDCHAR
STARTCHAR F
ENCODING 70
SWIDTH 459 0
DWIDTH 6 0
BBX 8 9 0 0
BITMAP
047ECBA1
486F5000
B49F3000
D3CF1000
64FFD800
03F90000
07F60000
0AF20000
0DE00000
ENDCHAR
STARTCHAR G
ENCODING 71
SWIDTH 578 0
DWIDTH 7 0
BBX 7 11 0 -2
BITMAP
006CCC30
08F706B0
3FB00A90
9F500000
BF200940
AF203F40
6F50BF10
08C9CB00
06A4F700
1E18E100
08CB3000
ENDCHAR
STARTCHAR H
ENCODING 72
SWIDTH 665 0
DWIDTH 8 0
BBX 9 9 0 0
BITMAP
018DB08F30
1DAF80AF00
9A5F60DC00
C58F31F900
63CFDEF600
00FB07F200
04F80BE000
07F40EB000
0AF13F8000
ENDCHAR
STARTCHAR I
ENCODING 73
SWIDTH 375 0
DWIDTH 5 0
BBX 5 9 0 0
BITMAP
029EA0
3C6F70
C57F40
D3AF10
11EC00
02F900
05F600
08F300
0CE000
ENDCHAR
STARTCHAR J
ENCODING 74
SWIDTH 536 0
DWIDTH 6 0
BBX 7 11 0 -2
BITMAP
00018DC0
001C5F90
00985F60
00A69F20
0012CE00
0001FB00
0004F700
0008F400
4B8CE100
B63F8000
5CB80000
ENDCHAR
STARTCHAR K
ENCODING 75
SWIDTH 601 0
DWIDTH 7 0
BBX 8 9 0 0
BITMAP
019DA0A9
2C7F75B0
A77F5C10
D3AFB300
52DECA20
02FA2F80
05F64F50
08F38F10
0CE08F10
ENDCHAR
STARTCHAR L
ENCODING 76
SWIDTH 379 0
DWIDTH 5 0
BBX 8 12 0 -3
BITMAP
029EA000
3C6F7000
C57F3000
C3BF0000
11EC0000
02F90000
06F50000
09F20000
0CF40000
015DB400
0001BFEC
000008E6
ENDCHAR
STARTCHAR M
ENCODING 77
SWIDTH 787 0
DWIDTH 9 0
BBX 10 9 0 0
BITMAP
004AF804F9
06A7F70AF6
1F1CF72FF4
1E3EF68FF2
018AF6DCF0
00D6FA9DD0
04A5FF3FB0
0A56FC2F90
1D07F64F70
ENDCHAR
STARTCHAR N
ENCODING 78
SWIDTH 668 0
DWIDTH 8 0
BBX 9 9 0 0
BITMAP
04BFA00A80
5C5FE00D40
C67FF31F10
D4ACF64D00
23D5FA7900
02F1CDA600
05C09FE300
08905FE000
0C502FB000
ENDCHAR
STARTCHAR O
ENCODING 79
SWIDTH 665 0
DWIDTH 8 0
BBX 8 9 0 0
BITMAP
006BBCA1
1C7791E8
996F30BC
B6EC00CC
27F700EB
09F304F7
0AF10AE1
09F35F50
02CEC500
ENDCHAR
STARTCHAR P
ENCODING 80
SWIDTH 573 0
DWIDTH 7 0
BBX 8 9 0 0
BITMAP
019BCC30
3D5847D0
B67F44F1
D3AF17D0
21DD2E40
02FC7200
05F60000
08F30000
0CE00000
ENDCHAR
STARTCHAR Q
ENCODING 81
SWIDTH 665 0
DWIDTH 8 0
BBX 8 11 0 -2
BITMAP
006BBCA1
1C7691E8
896F40BC
C6ED00CC
37F700EA
09F303F7
0AF209F2
09F89F70
02CDEC00
00003FD2
00000450
ENDCHAR
STARTCHAR R
ENCODING 82
SWIDTH 601 0
DWIDTH 7 0
BBX 7 9 0 0
BITMAP
018CBC30
2D6846D0
A77F46E0
D3AF2C60
52DFEE30
01FA2F80
05F74F50
08F38F10
0CE08F10
ENDCHAR
STARTCHAR S
ENCODING 83
SWIDTH 570 0
DWIDTH 7 0
BBX 7 9 0 0
BITMAP
004CCC20
01FA0990
02FB0A50
00AF7000
001CF500
19A2EE00
7E20AF20
7D01DC00
1ACDA200
ENDCHAR
STARTCHAR T
ENCODING 84
SWIDTH 481 0
DWIDTH 6 0
BBX 9 9 0 0
BITMAP
05ACEA3150
6B18FAAA20
C50CF10000
D30EC00000
213F900000
006F600000
009F200000
00CE000000
00FB000000
ENDCHAR
STARTCHAR U
ENCODING 85
SWIDTH 716 0
DWIDTH 9 0
BBX 10 9 0 0
BITMAP
039DE00AF1
5C1EB00DC0
E33F701F90
E27F305F60
21BE008F30
00EA00BE00
01F801F900
00FA2AE200
006DEB3000
ENDCHAR
STARTCHAR V
ENCODING 86
SWIDTH 615 0
DWIDTH 7 0
BBX 9 9 0 0
BITMAP
029EB00B10
3C2FC02A00
C60FC07500
D30FC0B000
110EC28000
000ED73000
000DDA0000
000DF70000
000DF10000
ENDCHAR
STARTCHAR W
ENCODING 87
SWIDTH 962 0
DWIDTH 12 0
BBX 13 9 0 0
BITMAP
029EB00CE00930
3C2FC02FE00C00
C60FC07FE05700
D30FC0BDF0A100
110EC29CF1A000
000ED73CF55000
000DDA0BF90000
000DF70BF90000
000DF10BF30000
ENDCHAR
STARTCHAR X
ENCODING 88
SWIDTH 620 0
DWIDTH 7 0
BBX 8 9 0 0
BITMAP
028DD093
3C2DF4A0
C60AFD20
D307F900
1104FA00
0006FE00
001BCF20
00839F50
02906F80
ENDCHAR
STARTCHAR Y
ENCODING 89
SWIDTH 620 0
DWIDTH 7 0
BBX 9 9 0 0
BITMAP
028DD00920
3C2DF21A00
C609F67400
D305F9A000
1101FF6000
0000EF1000
0002FC0000
0005F90000
0008F50000
ENDCHAR
STARTCHAR Z
ENCODING 90
SWIDTH 542 0
DWIDTH 7 0
BBX 7 9 0 0
BITMAP
08CBEF60
0D41ED00
0009F600
002FD000
009F5000
02FD0000
09F50000
2FD03D00
9FDBC800
ENDCHAR
STARTCHAR bracketleft
ENCODING 91
SWIDTH 400 0
DWIDTH 5 0
BBX 5 12 0 -3
BITMAP
00ADA0
00D600
01F200
04E000
08B000
0B8000
0E4000
2F1000
5D0000
8A0000
C70000
EC6000
ENDCHAR
STARTCHAR backslash
ENCODING 92
SWIDTH 362 0
DWIDTH 4 0
BBX 4 12 0 -3
BITMAP
6700
3A00
0D00
0B20
0850
0580
02B0
00D0
00A3
0076
0049
001C
ENDCHAR
STARTCHAR bracketright
ENCODING 93
SWIDTH 400 0
DWIDTH 5 0
BBX 6 12 -1 -3
BITMAP
003BF4
0002F1
0006D0
0009A0
000C60
001F30
003F00
007C00
00A900
00D600
01F200
7CE000
ENDCHAR
STARTCHAR asciicircum
ENCODING 94
SWIDTH 421 0
DWIDTH 5 0
BBX 4 2 0 7
BITMAP
0078
1869
ENDCHAR
STARTCHAR underscore
ENCODING 95
SWIDTH 444 0
DWIDTH 5 0
BBX 5 1 0 0
BITMAP
5BBB80
ENDCHAR
STARTCHAR grave
ENCODING 96
SWIDTH 201 0
DWIDTH 2 0
BBX 2 3 0 7
BITMAP
21
6A
1B
ENDCHAR
STARTCHAR a
ENCODING 97
SWIDTH 526 0
DWIDTH 6 0
BBX 8 6 -1 0
BITMAP
007DAFA0
06F54F70
0DD07F30
1FB0BF01
2FB3FE37
09E98EA0
ENDCHAR
STARTCHAR b
ENCODING 98
SWIDTH 444 0
DWIDTH 5 0
BBX 6 9 -1 0
BITMAP
002400
00DD00
01FA00
04FCD7
08F36D
0BF16D
0ED099
1FA1D3
0AEB40
ENDCHAR
STARTCHAR c
ENCODING 99
SWIDTH 384 0
DWIDTH 5 0
BBX 6 6 -1 0
BITMAP
007DD3
06F694
0DE000
1FB000
2FA016
09EA70
ENDCHAR
STARTCHAR d
ENCODING 100
SWIDTH 525 0
DWIDTH 6 0
BBX 8 9 -1 0
BITMAP
00000131
00000AF1
00000DD0
007DAFA0
06F64F70
0DE07F40
1FB0AF10
2FA1ED06
09E9AE81
ENDCHAR
STARTCHAR e
ENCODING 101
SWIDTH 384 0
DWIDTH 5 0
BBX 6 6 -1 0
BITMAP
007DD3
06F695
0DE3D1
1FEA30
2FA016
09EA70
ENDCHAR
STARTCHAR f
ENCODING 102
SWIDTH 267 0
DWIDTH 3 0
BBX 8 12 -3 -3
BITMAP
00003DC5
0000CD05
0001FA00
0004FD40
0008F400
000BF100
000ED000
002F9000
005F6000
1ADF3000
75BD0000
3CD40000
ENDCHAR
STARTCHAR g
ENCODING 103
SWIDTH 507 0
DWIDTH 6 0
BBX 8 9 -1 -3
BITMAP
007DAFA0
06F64F70
0DE07F40
1FB0AF10
2FA1EC25
09EAFC90
004AF700
0299F200
01BE7000
ENDCHAR
STARTCHAR h
ENCODING 104
SWIDTH 505 0
DWIDTH 6 0
BBX 8 9 -1 0
BITMAP
00140000
00DD0000
01FA0000
04FCDB00
07F49F20
0BE0BF00
0EC0EC00
2F91F925
5F50BD70
ENDCHAR
STARTCHAR i
ENCODING 105
SWIDTH 267 0
DWIDTH 3 0
BBX 5 8 -1 0
BITMAP
00BB00
00AA00
04F700
08F300
0BF000
0EC010
1FB560
0BE800
ENDCHAR
STARTCHAR j
ENCODING 106
SWIDTH 240 0
DWIDTH 3 0
BBX 7 11 -3 -3
BITMAP
0000CA00
0000B800
0004F700
0007F400
000BF100
000ED000
002F9520
005FB600
07DF3000
57CE0000
3CD40000
ENDCHAR
STARTCHAR k
ENCODING 107
SWIDTH 518 0
DWIDTH 6 0
BBX 8 9 -1 0
BITMAP
00240000
00DD0000
01FA0000
04F74B20
07FAC200
0BFBED00
0EC0CE01
2F90EC46
5F60AEA0
ENDCHAR
STARTCHAR l
ENCODING 108
SWIDTH 267 0
DWIDTH 3 0
BBX 5 9 -1 0
BITMAP
000100
00CE00
01FB00
04F700
07F400
0BF100
0ED000
1FA360
0BE900
ENDCHAR
STARTCHAR m
ENCODING 109
SWIDTH 752 0
DWIDTH 9 0
BBX 11 6 -1 0
BITMAP
04FCDC8DB000
08F49F49F100
0BE0CE0BE000
0EC0FB0EB000
2F93F81F9340
5F56F50BD700
ENDCHAR
STARTCHAR n
ENCODING 110
SWIDTH 505 0
DWIDTH 6 0
BBX 8 6 -1 0
BITMAP
04FCDB00
08F49F20
0BE0BF00
0EC0EC00
2F91F925
5F50BD70
ENDCHAR
STARTCHAR o
ENCODING 111
SWIDTH 439 0
DWIDTH 5 0
BBX 8 6 -1 0
BITMAP
007DC300
06F67934
0DE08C40
1FB09600
2FA1D100
09EB4000
ENDCHAR
STARTCHAR p
ENCODING 112
SWIDTH 468 0
DWIDTH 6 0
BBX 7 10 -1 -3
BITMAP
01840000
05FCDC10
08F46F40
0BF06F40
0EC0AF10
2F93FA00
6FDEB100
9F200000
CE000000
B6000000
ENDCHAR
STARTCHAR q
ENCODING 113
SWIDTH 486 0
DWIDTH 6 0
BBX 7 9 -1 -3
BITMAP
007DAFA0
06F64F60
0DE07F30
1FB0AF00
2FA1EC00
09E9F800
0006F500
0009F200
00098000
ENDCHAR
STARTCHAR r
ENCODING 114
SWIDTH 376 0
DWIDTH 5 0
BBX 6 6 -1 0
BITMAP
04FBD7
08F686
0BF000
0EC000
2F9000
5F6000
ENDCHAR
STARTCHAR s
ENCODING 115
SWIDTH 382 0
DWIDTH 5 0
BBX 6 7 -1 0
BITMAP
000010
006F80
00BF90
047FA0
1B1FB0
591FD6
1ADB30
ENDCHAR
STARTCHAR t
ENCODING 116
SWIDTH 267 0
DWIDTH 3 0
BBX 5 8 -1 0
BITMAP
009A00
01FA00
08FD20
07F400
0AF100
0EC010
1FB460
0BE800
ENDCHAR
STARTCHAR u
ENCODING 117
SWIDTH 505 0
DWIDTH 6 0
BBX 8 6 -1 0
BITMAP
04F75F60
08F38F30
0BF0BE00
0EC0EB01
1FB7FB64
0BE6BE70
ENDCHAR
STARTCHAR v
ENCODING 118
SWIDTH 414 0
DWIDTH 5 0
BBX 6 6 -1 0
BITMAP
04F769
08F30B
0BF039
0EC094
1FB6B0
0BEA10
ENDCHAR
STARTCHAR w
ENCODING 119
SWIDTH 661 0
DWIDTH 8 0
BBX 9 6 -1 0
BITMAP
04F75F6780
08F38F31B0
0BF0BE0480
0EC0EB0A40
1FB7FA6B00
0BE6BEA100
ENDCHAR
STARTCHAR x
ENCODING 120
SWIDTH 522 0
DWIDTH 6 0
BBX 7 6 0 0
BITMAP
05DB3A00
258F4C00
705FD200
706F6000
149F8160
3909E800
ENDCHAR
STARTCHAR y
ENCODING 121
SWIDTH 486 0
DWIDTH 6 0
BBX 8 9 -1 -3
BITMAP
04F75F60
08F38F30
0BF0BE00
0EC0EB11
1FB7F871
0BECFB50
008DF200
065DD000
03ED4000
ENDCHAR
STARTCHAR z
ENCODING 122
SWIDTH 428 0
DWIDTH 5 0
BBX 5 6 0 0
BITMAP
1BBFD0
396F40
01EB00
08F300
2F9560
BFCC40
ENDCHAR
STARTCHAR braceleft
ENCODING 123
SWIDTH 352 0
DWIDTH 4 0
BBX 5 12 0 -3
BITMAP
003D90
00B900
00E500
01F400
02F200
04E000
4E5000
0A8000
0D5000
3F2000
6F0000
2D7000
ENDCHAR
STARTCHAR bar
ENCODING 124
SWIDTH 532 0
DWIDTH 6 0
BBX 2 12 2 -3
BITMAP
6B
6B
6B
6B
6B
6B
6B
6B
6B
6B
6B
6B
ENDCHAR
STARTCHAR braceright
ENCODING 125
SWIDTH 352 0
DWIDTH 4 0
BBX 5 12 -1 -3
BITMAP
008C20
001F60
000F50
003F10
006C00
008A00
005E50
01E400
03F200
04F000
08C000
9D4000
ENDCHAR
STARTCHAR asciitilde
ENCODING 126
SWIDTH 431 0
DWIDTH 5 0
BBX 6 2 0 7
BITMAP
037511
28CEA1
ENDCHAR
STARTCHAR uni00A0
ENCODING 160
SWIDTH 217 0
DWIDTH 3 0
BBX 1 1 0 0
BITMAP
00
ENDCHAR
STARTCHAR exclamdown
ENCODING 161
SWIDTH 219 0
DWIDTH 3 0
BBX 4 9 -1 -3
BITMAP
01D9
00B7
0020
03D0
07B0
0C90
1F70
5F40
9D20
ENDCHAR
STARTCHAR cent
ENCODING 162
SWIDTH 384 0
DWIDTH 5 0
BBX 5 9 0 -1
BITMAP
000900
029D60
2EA7E0
AB8230
D89000
BB9200
2CC900
072000
080000
ENDCHAR
STARTCHAR sterling
ENCODING 163
SWIDTH 455 0
DWIDTH 5 0
BBX 7 9 0 0
BITMAP
001ADC10
009E2F10
00EA0300
03F70000
6DFCA000
09F10000
0CD00000
2F802700
ADCEF800
ENDCHAR
STARTCHAR currency
ENCODING 164
SWIDTH 500 0
DWIDTH 6 0
BBX 6 5 0 2
BITMAP
010010
1BBBB1
0A10A0
0A21A0
0BBBA1
ENDCHAR
STARTCHAR yen
ENCODING 165
SWIDTH 558 0
DWIDTH 7 0
BBX 6 9 1 0
BITMAP
9F602A
5F9083
1FD0A0
0CF750
08FD00
5CFC90
09F500
AEFC80
1EE000
ENDCHAR
STARTCHAR brokenbar
ENCODING 166
SWIDTH 532 0
DWIDTH 6 0
BBX 2 12 2 -3
BITMAP
6B
6B
6B
6B
6B
00
6B
6B
6B
6B
6B
6B
ENDCHAR
STARTCHAR section
ENCODING 167
SWIDTH 542 0
DWIDTH 7 0
BBX 7 10 0 -1
BITMAP
001ACC10
00AD0930
00DD0400
0BBFA100
0EA5FA00
06F96F00
027F9D00
BA0EC200
D50E7000
4A970000
ENDCHAR
STARTCHAR dieresis
ENCODING 168
SWIDTH 392 0
DWIDTH 5 0
BBX 5 2 0 6
BITMAP
3D1E20
010100
ENDCHAR
STARTCHAR copyright
ENCODING 169
SWIDTH 587 0
DWIDTH 7 0
BBX 7 7 0 1
BITMAP
01787100
09201800
35597440
54904260
36A02440
09798900
01787100
ENDCHAR
STARTCHAR ordfeminine
ENCODING 170
SWIDTH 345 0
DWIDTH 4 0
BBX 4 4 0 5
BITMAP
0ACB
4B68
78A5
3A76
ENDCHAR
STARTCHAR guillemotleft
ENCODING 171
SWIDTH 589 0
DWIDTH 7 0
BBX 7 4 0 1
BITMAP
00682840
59497100
49588200
00632700
ENDCHAR
STARTCHAR logicalnot
ENCODING 172
SWIDTH 444 0
DWIDTH 5 0
BBX 5 3 0 1
BITMAP
7BBD90
000E70
001D30
ENDCHAR
STARTCHAR uni00AD
ENCODING 173
SWIDTH 290 0
DWIDTH 3 0
BBX 3 1 0 3
BITMAP
7B80
ENDCHAR
STARTCHAR registered
ENCODING 174
SWIDTH 553 0
DWIDTH 7 0
BBX 7 7 0 1
BITMAP
02876000
19103700
62985710
80A94530
62836710
19305700
02886000
ENDCHAR
STARTCHAR macron
ENCODING 175
SWIDTH 446 0
DWIDTH 5 0
BBX 5 1 0 7
BITMAP
1BBB90
ENDCHAR
STARTCHAR degree
ENCODING 176
SWIDTH 314 0
DWIDTH 4 0
BBX 4 4 0 4
BITMAP
0682
5865
8582
3850
ENDCHAR
STARTCHAR plusminus
ENCODING 177
SWIDTH 479 0
DWIDTH 6 0
BBX 6 7 0 1
BITMAP
000200
002D00
004A00
3EFFE3
00B400
008100
7BBB70
ENDCHAR
STARTCHAR uni00B2
ENCODING 178
SWIDTH 328 0
DWIDTH 4 0
BBX 4 5 0 4
BITMAP
08D8
0A5B
00A2
0810
4CB6
ENDCHAR
STARTCHAR uni00B3
ENCODING 179
SWIDTH 336 0
DWIDTH 4 0
BBX 4 5 0 4
BITMAP
06C9
0A3C
00A4
486B
1882
ENDCHAR
STARTCHAR acute
ENCODING 180
SWIDTH 316 0
DWIDTH 4 0
BBX 3 2 1 7
BITMAP
0B60
4800
ENDCHAR
STARTCHAR uni00B5
ENCODING 181
SWIDTH 505 0
DWIDTH 6 0
BBX 8 8 -1 -2
BITMAP
04F75F60
08F38F30
0BF1BE00
0EC0EC01
2FB6FA54
5FE7BE70
8F200000
A9000000
ENDCHAR
STARTCHAR paragraph
ENCODING 182
SWIDTH 542 0
DWIDTH 7 0
BBX 6 10 0 -1
BITMAP
01AED6
0AFFAE
1FFF8F
1FFF8D
0BFF8A
01AED6
0089E3
00B8F0
00E8C0
02E990
ENDCHAR
STARTCHAR periodcentered
ENCODING 183
SWIDTH 434 0
DWIDTH 5 0
BBX 3 3 1 2
BITMAP
0200
6F90
5E70
ENDCHAR
STARTCHAR cedilla
ENCODING 184
SWIDTH 227 0
DWIDTH 3 0
BBX 3 3 0 -3
BITMAP
0800
3C80
5850
ENDCHAR
STARTCHAR uni00B9
ENCODING 185
SWIDTH 229 0
DWIDTH 3 0
BBX 3 6 0 3
BITMAP
0230
4E60
0C30
0E00
3C00
4700
ENDCHAR
STARTCHAR ordmasculine
ENCODING 186
SWIDTH 329 0
DWIDTH 4 0
BBX 4 4 0 5
BITMAP
0AA0
5A64
7780
3A40
ENDCHAR
STARTCHAR guillemotright
ENCODING 187
SWIDTH 586 0
DWIDTH 7 0
BBX 7 4 0 1
BITMAP
0A449100
00792A50
05977930
64172000
ENDCHAR
STARTCHAR onequarter
ENCODING 188
SWIDTH 749 0
DWIDTH 9 0
BBX 9 9 0 0
BITMAP
023001C000
4E60085000
0C302B0000
0E00930000
3C03A0B6A0
470B20B970
0058059E70
00C1000E10
0670002D00
ENDCHAR
STARTCHAR onehalf
ENCODING 189
SWIDTH 745 0
DWIDTH 9 0
BBX 9 9 0 0
BITMAP
023001C000
4E60085000
0C302B0000
0E00930000
3C03A08D80
470B20A5B0
0058000A20
00C1008200
067005DB60
ENDCHAR
STARTCHAR threequarters
ENCODING 190
SWIDTH 836 0
DWIDTH 10 0
BBX 10 9 0 0
BITMAP
06C9001C10
0A3C007600
00A401B000
486B094000
18823A0A6A
0000A20B88
00049049D8
000B1000E2
00670002E0
ENDCHAR
STARTCHAR questiondown
ENCODING 191
SWIDTH 439 0
DWIDTH 5 0
BBX 6 9 -1 -3
BITMAP
0004E4
0003C3
000030
000390
001C20
03D400
0DA2F4
1F90D4
08EB70
ENDCHAR
STARTCHAR Agrave
ENCODING 192
SWIDTH 668 0
DWIDTH 8 0
BBX 9 14 0 -2
BITMAP
000001E300
000000A500
0000001100
000004AE30
000066CF00
0004B0FC00
2ACEA7F900
C88C08F600
43E709F200
06F20CE000
0AC00FB000
0E903F8000
0E70000000
0340000000
ENDCHAR
STARTCHAR Aacute
ENCODING 193
SWIDTH 668 0
DWIDTH 8 0
BBX 10 14 0 -2
BITMAP
00000004D1
0000000A50
0000000700
000004AE30
000066CF00
0004B0FC00
2ACEA7F900
C88C08F600
43E709F200
06F20CE000
0AC00FB000
0E903F8000
0E70000000
0340000000
ENDCHAR
STARTCHAR Acircumflex
ENCODING 194
SWIDTH 668 0
DWIDTH 8 0
BBX 10 14 0 -2
BITMAP
0000000590
0000005BB0
0000015031
000004AE30
000066CF00
0004B0FC00
2ACEA7F900
C88C08F600
43E709F200
06F20CE000
0AC00FB000
0E903F8000
0E70000000
0340000000
ENDCHAR
STARTCHAR Atilde
ENCODING 195
SWIDTH 668 0
DWIDTH 8 0
BBX 10 13 0 -2
BITMAP
000006ED94
0000013750
000004AE30
000066CF00
0004B0FC00
2ACEA7F900
C88C08F600
43E709F200
06F20CE000
0AC00FB000
0E903F8000
0E70000000
0340000000
ENDCHAR
STARTCHAR Adieresis
ENCODING 196
SWIDTH 668 0
DWIDTH 8 0
BBX 9 13 0 -2
BITMAP
000006B4D0
0000001010
000004AE30
000066CF00
0004B0FC00
2ACEA7F900
C88C08F600
43E709F200
06F20CE000
0AC00FB000
0E903F8000
0E70000000
0340000000
ENDCHAR
STARTCHAR Aring
ENCODING 197
SWIDTH 668 0
DWIDTH 8 0
BBX 9 14 0 -2
BITMAP
0000004B00
0000008430
0000005B00
000004AE30
000066CF00
0004B0FC00
2ACEA7F900
C88C08F600
43E709F200
06F20CE000
0AC00FB000
0E903F8000
0E70000000
0340000000
ENDCHAR
STARTCHAR AE
ENCODING 198
SWIDTH 764 0
DWIDTH 9 0
BBX 11 11 0 -2
BITMAP
000004BE6150
000067BF9B40
0005C0ED0000
2ACE94F90000
C98C1AFED300
96E709F30000
06F20CF00000
0BC00FC00000
0E903FEBB300
0E7000000000
033000000000
ENDCHAR
STARTCHAR Ccedilla
ENCODING 199
SWIDTH 497 0
DWIDTH 6 0
BBX 7 12 0 -3
BITMAP
005DCB10
05F90950
0EE10A30
5FA00000
9F600000
BF400000
BF400000
8F912910
1BEFA200
00771000
003C4000
02870000
ENDCHAR
STARTCHAR Egrave
ENCODING 200
SWIDTH 459 0
DWIDTH 6 0
BBX 6 12 0 0
BITMAP
000C50
000780
000110
005DC7
02F61D
06F248
03F700
07E810
6FA000
DF4000
CF4025
4DE950
ENDCHAR
STARTCHAR Eacute
ENCODING 201
SWIDTH 459 0
DWIDTH 6 0
BBX 7 12 0 0
BITMAP
00003D10
0000B400
00000000
005DC700
02F61D00
06F24800
03F70000
07E81000
6FA00000
DF400000
CF402500
4DE95000
ENDCHAR
STARTCHAR Ecircumflex
ENCODING 202
SWIDTH 459 0
DWIDTH 6 0
BBX 6 12 0 0
BITMAP
000196
002959
000000
005DC7
02F61D
06F248
03F700
07E810
6FA000
DF4000
CF4025
4DE950
ENDCHAR
STARTCHAR Edieresis
ENCODING 203
SWIDTH 459 0
DWIDTH 6 0
BBX 7 11 0 0
BITMAP
001D3C50
00010100
005DC700
02F61D00
06F24800
03F70000
07E81000
6FA00000
DF400000
CF402500
4DE95000
ENDCHAR
STARTCHAR Igrave
ENCODING 204
SWIDTH 375 0
DWIDTH 5 0
BBX 5 12 0 0
BITMAP
004E00
000E10
000200
029EA0
3C6F70
C57F40
D3AF10
11EC00
02F900
05F600
08F300
0CE000
ENDCHAR
STARTCHAR Iacute
ENCODING 205
SWIDTH 375 0
DWIDTH 5 0
BBX 6 12 0 0
BITMAP
000099
0001D1
000340
029EA0
3C6F70
C57F40
D3AF10
11EC00
02F900
05F600
08F300
0CE000
ENDCHAR
STARTCHAR Icircumflex
ENCODING 206
SWIDTH 375 0
DWIDTH 5 0
BBX 6 12 0 0
BITMAP
0001C0
001CB4
004103
029EA0
3C6F70
C57F40
D3AF10
11EC00
02F900
05F600
08F300
0CE000
ENDCHAR
STARTCHAR Idieresis
ENCODING 207
SWIDTH 375 0
DWIDTH 5 0
BBX 6 11 0 0
BITMAP
00986A
001101
029EA0
3C6F70
C57F40
D3AF10
11EC00
02F900
05F600
08F300
0CE000
ENDCHAR
STARTCHAR Eth
ENCODING 208
SWIDTH 663 0
DWIDTH 8 0
BBX 8 9 0 0
BITMAP
019BBC60
3D6844F5
B67F40E9
D3AF10EB
25FE81F9
02F903F6
05F608F1
08F32E80
0CEAD900
ENDCHAR
STARTCHAR Ntilde
ENCODING 209
SWIDTH 686 0
DWIDTH 8 0
BBX 9 11 0 0
BITMAP
00008EDA20
0000013100
04BFA00A80
5C5FE00D40
C67FF31F10
D4ACF64D00
23D5FA7900
02F1CDA600
05C09FE300
08905FE000
0C502FB000
ENDCHAR
STARTCHAR Ograve
ENCODING 210
SWIDTH 665 0
DWIDTH 8 0
BBX 8 12 0 0
BITMAP
0003E000
0000D200
00002000
006BBCA1
1C7791E8
996F30BC
B6EC00CC
27F700EB
09F304F7
0AF10AE1
09F35F50
02CEC500
ENDCHAR
STARTCHAR Oacute
ENCODING 211
SWIDTH 665 0
DWIDTH 8 0
BBX 8 12 0 0
BITMAP
000005C0
00000C40
00001600
006BBCA1
1C7791E8
996F30BC
B6EC00CC
27F700EB
09F304F7
0AF10AE1
09F35F50
02CEC500
ENDCHAR
STARTCHAR Ocircumflex
ENCODING 212
SWIDTH 665 0
DWIDTH 8 0
BBX 8 12 0 0
BITMAP
00000A30
0000AA70
00032040
006BBCA1
1C7791E8
996F30BC
B6EC00CC
27F700EB
09F304F7
0AF10AE1
09F35F50
02CEC500
ENDCHAR
STARTCHAR Otilde
ENCODING 213
SWIDTH 665 0
DWIDTH 8 0
BBX 8 11 0 0
BITMAP
0002CEB7
00011661
006BBCA1
1C7791E8
996F30BC
B6EC00CC
27F700EB
09F304F7
0AF10AE1
09F35F50
02CEC500
ENDCHAR
STARTCHAR Odieresis
ENCODING 214
SWIDTH 665 0
DWIDTH 8 0
BBX 8 11 0 0
BITMAP
0006B4D0
00001010
006BBCA1
1C7791E8
996F30BC
B6EC00CC
27F700EB
09F304F7
0AF10AE1
09F35F50
02CEC500
ENDCHAR
STARTCHAR multiply
ENCODING 215
SWIDTH 414 0
DWIDTH 5 0
BBX 5 4 0 2
BITMAP
3A1B20
0AE800
1CDA00
370810
ENDCHAR
STARTCHAR Oslash
ENCODING 216
SWIDTH 658 0
DWIDTH 8 0
BBX 8 10 0 -1
BITMAP
00000900
018BBE70
3D6B79F5
B6BB73F8
77F6A1F8
08F2A5F5
0BF28BE1
0AF6AF60
03DFE700
000A1000
ENDCHAR
STARTCHAR Ugrave
ENCODING 217
SWIDTH 716 0
DWIDTH 9 0
BBX 9 12 0 0
BITMAP
00000E3000
00000A5000
0000011000
029DD00BE0
4C2FA00EB0
E44F602F80
E18F206F50
21CD009F10
00F900DD00
02F703F800
02FA3BE100
008EEB3000
ENDCHAR
STARTCHAR Uacute
ENCODING 218
SWIDTH 716 0
DWIDTH 9 0
BBX 9 12 0 0
BITMAP
000000C600
000003C000
0000043000
029DD00BE0
4C2FA00EB0
E44F602F80
E18F206F50
21CD009F10
00F900DD00
02F703F800
02FA3BE100
008EEB3000
ENDCHAR
STARTCHAR Ucircumflex
ENCODING 219
SWIDTH 716 0
DWIDTH 9 0
BBX 9 12 0 0
BITMAP
000000A400
00000AA800
0000320400
029DD00BE0
4C2FA00EB0
E44F602F80
E18F206F50
21CD009F10
00F900DD00
02F703F800
02FA3BE100
008EEB3000
ENDCHAR
STARTCHAR Udieresis
ENCODING 220
SWIDTH 716 0
DWIDTH 9 0
BBX 9 11 0 0
BITMAP
00005C2D10
0000010100
029DD00BE0
4C2FA00EB0
E44F602F80
E18F206F50
21CD009F10
00F900DD00
02F703F800
02FA3BE100
008EEB3000
ENDCHAR
STARTCHAR Yacute
ENCODING 221
SWIDTH 620 0
DWIDTH 7 0
BBX 9 12 0 0
BITMAP
0000003E10
000000A600
0000007000
028DD00920
3C2DF21A00
C609F67400
D305F9A000
1101FF6000
0000EF1000
0002FC0000
0005F90000
0008F50000
ENDCHAR
STARTCHAR Thorn
ENCODING 222
SWIDTH 583 0
DWIDTH 7 0
BBX 8 10 0 0
BITMAP
00012000
002F9000
019FDA20
2BAF38D0
B5BF04F1
D3EC07E0
24F83F60
05FDB500
09F20000
0CE00000
ENDCHAR
STARTCHAR germandbls
ENCODING 223
SWIDTH 480 0
DWIDTH 6 0
BBX 7 11 -1 -3
BITMAP
001BDA00
00AD1E00
01F94900
06F5B200
09F29A00
0CE04F20
1FA05F20
4F7BD700
7F400000
BF100000
B7000000
ENDCHAR
STARTCHAR agrave
ENCODING 224
SWIDTH 526 0
DWIDTH 6 0
BBX 8 9 -1 0
BITMAP
0004E000
0000E100
00002000
007DAFA0
06F54F70
0DD07F30
1FB0BF01
2FB3FE37
09E98EA0
ENDCHAR
STARTCHAR aacute
ENCODING 225
SWIDTH 526 0
DWIDTH 6 0
BBX 8 9 -1 0
BITMAP
00003E10
0000A500
00004000
007DAFA0
06F54F70
0DD07F30
1FB0BF01
2FB3FE37
09E98EA0
ENDCHAR
STARTCHAR acircumflex
ENCODING 226
SWIDTH 526 0
DWIDTH 6 0
BBX 8 9 -1 0
BITMAP
00003B00
0004BA20
00030120
007DAFA0
06F54F70
0DD07F30
1FB0BF01
2FB3FE37
09E98EA0
ENDCHAR
STARTCHAR atilde
ENCODING 227
SWIDTH 526 0
DWIDTH 6 0
BBX 8 8 -1 0
BITMAP
002AFC91
00002300
007DAFA0
06F54F70
0DD07F30
1FB0BF01
2FB3FE37
09E98EA0
ENDCHAR
STARTCHAR adieresis
ENCODING 228
SWIDTH 526 0
DWIDTH 6 0
BBX 8 8 -1 0
BITMAP
000A7890
00010010
007DAFA0
06F54F70
0DD07F30
1FB0BF01
2FB3FE37
09E98EA0
ENDCHAR
STARTCHAR aring
ENCODING 229
SWIDTH 526 0
DWIDTH 6 0
BBX 8 8 -1 0
BITMAP
0001B700
0001B600
007DAFA0
06F54F70
0DD07F30
1FB0BF01
2FB3FE37
09E98EA0
ENDCHAR
STARTCHAR ae
ENCODING 230
SWIDTH 650 0
DWIDTH 8 0
BBX 9 6 -1 0
BITMAP
007BEADD50
0010AF8680
03BCEF4C30
0ED1FFB400
1F94FD0060
0AE99FB810
ENDCHAR
STARTCHAR ccedilla
ENCODING 231
SWIDTH 384 0
DWIDTH 5 0
BBX 6 9 -1 -3
BITMAP
007DD3
06F684
0DE000
1FB001
2FB146
09EE70
002A20
002890
008720
ENDCHAR
STARTCHAR egrave
ENCODING 232
SWIDTH 384 0
DWIDTH 5 0
BBX 6 9 -1 0
BITMAP
000E40
000960
000110
007DD3
06F695
0DE3D1
1FEA30
2FA016
09EA70
ENDCHAR
STARTCHAR eacute
ENCODING 233
SWIDTH 384 0
DWIDTH 5 0
BBX 6 9 -1 0
BITMAP
00007B
0000D2
000140
007DD3
06F695
0DE3D1
1FEA30
2FA016
09EA70
ENDCHAR
STARTCHAR ecircumflex
ENCODING 234
SWIDTH 384 0
DWIDTH 5 0
BBX 6 9 -1 0
BITMAP
0001B3
001A88
003102
007DD3
06F695
0DE3D1
1FEA30
2FA016
09EA70
ENDCHAR
STARTCHAR edieresis
ENCODING 235
SWIDTH 384 0
DWIDTH 5 0
BBX 6 8 -1 0
BITMAP
006B4D
000101
007DD3
06F695
0DE3D1
1FEA30
2FA016
09EA70
ENDCHAR
STARTCHAR igrave
ENCODING 236
SWIDTH 267 0
DWIDTH 3 0
BBX 5 9 -1 0
BITMAP
02F000
00D300
002100
04F700
08F300
0BF000
0EC010
1FB560
0BE800
ENDCHAR
STARTCHAR iacute
ENCODING 237
SWIDTH 267 0
DWIDTH 3 0
BBX 5 9 -1 0
BITMAP
000C60
004B00
003100
04F700
08F300
0BF000
0EC010
1FB560
0BE800
ENDCHAR
STARTCHAR icircumflex
ENCODING 238
SWIDTH 267 0
DWIDTH 3 0
BBX 5 9 -1 0
BITMAP
002C00
03B940
030020
04F700
08F300
0BF000
0EC010
1FB560
0BE800
ENDCHAR
STARTCHAR idieresis
ENCODING 239
SWIDTH 267 0
DWIDTH 3 0
BBX 5 8 -1 0
BITMAP
097980
010110
04F700
08F300
0BF000
0EC010
1FB560
0BE800
ENDCHAR
STARTCHAR eth
ENCODING 240
SWIDTH 526 0
DWIDTH 6 0
BBX 8 9 -1 0
BITMAP
00006822
0003AFA2
00021F90
007DBF90
06F64F70
0DE07F40
1FB0AF10
2FA1ED06
09E9AE81
ENDCHAR
STARTCHAR ntilde
ENCODING 241
SWIDTH 505 0
DWIDTH 6 0
BBX 8 8 -1 0
BITMAP
005CEB50
00002200
04FCDC00
08F49F20
0BE0BE00
0EC0EB01
2F91FA54
5F50BE80
ENDCHAR
STARTCHAR ograve
ENCODING 242
SWIDTH 433 0
DWIDTH 5 0
BBX 8 9 -1 0
BITMAP
000A7000
0005A000
00002000
007DC300
06F58834
0ED09B40
2FA0A500
3F91D100
0AEB3000
ENDCHAR
STARTCHAR oacute
ENCODING 243
SWIDTH 439 0
DWIDTH 5 0
BBX 8 9 -1 0
BITMAP
00007B00
0000D200
00014000
007DC300
06F67934
0DE08C40
1FB09600
2FA1D100
09EB4000
ENDCHAR
STARTCHAR ocircumflex
ENCODING 244
SWIDTH 433 0
DWIDTH 5 0
BBX 8 9 -1 0
BITMAP
0001C100
002B9600
00300200
007DC300
06F58834
0ED09B40
2FA0A500
3F91D100
0AEB3000
ENDCHAR
STARTCHAR otilde
ENCODING 245
SWIDTH 433 0
DWIDTH 5 0
BBX 8 8 -1 0
BITMAP
02AFC810
00024100
007DC300
06F58834
0ED09B40
2FA0A500
3F91D100
0AEB3000
ENDCHAR
STARTCHAR odieresis
ENCODING 246
SWIDTH 433 0
DWIDTH 5 0
BBX 8 8 -1 0
BITMAP
00986B00
00110100
007DC300
06F58834
0ED09B40
2FA0A500
3F91D100
0AEB3000
ENDCHAR
STARTCHAR divide
ENCODING 247
SWIDTH 415 0
DWIDTH 5 0
BBX 5 6 0 1
BITMAP
00AC00
009A00
5BBB90
000000
05C200
06E200
ENDCHAR
STARTCHAR oslash
ENCODING 248
SWIDTH 428 0
DWIDTH 5 0
BBX 7 7 -1 -1
BITMAP
006DC840
06F66A00
0DE2D900
1FCAA600
2FE4D100
0DEA3000
41000000
ENDCHAR
STARTCHAR ugrave
ENCODING 249
SWIDTH 505 0
DWIDTH 6 0
BBX 8 9 -1 0
BITMAP
00098000
0004B000
00002000
04F75F60
08F38F30
0BF0BE00
0EC0EB01
1FB7FB64
0BE6BE70
ENDCHAR
STARTCHAR uacute
ENCODING 250
SWIDTH 505 0
DWIDTH 6 0
BBX 8 9 -1 0
BITMAP
00004D10
0000B400
00004000
04F75F60
08F38F30
0BF0BE00
0EC0EB01
1FB7FB64
0BE6BE70
ENDCHAR
STARTCHAR ucircumflex
ENCODING 251
SWIDTH 505 0
DWIDTH 6 0
BBX 8 9 -1 0
BITMAP
00007700
00088A00
00110200
04F75F60
08F38F30
0BF0BE00
0EC0EB01
1FB7FB64
0BE6BE70
ENDCHAR
STARTCHAR udieresis
ENCODING 252
SWIDTH 505 0
DWIDTH 6 0
BBX 8 8 -1 0
BITMAP
003D1E20
00010100
04F75F60
08F38F30
0BF0BE00
0EC0EB01
1FB7FB64
0BE6BE70
ENDCHAR
STARTCHAR yacute
ENCODING 253
SWIDTH 505 0
DWIDTH 6 0
BBX 8 12 -1 -3
BITMAP
00004D00
0000B400
00004000
04F75F60
08F38F30
0BF0BE00
0EC0EB11
1FB7F871
0BECFB50
008DF200
065DD000
03ED4000
ENDCHAR
STARTCHAR thorn
ENCODING 254
SWIDTH 473 0
DWIDTH 6 0
BBX 7 12 -1 -3
BITMAP
007C1000
00DD0000
01F90000
04FBDC10
07F46F40
0BF06F40
0EC09F10
2F92EA00
5FCDA100
9F200000
CE000000
B6000000
ENDCHAR
STARTCHAR ydieresis
ENCODING 255
SWIDTH 505 0
DWIDTH 6 0
BBX 8 11 -1 -3
BITMAP
006B3D00
00010100
04F75F60
08F38F30
0BF0BE00
0EC0EB11
1FB7F871
0BECFB50
008DF200
065DD000
03ED4000
ENDCHAR
STARTCHAR Amacron
ENCODING 256
SWIDTH 668 0
DWIDTH 8 0
BBX 10 13 0 -2
BITMAP
000006BBB3
0000000000
000004AE30
000066CF00
0004B0FC00
2ACEA7F900
C88C08F600
43E709F200
06F20CE000
0AC00FB000
0E903F8000
0E70000000
0340000000
ENDCHAR
STARTCHAR amacron
ENCODING 257
SWIDTH 526 0
DWIDTH 6 0
BBX 8 8 -1 0
BITMAP
000BBBA0
00000000
007DAFA0
06F54F70
0DD07F30
1FB0BF01
2FB3FE37
09E98EA0
ENDCHAR
STARTCHAR Abreve
ENCODING 258
SWIDTH 668 0
DWIDTH 8 0
BBX 10 13 0 -2
BITMAP
0000059049
000001AA91
000004AE30
000066CF00
0004B0FC00
2ACEA7F900
C88C08F600
43E709F200
06F20CE000
0AC00FB000
0E903F8000
0E70000000
0340000000
ENDCHAR
STARTCHAR abreve
ENCODING 259
SWIDTH 526 0
DWIDTH 6 0
BBX 8 9 -1 0
BITMAP
002E12E1
0007B920
00000000
007DAFA0
06F54F70
0DD07F30
1FB0BF01
2FB3FE37
09E98EA0
ENDCHAR
STARTCHAR Aogonek
ENCODING 260
SWIDTH 668 0
DWIDTH 8 0
BBX 9 11 0 -2
BITMAP
000004AE30
000066CF00
0004B0FC00
2ACEA7F900
C88C08F600
43F609F200
07F10CE000
0CB00FB000
0E803F8000
0A70570000
00006B4000
ENDCHAR
STARTCHAR aogonek
ENCODING 261
SWIDTH 526 0
DWIDTH 6 0
BBX 8 8 -1 -2
BITMAP
007DAFA0
06F64F70
0DE07F40
1FB0AF10
2FA1ED06
09E99F60
00004800
00004B40
ENDCHAR
STARTCHAR Cacute
ENCODING 262
SWIDTH 497 0
DWIDTH 6 0
BBX 7 12 0 0
BITMAP
00001E20
00008800
00006100
006DCB10
05FA0950
0EE10B30
5FA00000
9F600000
BF400000
BF400000
8F700610
1AEB8200
ENDCHAR
STARTCHAR cacute
ENCODING 263
SWIDTH 384 0
DWIDTH 5 0
BBX 7 9 -1 0
BITMAP
00003E10
0000A500
00005000
007DD300
06F69400
0DE00000
1FB00000
2FA01600
09EA7000
ENDCHAR
STARTCHAR Ccircumflex
ENCODING 264
SWIDTH 497 0
DWIDTH 6 0
BBX 7 12 0 0
BITMAP
00008500
0008A900
00230400
006DCB10
05FA0950
0EE10B30
5FA00000
9F600000
BF400000
BF400000
8F700610
1AEB8200
ENDCHAR
STARTCHAR ccircumflex
ENCODING 265
SWIDTH 384 0
DWIDTH 5 0
BBX 6 9 -1 0
BITMAP
0000A3
001A88
003102
007DD3
06F694
0DE000
1FB000
2FA016
09EA70
ENDCHAR
STARTCHAR Cdotaccent
ENCODING 266
SWIDTH 497 0
DWIDTH 6 0
BBX 7 12 0 0
BITMAP
00005C20
00006E20
00000000
006DCB10
05FA0950
0EE10B30
5FA00000
9F600000
BF400000
BF400000
8F700610
1AEB8200
ENDCHAR
STARTCHAR cdotaccent
ENCODING 267
SWIDTH 384 0
DWIDTH 5 0
BBX 6 9 -1 0
BITMAP
0003E5
0003C4
000000
007DD3
06F694
0DE000
1FB000
2FA016
09EA70
ENDCHAR
STARTCHAR Ccaron
ENCODING 268
SWIDTH 497 0
DWIDTH 6 0
BBX 7 12 0 0
BITMAP
00054770
0001F700
00004000
006DCB10
05FA0950
0EE10B30
5FA00000
9F600000
BF400000
BF400000
8F700610
1AEB8200
ENDCHAR
STARTCHAR ccaron
ENCODING 269
SWIDTH 384 0
DWIDTH 5 0
BBX 7 9 -1 0
BITMAP
00073850
0003E400
00003000
007DD300
06F68400
0DE00000
1FB00100
2FB04600
09ED7000
ENDCHAR
STARTCHAR Dcaron
ENCODING 270
SWIDTH 663 0
DWIDTH 8 0
BBX 8 12 0 0
BITMAP
00045670
0000E900
00004000
029BCC60
3D6745F4
B77F40F9
D3AF10EB
32DD01F9
01FA03F6
05F608F1
08F32E80
0CEAD900
ENDCHAR
STARTCHAR dcaron
ENCODING 271
SWIDTH 525 0
DWIDTH 6 0
BBX 10 9 -1 0
BITMAP
00000023E1
000009F2C1
00000DE120
007DAFA000
06F64F7000
0DE07F4000
1FB0AF1000
2FA1ED0600
09E9AE8100
ENDCHAR
STARTCHAR Dcroat
ENCODING 272
SWIDTH 663 0
DWIDTH 8 0
BBX 8 9 0 0
BITMAP
019BBC60
3D6844F5
B67F40E9
D3AF10EB
25FE81F9
02F903F6
05F608F1
08F32E80
0CEAD900
ENDCHAR
STARTCHAR dcroat
ENCODING 273
SWIDTH 525 0
DWIDTH 6 0
BBX 8 8 -1 0
BITMAP
000007D2
00009EFA
007DAFC0
06F64F80
0DE07F50
1FB0AF10
2FA1EE06
09E9AE81
ENDCHAR
STARTCHAR Emacron
ENCODING 274
SWIDTH 459 0
DWIDTH 6 0
BBX 7 11 0 0
BITMAP
002BBB70
00000000
005DC700
02F61D00
06F24800
03F70000
07E81000
6FA00000
DF400000
CF402500
4DE95000
ENDCHAR
STARTCHAR emacron
ENCODING 275
SWIDTH 384 0
DWIDTH 5 0
BBX 6 8 -1 0
BITMAP
00BBBA
000000
007DD3
06F695
0DE3D1
1FEA30
2FA016
09EA70
ENDCHAR
STARTCHAR Ebreve
ENCODING 276
SWIDTH 459 0
DWIDTH 6 0
BBX 7 12 0 0
BITMAP
003B03A0
0009B920
00000000
005DC700
02F61D00
06F24800
03F70000
07E81000
6FA00000
DF400000
CF402500
4DE95000
ENDCHAR
STARTCHAR ebreve
ENCODING 277
SWIDTH 384 0
DWIDTH 5 0
BBX 7 9 -1 0
BITMAP
01F11D10
006B9300
00000000
007DD300
06F69500
0DE3D100
1FEA3000
2FA01600
09EA7000
ENDCHAR
STARTCHAR Edotaccent
ENCODING 278
SWIDTH 459 0
DWIDTH 6 0
BBX 6 12 0 0
BITMAP
0000B7
0001D8
000000
005DC7
02F61D
06F248
03F700
07E810
6FA000
DF4000
CF4025
4DE950
ENDCHAR
STARTCHAR edotaccent
ENCODING 279
SWIDTH 384 0
DWIDTH 5 0
BBX 6 9 -1 0
BITMAP
0004E4
0003C3
000000
007DD3
06F695
0DE3D1
1FEA30
2FA016
09EA70
ENDCHAR
STARTCHAR Eogonek
ENCODING 280
SWIDTH 459 0
DWIDTH 6 0
BBX 6 11 0 -2
BITMAP
02BDB6
0BE11E
0DC04A
06F700
08E810
8F8000
CF4001
AFB235
2BFE60
002A00
002B60
ENDCHAR
STARTCHAR eogonek
ENCODING 281
SWIDTH 384 0
DWIDTH 5 0
BBX 6 8 -1 -2
BITMAP
007DD3
06F695
0DE3D1
1FEA30
2FA026
09ED70
004700
005B40
ENDCHAR
STARTCHAR Ecaron
ENCODING 282
SWIDTH 459 0
DWIDTH 6 0
BBX 7 12 0 0
BITMAP
00037860
0000C400
00000000
005DC700
02F61D00
06F24800
03F70000
07E81000
6FA00000
DF400000
CF402500
4DE95000
ENDCHAR
STARTCHAR ecaron
ENCODING 283
SWIDTH 384 0
DWIDTH 5 0
BBX 7 9 -1 0
BITMAP
00073840
0004E400
00003000
007DD300
06F69500
0DE2C100
1FD82000
2FA01600
09EA7000
ENDCHAR
STARTCHAR Gcircumflex
ENCODING 284
SWIDTH 578 0
DWIDTH 7 0
BBX 7 14 0 -2
BITMAP
00002C00
0003BA40
00030020
006CCC30
08F706B0
3FB00980
9F500000
BF200A50
AF203F40
6F50BF00
08C9CB00
06A4F700
1E18E100
08CB3000
ENDCHAR
STARTCHAR gcircumflex
ENCODING 285
SWIDTH 507 0
DWIDTH 6 0
BBX 8 12 -1 -3
BITMAP
00003B00
0004BA20
00030120
007DAFA0
06F64F70
0DE07F40
1FB0AF10
2FA1EC25
09EAFC90
004AF700
0299F200
01BE7000
ENDCHAR
STARTCHAR Gbreve
ENCODING 286
SWIDTH 578 0
DWIDTH 7 0
BBX 8 14 0 -2
BITMAP
00077067
0002BA81
00000000
006CCC30
08F706B0
3FB00A90
9F500000
BF200940
AF203F40
6F50BF10
08C9CB00
06A4F700
1E18E100
08CB3000
ENDCHAR
STARTCHAR gbreve
ENCODING 287
SWIDTH 507 0
DWIDTH 6 0
BBX 8 12 -1 -3
BITMAP
002E12E1
0007B920
00000000
007DAFA0
06F64F70
0DE07F40
1FB0AF10
2FA1EC25
09EAFC90
004AF700
0299F200
01BE7000
ENDCHAR
STARTCHAR Gdotaccent
ENCODING 288
SWIDTH 578 0
DWIDTH 7 0
BBX 7 14 0 -2
BITMAP
00009900
0000BB00
00000000
006CCC30
08F706B0
3FB00A90
9F500000
BF200940
AF203F40
6F50BF10
08C9CB00
06A4F700
1E18E100
08CB3000
ENDCHAR
STARTCHAR gdotaccent
ENCODING 289
SWIDTH 507 0
DWIDTH 6 0
BBX 8 12 -1 -3
BITMAP
0000AC00
00008B00
00000000
007DAFA0
06F64F70
0DE07F40
1FB0AF10
2FA1EC25
09EAFC90
004AF700
0299F200
01BE7000
ENDCHAR
STARTCHAR Gcommaaccent
ENCODING 290
SWIDTH 578 0
DWIDTH 7 0
BBX 7 12 0 -3
BITMAP
005CCA00
06F80D40
2ED02E20
8F700000
CF400000
DF202F50
DF107F10
9F41DC00
2CD9F900
00340000
00590000
00310000
ENDCHAR
STARTCHAR gcommaaccent
ENCODING 291
SWIDTH 507 0
DWIDTH 6 0
BBX 8 12 -1 -3
BITMAP
00007300
0000B500
00000000
007DAFA0
06F64F70
0DE07F40
1FB0AF10
2FA1EC25
09EAFC90
004AF700
0299F200
01BE7000
ENDCHAR
STARTCHAR Hcircumflex
ENCODING 292
SWIDTH 665 0
DWIDTH 8 0
BBX 9 12 0 0
BITMAP
000001C000
00001BB400
0000510300
018DB08F30
1DAF80AF00
9A5F60DC00
C58F31F900
63CFDEF600
00FB07F200
04F80BE000
07F40EB000
0AF13F8000
ENDCHAR
STARTCHAR hcircumflex
ENCODING 293
SWIDTH 505 0
DWIDTH 6 0
BBX 8 11 -1 0
BITMAP
00049000
005BB000
01513100
00CD0000
01FA0000
04FCDB00
07F49F20
0AE0BF00
0EC0EC00
2F91F925
5F50BD70
ENDCHAR
STARTCHAR Hbar
ENCODING 294
SWIDTH 665 0
DWIDTH 8 0
BBX 9 9 0 0
BITMAP
018DB08F30
1C6F80BF00
98BFB9FE70
C4AF21F900
53DFBCF600
01FB07F200
04F80BE000
07F40EB000
0AF13F8000
ENDCHAR
STARTCHAR hbar
ENCODING 295
SWIDTH 505 0
DWIDTH 6 0
BBX 8 8 -1 0
BITMAP
009C0000
09FEA000
03FCDB00
06F49F20
0AE0BF00
0DC0EC00
2F91F925
5F50BD70
ENDCHAR
STARTCHAR Itilde
ENCODING 296
SWIDTH 375 0
DWIDTH 5 0
BBX 7 11 0 0
BITMAP
01AEC810
01147300
029EA000
3C6F7000
C57F4000
D3AF1000
11EC0000
02F90000
05F60000
08F30000
0CE00000
ENDCHAR
STARTCHAR itilde
ENCODING 297
SWIDTH 267 0
DWIDTH 3 0
BBX 5 8 -1 0
BITMAP
05EC40
001200
04F700
08F300
0BF000
0EC010
1FB560
0BE800
ENDCHAR
STARTCHAR Imacron
ENCODING 298
SWIDTH 375 0
DWIDTH 5 0
BBX 6 11 0 0
BITMAP
01BBB9
000000
029EA0
3C6F70
C57F40
D3AF10
11EC00
02F900
05F600
08F300
0CE000
ENDCHAR
STARTCHAR imacron
ENCODING 299
SWIDTH 267 0
DWIDTH 3 0
BBX 5 8 -1 0
BITMAP
07BB60
000000
04F700
08F300
0BF000
0EC010
1FB560
0BE800
ENDCHAR
STARTCHAR Ibreve
ENCODING 300
SWIDTH 375 0
DWIDTH 5 0
BBX 7 11 0 0
BITMAP
00A40A30
004BA500
029EA000
3C6F7000
C57F4000
D3AF1000
11EC0000
02F90000
05F60000
08F30000
0CE00000
ENDCHAR
STARTCHAR ibreve
ENCODING 301
SWIDTH 267 0
DWIDTH 3 0
BBX 5 9 -1 0
BITMAP
0852B0
02B920
000000
04F700
08F300
0BF000
0EC010
1FB560
0BE800
ENDCHAR
STARTCHAR Iogonek
ENCODING 302
SWIDTH 375 0
DWIDTH 5 0
BBX 5 15 0 -3
BITMAP
00C600
007800
001100
029EA0
3C6F70
C67F40
D3AF10
11EC00
02F900
05F600
08F300
0CE000
0A0000
4C0200
1BA100
ENDCHAR
STARTCHAR iogonek
ENCODING 303
SWIDTH 267 0
DWIDTH 3 0
BBX 5 11 -1 -3
BITMAP
00BB00
00AA00
04F700
08F300
0BF000
0EC010
1FB560
0CE800
290000
791100
3C8000
ENDCHAR
STARTCHAR Idotaccent
ENCODING 304
SWIDTH 375 0
DWIDTH 5 0
BBX 6 12 0 0
BITMAP
0006C1
0007E2
000000
029EA0
3C6F70
C57F40
D3AF10
11EC00
02F900
05F600
08F300
0CE000
ENDCHAR
STARTCHAR dotlessi
ENCODING 305
SWIDTH 267 0
DWIDTH 3 0
BBX 5 6 -1 0
BITMAP
04F700
08F300
0BF000
0EC010
1FB560
0BE800
ENDCHAR
STARTCHAR IJ
ENCODING 306
SWIDTH 663 0
DWIDTH 8 0
BBX 8 11 0 -2
BITMAP
029EA08C
3C6F70EB
C67F43F8
D3AF17F4
11EC0AF1
02F90ED0
05F62F90
08F26F60
0CF69F20
0982EB00
04BC9100
ENDCHAR
STARTCHAR ij
ENCODING 307
SWIDTH 507 0
DWIDTH 6 0
BBX 8 11 -1 -3
BITMAP
00BB0AD0
009A08B0
04F71FA0
08F34F70
0BF08F30
0EC0BF01
1FB1EC45
0BE5FD70
005BF600
028AF200
01CE7000
ENDCHAR
STARTCHAR Jcircumflex
ENCODING 308
SWIDTH 536 0
DWIDTH 6 0
BBX 8 14 0 -2
BITMAP
000001B2
00001BA6
00004104
00018DC0
001C5F90
00985F60
00A69F20
0012CE00
0001FB00
0004F700
0008F400
4B8CE100
B63F8000
5CB80000
ENDCHAR
STARTCHAR jcircumflex
ENCODING 309
SWIDTH 240 0
DWIDTH 3 0
BBX 7 12 -3 -3
BITMAP
00003B00
0004AA20
00030010
0004F700
0007F400
000BF100
000ED000
002F9520
005FB600
07DF3000
57CE0000
3CD40000
ENDCHAR
STARTCHAR Kcommaaccent
ENCODING 310
SWIDTH 601 0
DWIDTH 7 0
BBX 8 12 0 -3
BITMAP
019DA0A9
2C7F75B0
A77F5C10
D3AFB300
52DECA20
02FA2F80
05F64F50
08F38F10
0CE08F10
00061000
000C3000
00040000
ENDCHAR
STARTCHAR kcommaaccent
ENCODING 311
SWIDTH 518 0
DWIDTH 6 0
BBX 8 12 -1 -3
BITMAP
00240000
00DD0000
01FA0000
04F74B20
07FAC200
0BFBED00
0EC0CE01
2F90EC46
5F60AEA0
00150000
002C0000
00230000
ENDCHAR
STARTCHAR kgreenlandic
ENCODING 312
SWIDTH 518 0
DWIDTH 6 0
BBX 8 6 -1 0
BITMAP
04F74B20
08FAC200
0BFBED00
0EC0CE01
2F90EC46
5F60AEA0
ENDCHAR
STARTCHAR Lacute
ENCODING 313
SWIDTH 379 0
DWIDTH 5 0
BBX 8 15 0 -3
BITMAP
00003600
0000C400
00026000
029EA000
3C6F7000
C57F3000
C3BF0000
11EC0000
02F90000
06F50000
09F20000
0CF40000
015DB400
0001BFEC
000008E6
ENDCHAR
STARTCHAR lacute
ENCODING 314
SWIDTH 267 0
DWIDTH 3 0
BBX 6 11 -1 0
BITMAP
0004D1
000C30
002400
00DD00
01FA00
04F700
08F400
0BF100
0EC000
1FA360
0BE900
ENDCHAR
STARTCHAR Lcommaaccent
ENCODING 315
SWIDTH 379 0
DWIDTH 5 0
BBX 8 12 0 -3
BITMAP
029EA000
3C6F7000
C57F3000
C3BF0000
11EC0000
02F90000
06F50000
09F20000
0CF40000
055DB400
0D31BFEC
070008E6
ENDCHAR
STARTCHAR lcommaaccent
ENCODING 316
SWIDTH 267 0
DWIDTH 3 0
BBX 5 12 -1 -3
BITMAP
000100
00CE00
01FB00
04F700
07F400
0BF100
0ED000
1FA360
0BE900
061000
0C3000
040000
ENDCHAR
STARTCHAR Lcaron
ENCODING 317
SWIDTH 379 0
DWIDTH 5 0
BBX 8 15 0 -3
BITMAP
00030240
0003D910
00005000
029EA000
3C6F7000
C57F3000
C3BF0000
11EC0000
02F90000
06F50000
09F20000
0CF40000
015DB400
0001BFEC
000008E6
ENDCHAR
STARTCHAR lcaron
ENCODING 318
SWIDTH 267 0
DWIDTH 3 0
BBX 6 9 -1 0
BITMAP
00027A
00CE49
01FA30
04F700
07F400
0BF100
0EC010
1FB560
0BE800
ENDCHAR
STARTCHAR Ldot
ENCODING 319
SWIDTH 605 0
DWIDTH 7 0
BBX 8 12 0 -3
BITMAP
019DA000
2C6F7000
B67F3000
D3BF0000
32EC0000
02F91C60
06F51E80
09F20000
0CF30000
015DB300
0001BFEC
000008E6
ENDCHAR
STARTCHAR ldot
ENCODING 320
SWIDTH 353 0
DWIDTH 4 0
BBX 6 9 -1 0
BITMAP
004700
00DD00
01FA00
05F700
08F7E1
0BF3B0
0ED000
1FA000
0BD300
ENDCHAR
STARTCHAR Lslash
ENCODING 321
SWIDTH 392 0
DWIDTH 5 0
BBX 8 12 0 -3
BITMAP
029EA000
3C6F7000
C57F6400
C3BF9100
13EC0000
08F90000
05F50000
09F20000
0CF40000
015DB400
0001BFEC
000008E6
ENDCHAR
STARTCHAR lslash
ENCODING 322
SWIDTH 286 0
DWIDTH 3 0
BBX 5 9 -1 0
BITMAP
000100
00CE00
01FB00
04FC80
07F600
4EF100
0ED000
1FA360
0BE900
ENDCHAR
STARTCHAR Nacute
ENCODING 323
SWIDTH 702 0
DWIDTH 8 0
BBX 9 12 0 0
BITMAP
0000003E10
0000009600
0000007000
04BFA00A80
5C5FE00D40
C67FF31F10
D4ACF64D00
23D5FA7900
02F1CDA600
05C09FE300
08905FE000
0C502FB000
ENDCHAR
STARTCHAR nacute
ENCODING 324
SWIDTH 505 0
DWIDTH 6 0
BBX 8 9 -1 0
BITMAP
00001E30
00007800
00003100
04FCDC00
08F49F20
0BE0BE00
0EC0EB01
2F91FA54
5F50BE80
ENDCHAR
STARTCHAR Ncommaaccent
ENCODING 325
SWIDTH 668 0
DWIDTH 8 0
BBX 9 12 0 -3
BITMAP
04BFA00A80
5C5FE00D40
C67FF31F10
D4ACF64D00
23D5FA7900
02F1CDA600
05C09FE300
08905FE000
0C502FB000
0006100000
000C200000
0004000000
ENDCHAR
STARTCHAR ncommaaccent
ENCODING 326
SWIDTH 505 0
DWIDTH 6 0
BBX 8 9 -1 -3
BITMAP
04FCDB00
08F49F20
0BE0BF00
0EC0EC00
2F91F925
5F50BD70
00430000
00780000
00410000
ENDCHAR
STARTCHAR Ncaron
ENCODING 327
SWIDTH 668 0
DWIDTH 8 0
BBX 9 12 0 0
BITMAP
0000072850
000004F500
0000004000
04BFA00A80
5C5FE00D40
C67FF31F10
D4ACF64D00
23D5FA7900
02F1CDA600
05C09FE300
08905FE000
0C502FB000
ENDCHAR
STARTCHAR ncaron
ENCODING 328
SWIDTH 505 0
DWIDTH 6 0
BBX 8 9 -1 0
BITMAP
00083930
0006D200
00011000
04FCDB00
08F49F20
0BE0BF00
0EC0EC00
2F91F925
5F50BD70
ENDCHAR
STARTCHAR napostrophe
ENCODING 329
SWIDTH 505 0
DWIDTH 6 0
BBX 8 9 -1 0
BITMAP
06B00000
03900000
03000000
04FCDB00
08F49F20
0BE0BF00
0EC0EC00
2F91F925
5F50BD70
ENDCHAR
STARTCHAR Eng
ENCODING 330
SWIDTH 723 0
DWIDTH 9 0
BBX 10 11 0 -2
BITMAP
018DF401F2
0C8AF804D0
4E0DFB07A0
5C2FCE0A60
055C7F3E30
00893F8E00
00C50EEB00
01F20AF700
04D006F200
001D08A000
0008A81000
ENDCHAR
STARTCHAR eng
ENCODING 331
SWIDTH 505 0
DWIDTH 6 0
BBX 6 9 -1 -3
BITMAP
05FBEB
08F7AF
0BF0AE
0EC0DB
2F92F8
5F65F5
006CF2
052DC0
03CD30
ENDCHAR
STARTCHAR Omacron
ENCODING 332
SWIDTH 665 0
DWIDTH 8 0
BBX 8 11 0 0
BITMAP
0007BBB2
00000000
006BBCA1
1C7791E8
996F30BC
B6EC00CC
27F700EB
09F304F7
0AF10AE1
09F35F50
02CEC500
ENDCHAR
STARTCHAR omacron
ENCODING 333
SWIDTH 433 0
DWIDTH 5 0
BBX 8 8 -1 0
BITMAP
009BBB10
00000000
007DC300
06F58834
0ED09B40
2FA0A500
3F91D100
0AEB3000
ENDCHAR
STARTCHAR Obreve
ENCODING 334
SWIDTH 665 0
DWIDTH 8 0
BBX 8 12 0 0
BITMAP
0003B03A
00009B92
00000000
006BBCA1
1C7791E8
996F30BC
B6EC00CC
27F700EB
09F304F7
0AF10AE1
09F35F50
02CEC500
ENDCHAR
STARTCHAR obreve
ENCODING 335
SWIDTH 433 0
DWIDTH 5 0
BBX 8 9 -1 0
BITMAP
00A70A70
002BA600
00000000
007DC300
06F58834
0ED09B40
2FA0A500
3F91D100
0AEB3000
ENDCHAR
STARTCHAR Ohungarumlaut
ENCODING 336
SWIDTH 665 0
DWIDTH 8 0
BBX 9 12 0 0
BITMAP
00000B6C50
0000394900
0000101000
006BBCA100
1C7791E800
996F30BC00
B6EC00CC00
27F700EB00
09F304F700
0AF10AE100
09F35F5000
02CEC50000
ENDCHAR
STARTCHAR ohungarumlaut
ENCODING 337
SWIDTH 433 0
DWIDTH 5 0
BBX 8 9 -1 0
BITMAP
0007A890
001B2B00
00111100
007DC300
06F58834
0ED09B40
2FA0A500
3F91D100
0AEB3000
ENDCHAR
STARTCHAR OE
ENCODING 338
SWIDTH 846 0
DWIDTH 10 0
BBX 11 9 0 0
BITMAP
006BEDDCBB70
1C8D81EA0000
99AF10BC0000
B7FA00CD0000
28F600EFD400
09F303F70000
0AF109E10000
08F23F944100
02CDEFFFF100
ENDCHAR
STARTCHAR oe
ENCODING 339
SWIDTH 663 0
DWIDTH 8 0
BBX 9 6 0 0
BITMAP
08DC4CD800
7F38FD1B00
DC0BF74500
F908F62010
F80DF40730
9EB6CEA300
ENDCHAR
STARTCHAR Racute
ENCODING 340
SWIDTH 601 0
DWIDTH 7 0
BBX 7 12 0 0
BITMAP
00000B60
00005A00
00000000
018CBC30
2D6846D0
A77F46E0
D3AF2C60
52DFEE30
01FA2F80
05F74F50
08F38F10
0CE08F10
ENDCHAR
STARTCHAR racute
ENCODING 341
SWIDTH 376 0
DWIDTH 5 0
BBX 6 9 -1 0
BITMAP
0000A7
0003C0
000220
04FBD7
08F686
0BF000
0EC000
2F9000
5F6000
ENDCHAR
STARTCHAR Rcommaaccent
ENCODING 342
SWIDTH 601 0
DWIDTH 7 0
BBX 7 12 0 -3
BITMAP
018CBC30
2D6846D0
A77F46E0
D3AF2C60
52DFEE30
01FA2F80
05F74F50
08F38F10
0CE08F10
00160000
001D0000
00140000
ENDCHAR
STARTCHAR rcommaaccent
ENCODING 343
SWIDTH 376 0
DWIDTH 5 0
BBX 6 9 -1 -3
BITMAP
04FBD7
08F686
0BF000
0EC000
2F9000
5F6000
025000
04B000
032000
ENDCHAR
STARTCHAR Rcaron
ENCODING 344
SWIDTH 601 0
DWIDTH 7 0
BBX 8 12 0 0
BITMAP
00008582
00005A10
00000000
018CBC30
2D6846D0
A77F46E0
D3AF2C60
52DFEE30
01FA2F80
05F74F50
08F38F10
0CE08F10
ENDCHAR
STARTCHAR rcaron
ENCODING 345
SWIDTH 376 0
DWIDTH 5 0
BBX 6 9 -1 0
BITMAP
005476
001E50
000200
04FBD7
08F686
0BF000
0EC000
2F9000
5F6000
ENDCHAR
STARTCHAR Sacute
ENCODING 346
SWIDTH 570 0
DWIDTH 7 0
BBX 7 12 0 0
BITMAP
00000D40
00006800
00000000
004CCC20
01FA0990
02FB0A50
00AF7000
001CF500
19A2EE00
7E20AF20
7D01DC00
1ACDA200
ENDCHAR
STARTCHAR sacute
ENCODING 347
SWIDTH 382 0
DWIDTH 5 0
BBX 6 9 -1 0
BITMAP
000099
0001D1
000450
007F80
00BF90
056FA0
1C1FB0
5A1FD6
1ADB30
ENDCHAR
STARTCHAR Scircumflex
ENCODING 348
SWIDTH 570 0
DWIDTH 7 0
BBX 7 12 0 0
BITMAP
00003C00
00058650
00000000
004CCC20
01FA0990
02FB0A50
00AF7000
001CF500
19A2EE00
7E20AF20
7D01DC00
1ACDA200
ENDCHAR
STARTCHAR scircumflex
ENCODING 349
SWIDTH 382 0
DWIDTH 5 0
BBX 6 9 -1 0
BITMAP
0004B0
005AA1
003231
007F80
00BF90
056FA0
1C1FB0
5A1FD6
1ADB30
ENDCHAR
STARTCHAR Scedilla
ENCODING 350
SWIDTH 570 0
DWIDTH 7 0
BBX 7 12 0 -3
BITMAP
004CCC20
01FA0990
02FB0A50
00BF7000
001DF500
0993FE00
7E20AF20
7D00DD00
1BCDB200
00781000
002B6000
01BC2000
ENDCHAR
STARTCHAR scedilla
ENCODING 351
SWIDTH 382 0
DWIDTH 5 0
BBX 6 10 -1 -3
BITMAP
000010
006F80
00BF90
047FA0
1B1FB0
5E1FC4
155C30
035000
07E700
09C400
ENDCHAR
STARTCHAR Scaron
ENCODING 352
SWIDTH 570 0
DWIDTH 7 0
BBX 8 12 0 0
BITMAP
00008593
00004B10
00000000
004CCC20
01FA0990
02FB0A50
00AF7000
001CF500
19A2EE00
7E20AF20
7D01DC00
1ACDA200
ENDCHAR
STARTCHAR scaron
ENCODING 353
SWIDTH 369 0
DWIDTH 4 0
BBX 6 9 -1 0
BITMAP
003767
000D70
000520
007F80
00AF90
055FA0
1C1FB1
593FD5
1BEB20
ENDCHAR
STARTCHAR uni0162
ENCODING 354
SWIDTH 481 0
DWIDTH 6 0
BBX 9 12 0 -3
BITMAP
05ACEA3150
6B18FAAA20
C50CF10000
D30EC00000
213F900000
006F600000
009F200000
00CE000000
00FB000000
0083000000
005E300000
03BB100000
ENDCHAR
STARTCHAR uni0163
ENCODING 355
SWIDTH 267 0
DWIDTH 3 0
BBX 5 11 -1 -3
BITMAP
009A00
01FA00
08FD20
07F400
0AF100
0EC010
1FB460
0BE800
084000
05E300
3BB100
ENDCHAR
STARTCHAR Tcaron
ENCODING 356
SWIDTH 481 0
DWIDTH 6 0
BBX 9 12 0 0
BITMAP
0001849100
0000BB1000
0000410000
05ACEA3150
6B18FAAA20
C50CF10000
D30EC00000
213F900000
006F600000
009F200000
00CE000000
00FB000000
ENDCHAR
STARTCHAR tcaron
ENCODING 357
SWIDTH 267 0
DWIDTH 3 0
BBX 6 9 -1 0
BITMAP
00006C
00892A
01FA21
08FD20
07F400
0AF100
0EC010
1FB460
0BE800
ENDCHAR
STARTCHAR Tbar
ENCODING 358
SWIDTH 481 0
DWIDTH 6 0
BBX 9 9 0 0
BITMAP
05ACEA3150
6B08F7AA20
C40BF00000
D30EC00000
212F900000
0BDFDB4000
008F300000
00CE000000
00FB000000
ENDCHAR
STARTCHAR tbar
ENCODING 359
SWIDTH 267 0
DWIDTH 3 0
BBX 5 8 -1 0
BITMAP
009A00
01FA00
08FD20
2DFC10
0BF100
0EC010
1FB560
0BE800
ENDCHAR
STARTCHAR Utilde
ENCODING 360
SWIDTH 716 0
DWIDTH 9 0
BBX 9 11 0 0
BITMAP
00005EEA50
0000126500
029DD00BE0
4C2FA00EB0
E44F602F80
E18F206F50
21CD009F10
00F900DD00
02F703F800
02FA3BE100
008EEB3000
ENDCHAR
STARTCHAR utilde
ENCODING 361
SWIDTH 505 0
DWIDTH 6 0
BBX 8 8 -1 0
BITMAP
005CEB50
00002200
04F75F60
08F38F30
0BF0BE00
0EC0EB01
1FB7FB64
0BE6BE70
ENDCHAR
STARTCHAR Umacron
ENCODING 362
SWIDTH 716 0
DWIDTH 9 0
BBX 9 11 0 0
BITMAP
00005BBB40
0000000000
029DD00BE0
4C2FA00EB0
E44F602F80
E18F206F50
21CD009F10
00F900DD00
02F703F800
02FA3BE100
008EEB3000
ENDCHAR
STARTCHAR umacron
ENCODING 363
SWIDTH 505 0
DWIDTH 6 0
BBX 8 8 -1 0
BITMAP
006BBB40
00000000
04F75F60
08F38F30
0BF0BE00
0EC0EB01
1FB7FB64
0BE6BE70
ENDCHAR
STARTCHAR Ubreve
ENCODING 364
SWIDTH 716 0
DWIDTH 9 0
BBX 9 12 0 0
BITMAP
0000590580
00001AA810
0000000000
029DD00BE0
4C2FA00EB0
E44F602F80
E18F206F50
21CD009F10
00F900DD00
02F703F800
02FA3BE100
008EEB3000
ENDCHAR
STARTCHAR ubreve
ENCODING 365
SWIDTH 505 0
DWIDTH 6 0
BBX 8 9 -1 0
BITMAP
00890890
001AA700
00000000
04F75F60
08F38F30
0BF0BE00
0EC0EB01
1FB7FB64
0BE6BE70
ENDCHAR
STARTCHAR Uring
ENCODING 366
SWIDTH 716 0
DWIDTH 9 0
BBX 9 12 0 0
BITMAP
000003B100
0000083400
000004B100
029DD00BE0
4C2FA00EB0
E44F602F80
E18F206F50
21CD009F10
00F900DD00
02F703F800
02FA3BE100
008EEB3000
ENDCHAR
STARTCHAR uring
ENCODING 367
SWIDTH 505 0
DWIDTH 6 0
BBX 8 8 -1 0
BITMAP
0005B200
0005B200
04F75F60
08F38F30
0BF0BE00
0EC0EB01
1FB7FB64
0BE6BE70
ENDCHAR
STARTCHAR Uhungarumlaut
ENCODING 368
SWIDTH 716 0
DWIDTH 9 0
BBX 10 12 0 0
BITMAP
000002D4D1
0000094A30
0000020200
029DD00BE0
4C2FA00EB0
E44F602F80
E18F206F50
21CD009F10
00F900DD00
02F703F800
02FA3BE100
008EEB3000
ENDCHAR
STARTCHAR uhungarumlaut
ENCODING 369
SWIDTH 505 0
DWIDTH 6 0
BBX 8 9 -1 0
BITMAP
0006B7A0
000B2B10
00011100
04F75F60
08F38F30
0BF0BE00
0EC0EB01
1FB7FB64
0BE6BE70
ENDCHAR
STARTCHAR Uogonek
ENCODING 370
SWIDTH 716 0
DWIDTH 9 0
BBX 9 15 0 -3
BITMAP
00000E3000
00000A5000
0000011000
028DE00BE0
4C2FA00EB0
D44F602F80
F18F205F50
41BE008F10
00FA00CD00
02F701F800
02F707E100
00AECC3000
000A200000
000F120000
0009B30000
ENDCHAR
STARTCHAR uogonek
ENCODING 371
SWIDTH 505 0
DWIDTH 6 0
BBX 8 9 -1 -3
BITMAP
04F75F60
08F38F30
0BF0BE00
0EC0EB01
1FB7FB64
0BE6BF90
0000A400
0000F120
00009C30
ENDCHAR
STARTCHAR Wcircumflex
ENCODING 372
SWIDTH 962 0
DWIDTH 12 0
BBX 13 12 0 0
BITMAP
00000000850000
00000008A90000
00000033040000
029EB00CE00930
3C2FC02FE00C00
C60FC07FE05700
D30FC0BDF0A100
110EC29CF1A000
000ED73CF55000
000DDA0BF90000
000DF70BF90000
000DF10BF30000
ENDCHAR
STARTCHAR wcircumflex
ENCODING 373
SWIDTH 661 0
DWIDTH 8 0
BBX 9 9 -1 0
BITMAP
0000068000
00007AA000
0001303000
04F75F6780
08F38F31B0
0BF0BE0480
0EC0EB0A40
1FB7FA6B00
0BE6BEA100
ENDCHAR
STARTCHAR Ycircumflex
ENCODING 374
SWIDTH 620 0
DWIDTH 7 0
BBX 9 12 0 0
BITMAP
000001C100
00001BA500
0000410400
028DD00920
3C2DF21A00
C609F67400
D305F9A000
1101FF6000
0000EF1000
0002FC0000
0005F90000
0008F50000
ENDCHAR
STARTCHAR ycircumflex
ENCODING 375
SWIDTH 505 0
DWIDTH 6 0
BBX 8 12 -1 -3
BITMAP
00008600
00098A00
00210200
04F75F60
08F38F30
0BF0BE00
0EC0EB11
1FB7F871
0BECFB50
008DF200
065DD000
03ED4000
ENDCHAR
STARTCHAR Ydieresis
ENCODING 376
SWIDTH 620 0
DWIDTH 7 0
BBX 9 11 0 0
BITMAP
00004C2D10
0000010100
028DD00920
3C2DF21A00
C609F67400
D305F9A000
1101FF6000
0000EF1000
0002FC0000
0005F90000
0008F50000
ENDCHAR
STARTCHAR Zacute
ENCODING 377
SWIDTH 542 0
DWIDTH 7 0
BBX 7 12 0 0
BITMAP
00000C60
00003C00
00004300
08CBEF60
0D41ED00
0009F600
002FD000
009F5000
02FD0000
09F50000
2FD03D00
9FDBC800
ENDCHAR
STARTCHAR zacute
ENCODING 378
SWIDTH 428 0
DWIDTH 5 0
BBX 5 9 0 0
BITMAP
0005C0
000C30
001300
1BBFD0
396F40
01EB00
08F300
2F9560
BFCC40
ENDCHAR
STARTCHAR Zdotaccent
ENCODING 379
SWIDTH 530 0
DWIDTH 6 0
BBX 7 11 0 0
BITMAP
0004D000
00001000
08CBEF60
0D41ED00
0009F600
002FD000
009F5000
02FD0000
09F50000
2FD03D00
9FDBC800
ENDCHAR
STARTCHAR zdotaccent
ENCODING 380
SWIDTH 428 0
DWIDTH 5 0
BBX 5 8 0 0
BITMAP
003D00
000100
1BBFD0
396F40
01EB00
08F300
2F9560
BFCC40
ENDCHAR
STARTCHAR Zcaron
ENCODING 381
SWIDTH 542 0
DWIDTH 7 0
BBX 7 12 0 0
BITMAP
00036580
0000E900
00004000
08CBEF60
0D41ED00
0009F600
002FD000
009F5000
02FD0000
09F50000
2FD03D00
9FDBC800
ENDCHAR
STARTCHAR zcaron
ENCODING 382
SWIDTH 428 0
DWIDTH 5 0
BBX 6 9 0 0
BITMAP
007384
004E30
000200
1BBFD0
396F40
01EB00
08F300
2F9560
BFCC40
ENDCHAR
STARTCHAR longs
ENCODING 383
SWIDTH 267 0
DWIDTH 3 0
BBX 8 12 -3 -3
BITMAP
00003DC5
0000CD05
0001F900
000BF600
0007F300
000AE000
000DC000
002F8000
005F5000
18CF2000
74BD0000
3CD40000
ENDCHAR
STARTCHAR uni018F
ENCODING 399
SWIDTH 544 0
DWIDTH 7 0
BBX 7 9 0 0
BITMAP
04CED500
0B54DF20
01008F60
00008F60
006BEF50
1CC1DE10
8E13F800
BC0BC100
4DC91000
ENDCHAR
STARTCHAR florin
ENCODING 402
SWIDTH 267 0
DWIDTH 3 0
BBX 9 12 -3 -3
BITMAP
000006DD10
00003F5D20
0000AE0100
000AFEB100
0004F70000
0008F30000
000DD00000
002F900000
006F400000
00BE000000
C4F7000000
BC80000000
ENDCHAR
STARTCHAR Ohorn
ENCODING 416
SWIDTH 665 0
DWIDTH 8 0
BBX 9 11 0 0
BITMAP
0000000340
0000000790
006BBC8B30
1C7791E800
996F30BC00
B6EC00CD00
27F700EB00
09F304F700
0AF10AE100
09F35F6000
02CEC50000
ENDCHAR
STARTCHAR ohorn
ENCODING 417
SWIDTH 439 0
DWIDTH 5 0
BBX 7 8 -1 0
BITMAP
00000150
000003C0
006DCB40
06F65900
0DE06900
2FB09700
1FA1D100
08EA3000
ENDCHAR
STARTCHAR Uhorn
ENCODING 431
SWIDTH 716 0
DWIDTH 9 0
BBX 11 11 0 0
BITMAP
000000000960
000000001D30
029DD00BF600
4C2FA00EC000
E44F602F8000
E18F206F5000
21CD009F2000
00F900DD0000
02F703F80000
02FA3BE10000
008EEB300000
ENDCHAR
STARTCHAR uhorn
ENCODING 432
SWIDTH 505 0
DWIDTH 6 0
BBX 8 8 -1 0
BITMAP
00000067
000000A4
04F75F70
08F38F30
0BF0BE00
0EC0EB01
1FB7FB64
0BE6BE70
ENDCHAR
STARTCHAR uni01B7
ENCODING 439
SWIDTH 555 0
DWIDTH 7 0
BBX 7 9 0 0
BITMAP
06DBDF80
0A61DB00
000BE200
006F8000
003AF800
0000FF00
4700FE00
B805F800
4CBD7000
ENDCHAR
STARTCHAR uni01CD
ENCODING 461
SWIDTH 668 0
DWIDTH 8 0
BBX 10 14 0 -2
BITMAP
0000002748
0000000CB0
0000000400
000004AE30
000066CF00
0004B0FC00
2ACEA7F900
C88C08F600
43E709F200
06F20CE000
0AC00FB000
0E903F8000
0E70000000
0340000000
ENDCHAR
STARTCHAR uni01CE
ENCODING 462
SWIDTH 526 0
DWIDTH 6 0
BBX 8 9 -1 0
BITMAP
00018591
0000BA00
00002000
007DAFA0
06F54F70
0DD07F30
1FB0BF01
2FB3FE37
09E98EA0
ENDCHAR
STARTCHAR uni01CF
ENCODING 463
SWIDTH 375 0
DWIDTH 5 0
BBX 7 12 0 0
BITMAP
00082940
0006E300
00013000
029EA000
3C6F7000
C57F4000
D3AF1000
11EC0000
02F90000
05F60000
08F30000
0CE00000
ENDCHAR
STARTCHAR uni01D0
ENCODING 464
SWIDTH 267 0
DWIDTH 3 0
BBX 6 9 -1 0
BITMAP
009491
009B10
002000
04F700
08F300
0BF000
0EC010
1FB560
0BE800
ENDCHAR
STARTCHAR uni01D1
ENCODING 465
SWIDTH 665 0
DWIDTH 8 0
BBX 9 12 0 0
BITMAP
0000083910
00000AC100
0000031000
006BBCA100
1C7791E800
996F30BC00
B6EC00CC00
27F700EB00
09F304F700
0AF10AE100
09F35F5000
02CEC50000
ENDCHAR
STARTCHAR uni01D2
ENCODING 466
SWIDTH 433 0
DWIDTH 5 0
BBX 8 9 -1 0
BITMAP
00083930
0006D200
00012000
007DC300
06F59944
0ED09B30
2F90B500
3FA4D100
0AEC3000
ENDCHAR
STARTCHAR uni01D3
ENCODING 467
SWIDTH 716 0
DWIDTH 9 0
BBX 9 12 0 0
BITMAP
0000054670
000001F800
0000004000
029DD00BE0
4C2FA00EB0
E44F602F80
E18F206F50
21CD009F10
00F900DD00
02F703F800
02FA3BE100
008EEB3000
ENDCHAR
STARTCHAR uni01D4
ENCODING 468
SWIDTH 505 0
DWIDTH 6 0
BBX 8 9 -1 0
BITMAP
00064850
0002E400
00002000
04F75F60
08F38F30
0BF0BE00
0EC0EB01
1FB7FB64
0BE6BE70
ENDCHAR
STARTCHAR uni01D5
ENCODING 469
SWIDTH 716 0
DWIDTH 9 0
BBX 9 12 0 0
BITMAP
00002BBB70
00005C0C50
0000010100
029DD00BE0
4C2FA00EB0
E44F602F80
E18F206F50
21CD009F10
00F900DD00
02F703F800
02FA3BE100
008EEB3000
ENDCHAR
STARTCHAR uni01D6
ENCODING 470
SWIDTH 505 0
DWIDTH 6 0
BBX 8 10 -1 0
BITMAP
001BBB80
00000000
003D1E20
00010100
04F75F60
08F38F30
0BF0BE00
0EC0EB01
1FB7FB64
0BE6BE70
ENDCHAR
STARTCHAR uni01D7
ENCODING 471
SWIDTH 716 0
DWIDTH 9 0
BBX 9 12 0 0
BITMAP
0000009900
0000D5D4D0
0000122010
029DD00BE0
4C2FA00EB0
E44F602F80
E18F206F50
21CD009F10
00F900DD00
02F703F800
02FA3BE100
008EEB3000
ENDCHAR
STARTCHAR uni01D8
ENCODING 472
SWIDTH 505 0
DWIDTH 6 0
BBX 8 11 -1 0
BITMAP
00002E20
00009600
00000000
003D1E20
00010100
04F75F60
08F38F30
0BF0BE00
0EC0EB01
1FB7FB64
0BE6BE70
ENDCHAR
STARTCHAR uni01D9
ENCODING 473
SWIDTH 716 0
DWIDTH 9 0
BBX 9 12 0 0
BITMAP
0000051620
0000E8D6E0
0000201020
029DD00BE0
4C2FA00EB0
E44F602F80
E18F206F50
21CD009F10
00F900DD00
02F703F800
02FA3BE100
008EEB3000
ENDCHAR
STARTCHAR uni01DA
ENCODING 474
SWIDTH 505 0
DWIDTH 6 0
BBX 8 11 -1 0
BITMAP
00036580
0000DA00
00004000
003D1E20
00010100
04F75F60
08F38F30
0BF0BE00
0EC0EB01
1FB7FB64
0BE6BE70
ENDCHAR
STARTCHAR uni01DB
ENCODING 475
SWIDTH 716 0
DWIDTH 9 0
BBX 9 12 0 0
BITMAP
000003E000
0000D4D5D0
0000102110
029DD00BE0
4C2FA00EB0
E44F602F80
E18F206F50
21CD009F10
00F900DD00
02F703F800
02FA3BE100
008EEB3000
ENDCHAR
STARTCHAR uni01DC
ENCODING 476
SWIDTH 505 0
DWIDTH 6 0
BBX 8 11 -1 0
BITMAP
00089000
0003C000
00002000
003D1E20
00010100
04F75F60
08F38F30
0BF0BE00
0EC0EB01
1FB7FB64
0BE6BE70
ENDCHAR
STARTCHAR uni01E4
ENCODING 484
SWIDTH 601 0
DWIDTH 7 0
BBX 7 11 0 -2
BITMAP
006CCC50
08F707B0
3FB00530
9F500740
BF24AFB0
AF208F20
6F51ED00
08C9CA00
06A4F500
1E18D100
08CB2000
ENDCHAR
STARTCHAR uni01E5
ENCODING 485
SWIDTH 507 0
DWIDTH 6 0
BBX 8 9 -1 -3
BITMAP
007DAFA0
06F64F70
0DE07F40
1FB0AF10
2FA1EC25
09EAFC91
003AF800
07DDFA00
01BE8000
ENDCHAR
STARTCHAR Gcaron
ENCODING 486
SWIDTH 578 0
DWIDTH 7 0
BBX 8 14 0 -2
BITMAP
00008284
00005E40
00001300
006CCC30
08F706B0
3FB00A90
9F500000
BF200940
AF203F40
6F50BF10
08C9CB00
06A4F700
1E18E100
08CB3000
ENDCHAR
STARTCHAR gcaron
ENCODING 487
SWIDTH 507 0
DWIDTH 6 0
BBX 8 12 -1 -3
BITMAP
00018591
0000BA00
00002000
007DAFA0
06F64F70
0DE07F40
1FB0AF10
2FA1EC25
09EAFC90
004AF700
0299F200
01BE7000
ENDCHAR
STARTCHAR uni01E8
ENCODING 488
SWIDTH 601 0
DWIDTH 7 0
BBX 9 12 0 0
BITMAP
0000095820
0000069000
0000000000
019DA0A900
2C7F75B000
A77F5C1000
D3AFB30000
52DECA2000
02FA2F8000
05F64F5000
08F38F1000
0CE08F1000
ENDCHAR
STARTCHAR uni01E9
ENCODING 489
SWIDTH 518 0
DWIDTH 6 0
BBX 8 11 -1 0
BITMAP
00008582
00005A10
00240000
00DD0000
01FA0000
04F74B20
07FAC200
0BFBED00
0EC0CE01
2F90EC46
5F60AEA0
ENDCHAR
STARTCHAR uni01EA
ENCODING 490
SWIDTH 665 0
DWIDTH 8 0
BBX 8 15 0 -3
BITMAP
0005D000
0001E000
00002000
006BBCA1
1C7791E8
996F30BC
B6EC00CC
27F700EB
09F304F7
0AF10AE1
09F35F50
02CFC500
00830000
00D22000
008C4000
ENDCHAR
STARTCHAR uni01EB
ENCODING 491
SWIDTH 433 0
DWIDTH 5 0
BBX 8 9 -1 -3
BITMAP
007DC300
06F58834
0ED09B40
2FA0A500
3F91D100
0AEB3000
06500000
0C320000
07C50000
ENDCHAR
STARTCHAR uni01EE
ENCODING 494
SWIDTH 525 0
DWIDTH 6 0
BBX 7 12 0 0
BITMAP
00065850
0001C300
00000000
06DBDF80
0A61DB00
000BE200
006F8000
003AF800
0000FF00
4700FE00
B805F800
4CBD7000
ENDCHAR
STARTCHAR uni01EF
ENCODING 495
SWIDTH 600 0
DWIDTH 7 0
BBX 6 12 0 -3
BITMAP
008583
003B10
000000
4CCF90
75AE10
04F600
0CD000
08F207
03F982
29FA10
A6F600
AD9000
ENDCHAR
STARTCHAR uni01F4
ENCODING 500
SWIDTH 578 0
DWIDTH 7 0
BBX 7 14 0 -2
BITMAP
00000A80
00002D10
00002300
006CCC30
08F706B0
3FB00980
9F500000
BF200A50
AF203F40
6F50BF00
08C9CB00
06A4F700
1E18E100
08CB3000
ENDCHAR
STARTCHAR uni01F5
ENCODING 501
SWIDTH 507 0
DWIDTH 6 0
BBX 8 12 -1 -3
BITMAP
00003E10
0000A500
00004000
007DAFA0
06F64F70
0DE07F40
1FB0AF10
2FA1EC25
09EAFC90
004AF700
0299F200
01BE7000
ENDCHAR
STARTCHAR Aringacute
ENCODING 506
SWIDTH 668 0
DWIDTH 8 0
BBX 10 14 0 -2
BITMAP
00000001D2
0000002C60
0000004B50
000004BF30
000066CF00
0005B0FC00
2ACEA7F900
C88C08F600
43E709F200
06F20CE000
0AC00FB000
0E903F8000
0E70000000
0340000000
ENDCHAR
STARTCHAR aringacute
ENCODING 507
SWIDTH 526 0
DWIDTH 6 0
BBX 8 10 -1 0
BITMAP
00000610
00004A00
00016700
0001B500
007DAFA0
06F54F70
0DD07F30
1FB0BF01
2FB3FE37
09E98EA0
ENDCHAR
STARTCHAR AEacute
ENCODING 508
SWIDTH 764 0
DWIDTH 9 0
BBX 11 14 0 -2
BITMAP
000000008900
00000000C100
000000023000
000004BE6150
000067BF9B40
0005C0ED0000
2ACE94F90000
C98C1AFED300
96E709F30000
06F20CF00000
0BC00FC00000
0E903FEBB300
0E7000000000
033000000000
ENDCHAR
STARTCHAR aeacute
ENCODING 509
SWIDTH 650 0
DWIDTH 8 0
BBX 9 9 -1 0
BITMAP
0000008A00
000001D200
0000013000
007BEADD50
0010AF8680
03BCEF4C30
0ED1FFB400
1F94FD0060
0AE99FB810
ENDCHAR
STARTCHAR Oslashacute
ENCODING 510
SWIDTH 658 0
DWIDTH 8 0
BBX 8 13 0 -1
BITMAP
000000D5
000005B0
00000520
00000900
018BBE70
3D6B79F5
B6BB73F8
77F6A1F8
08F2A5F5
0BF28BE1
0AF6AF60
03DFE700
000A1000
ENDCHAR
STARTCHAR oslashacute
ENCODING 511
SWIDTH 428 0
DWIDTH 5 0
BBX 7 10 -1 -1
BITMAP
00004D10
0000B400
00004000
006DC840
06F66A00
0DE2D900
1FCAA600
2FE4D100
0DEA3000
41000000
ENDCHAR
STARTCHAR uni0200
ENCODING 512
SWIDTH 668 0
DWIDTH 8 0
BBX 9 14 0 -2
BITMAP
00006B7A00
0000093A30
0000001010
000004AE30
000066CF00
0004B0FC00
2ACEA7F900
C88C08F600
43E709F200
06F20CE000
0AC00FB000
0E903F8000
0E70000000
0340000000
ENDCHAR
STARTCHAR uni0201
ENCODING 513
SWIDTH 526 0
DWIDTH 6 0
BBX 8 9 -1 0
BITMAP
00B6C500
001B2B00
00010100
007DAFA0
06F54F70
0DD07F30
1FB0BF01
2FB3FE37
09E98EA0
ENDCHAR
STARTCHAR uni0202
ENCODING 514
SWIDTH 668 0
DWIDTH 8 0
BBX 10 13 0 -2
BITMAP
0000007BB3
0000068078
000004AE30
000066CF00
0004B0FC00
2ACEA7F900
C88C08F600
43E709F200
06F20CE000
0AC00FB000
0E903F8000
0E70000000
0340000000
ENDCHAR
STARTCHAR uni0203
ENCODING 515
SWIDTH 526 0
DWIDTH 6 0
BBX 8 8 -1 0
BITMAP
0008BD50
00480480
007DAFA0
06F54F70
0DD07F30
1FB0BF01
2FB3FE37
09E98EA0
ENDCHAR
STARTCHAR uni0204
ENCODING 516
SWIDTH 459 0
DWIDTH 6 0
BBX 6 12 0 0
BITMAP
05C6B0
008594
000101
005DC7
02F61D
06F248
03F700
07E810
6FA000
DF4000
CF4025
4DE950
ENDCHAR
STARTCHAR uni0205
ENCODING 517
SWIDTH 384 0
DWIDTH 5 0
BBX 6 9 -1 0
BITMAP
089880
00A2B2
001111
007DD3
06F695
0DE3D1
1FEA30
2FB137
09ED70
ENDCHAR
STARTCHAR uni0206
ENCODING 518
SWIDTH 459 0
DWIDTH 6 0
BBX 7 12 0 0
BITMAP
0007BB30
00690690
00000000
005DC700
02F61D00
06F24800
03F70000
07E81000
6FA00000
DF400000
CF402500
4DE95000
ENDCHAR
STARTCHAR uni0207
ENCODING 519
SWIDTH 384 0
DWIDTH 5 0
BBX 6 8 -1 0
BITMAP
007BD6
03903A
007DD3
06F695
0DE3D1
1FEA30
2FA016
09EA70
ENDCHAR
STARTCHAR uni0208
ENCODING 520
SWIDTH 375 0
DWIDTH 5 0
BBX 5 12 0 0
BITMAP
1C5D30
02B3A0
001020
027EA0
4A5F70
C48F40
A3BF10
00EC00
02F900
05F600
08F300
0CE000
ENDCHAR
STARTCHAR uni0209
ENCODING 521
SWIDTH 267 0
DWIDTH 3 0
BBX 5 9 -1 0
BITMAP
C6C400
2B2B00
010100
04F700
08F300
0BF000
0EC010
1FB560
0BE800
ENDCHAR
STARTCHAR uni020A
ENCODING 522
SWIDTH 375 0
DWIDTH 5 0
BBX 6 11 0 0
BITMAP
005AC5
03B13C
029EA0
3C6F70
C57F40
D3AF10
11EC00
02F900
05F600
08F300
0CE000
ENDCHAR
STARTCHAR uni020B
ENCODING 523
SWIDTH 267 0
DWIDTH 3 0
BBX 5 8 -1 0
BITMAP
05BC30
0A0460
04F700
08F300
0BF000
0EC010
1FB560
0BE800
ENDCHAR
STARTCHAR uni020C
ENCODING 524
SWIDTH 665 0
DWIDTH 8 0
BBX 8 12 0 0
BITMAP
005C6B00
00084930
00001010
006BBCA1
1C7791E8
996F30BC
B6EC00CC
27F700EB
09F304F7
0AF10AE1
09F35F50
02CEC500
ENDCHAR
STARTCHAR uni020D
ENCODING 525
SWIDTH 433 0
DWIDTH 5 0
BBX 8 9 -1 0
BITMAP
08898000
00B2B100
00111100
007DC300
06F59944
0ED09B30
2F90B500
3FA4D100
0AEC3000
ENDCHAR
STARTCHAR uni020E
ENCODING 526
SWIDTH 665 0
DWIDTH 8 0
BBX 8 12 0 0
BITMAP
00006BC4
0005905A
00000000
006BBCA1
1C7791E8
996F30BC
B6EC00CC
27F700EB
09F304F7
0AF10AE1
09F35F50
02CEC500
ENDCHAR
STARTCHAR uni020F
ENCODING 527
SWIDTH 433 0
DWIDTH 5 0
BBX 8 8 -1 0
BITMAP
004BCA00
00A10B20
007DC300
06F58834
0ED09B40
2FA0A500
3F91D100
0AEB3000
ENDCHAR
STARTCHAR uni0210
ENCODING 528
SWIDTH 601 0
DWIDTH 7 0
BBX 7 12 0 0
BITMAP
04D5C000
00767500
00020100
018CBC30
2D6846D0
A77F46E0
D3AF2C60
52DFEE30
01FA2F80
05F74F50
08F38F10
0CE08F10
ENDCHAR
STARTCHAR uni0211
ENCODING 529
SWIDTH 376 0
DWIDTH 5 0
BBX 6 9 -1 0
BITMAP
2D4D10
049580
002020
04FBD7
08F686
0BF000
0EC000
2F9000
5F6000
ENDCHAR
STARTCHAR uni0212
ENCODING 530
SWIDTH 601 0
DWIDTH 7 0
BBX 7 12 0 0
BITMAP
0007BB30
00590690
00000000
018CBC30
2D6846D0
A77F46E0
D3AF2C60
52DFEE30
01FA2F80
05F74F50
08F38F10
0CE08F10
ENDCHAR
STARTCHAR uni0213
ENCODING 531
SWIDTH 376 0
DWIDTH 5 0
BBX 6 8 -1 0
BITMAP
007BD7
03902A
04FBD7
08F686
0BF000
0EC000
2F9000
5F6000
ENDCHAR
STARTCHAR uni0214
ENCODING 532
SWIDTH 716 0
DWIDTH 9 0
BBX 9 12 0 0
BITMAP
0005C6B000
0000849400
0000010100
029DD00BE0
4C2FA00EB0
E44F602F80
E18F206F50
21CD009F10
00F900DD00
02F703F800
02FA3BE100
008EEB3000
ENDCHAR
STARTCHAR uni0215
ENCODING 533
SWIDTH 505 0
DWIDTH 6 0
BBX 8 9 -1 0
BITMAP
06B7A000
0094A300
00010100
04F75F60
08F38F30
0BF0BE00
0EC0EB01
1FB7FB64
0BE6BE70
ENDCHAR
STARTCHAR uni0216
ENCODING 534
SWIDTH 716 0
DWIDTH 9 0
BBX 9 12 0 0
BITMAP
000019BB10
0000960960
0000000000
029DD00BE0
4C2FA00EB0
E44F602F80
E18F206F50
21CD009F10
00F900DD00
02F703F800
02FA3BE100
008EEB3000
ENDCHAR
STARTCHAR uni0217
ENCODING 535
SWIDTH 505 0
DWIDTH 6 0
BBX 8 8 -1 0
BITMAP
003BBC10
00930940
04F75F60
08F38F30
0BF0BE00
0EC0EB01
1FB7FB64
0BE6BE70
ENDCHAR
STARTCHAR Scommaaccent
ENCODING 536
SWIDTH 570 0
DWIDTH 7 0
BBX 7 12 0 -3
BITMAP
004CCC20
01FA0990
02FB0A50
00AF7000
001CF500
19A2EE00
7E20AF20
7D01DC00
1ACDA200
00610000
00C20000
00400000
ENDCHAR
STARTCHAR scommaaccent
ENCODING 537
SWIDTH 382 0
DWIDTH 5 0
BBX 6 10 -1 -3
BITMAP
000010
006F80
00BF90
047FA0
1B1FB0
591FD6
1ADB30
025000
03C000
022000
ENDCHAR
STARTCHAR uni021A
ENCODING 538
SWIDTH 481 0
DWIDTH 6 0
BBX 9 12 0 -3
BITMAP
05ACEA3150
6B18FAAA20
C50CF10000
D30EC00000
213F900000
006F600000
009F200000
00CE000000
00FB000000
0061000000
00C2000000
0040000000
ENDCHAR
STARTCHAR uni021B
ENCODING 539
SWIDTH 267 0
DWIDTH 3 0
BBX 5 11 -1 -3
BITMAP
009A00
01FA00
08FD20
07F400
0AF100
0EC010
1FB460
0BE800
061000
0C3000
040000
ENDCHAR
STARTCHAR uni021E
ENCODING 542
SWIDTH 665 0
DWIDTH 8 0
BBX 9 12 0 0
BITMAP
0000095820
0000069000
0000000000
018DB08F30
1DAF80AF00
9A5F60DC00
C58F31F900
63CFDEF600
00FB07F200
04F80BE000
07F40EB000
0AF13F8000
ENDCHAR
STARTCHAR uni021F
ENCODING 543
SWIDTH 600 0
DWIDTH 7 0
BBX 8 11 -1 0
BITMAP
00006584
00001C20
00140000
00DD0000
01FA0000
04FCDB00
07F49F20
0BE0BF00
0EC0EC00
2F91F925
5F50BD70
ENDCHAR
STARTCHAR uni0237
ENCODING 567
SWIDTH 240 0
DWIDTH 3 0
BBX 7 9 -3 -3
BITMAP
0004F700
0007F400
000BF100
000ED000
002F9520
005FB600
07DF3000
57CE0000
3CD40000
ENDCHAR
STARTCHAR uni0259
ENCODING 601
SWIDTH 404 0
DWIDTH 5 0
BBX 5 6 0 0
BITMAP
3ADC20
104F80
07CF90
987F50
E1DC00
ADA100
ENDCHAR
STARTCHAR uni0292
ENCODING 658
SWIDTH 442 0
DWIDTH 5 0
BBX 6 9 0 -3
BITMAP
4CCF90
75AE10
04F600
0CD000
08F207
03F982
29FA10
A6F600
AD9000
ENDCHAR
STARTCHAR uni02BB
ENCODING 699
SWIDTH 241 0
DWIDTH 3 0
BBX 3 3 1 6
BITMAP
0500
5B00
5D10
ENDCHAR
STARTCHAR uni02BC
ENCODING 700
SWIDTH 228 0
DWIDTH 3 0
BBX 3 3 1 6
BITMAP
2E20
0C10
1300
ENDCHAR
STARTCHAR circumflex
ENCODING 710
SWIDTH 293 0
DWIDTH 4 0
BBX 4 2 0 7
BITMAP
03C0
5865
ENDCHAR
STARTCHAR caron
ENCODING 711
SWIDTH 294 0
DWIDTH 4 0
BBX 4 2 1 7
BITMAP
8583
4B10
ENDCHAR
STARTCHAR uni02C9
ENCODING 713
SWIDTH 421 0
DWIDTH 5 0
BBX 5 1 1 7
BITMAP
5BBB50
ENDCHAR
STARTCHAR uni02CA
ENCODING 714
SWIDTH 256 0
DWIDTH 3 0
BBX 3 2 1 7
BITMAP
0C50
5700
ENDCHAR
STARTCHAR uni02CB
ENCODING 715
SWIDTH 274 0
DWIDTH 3 0
BBX 2 3 2 7
BITMAP
20
D3
66
ENDCHAR
STARTCHAR breve
ENCODING 728
SWIDTH 431 0
DWIDTH 5 0
BBX 6 2 0 6
BITMAP
1E12D1
07BA30
ENDCHAR
STARTCHAR dotaccent
ENCODING 729
SWIDTH 250 0
DWIDTH 3 0
BBX 3 2 0 7
BITMAP
2C50
3E60
ENDCHAR
STARTCHAR ring
ENCODING 730
SWIDTH 156 0
DWIDTH 2 0
BBX 2 2 0 6
BITMAP
87
87
ENDCHAR
STARTCHAR ogonek
ENCODING 731
SWIDTH 291 0
DWIDTH 3 0
BBX 4 3 0 -3
BITMAP
0610
5901
3C80
ENDCHAR
STARTCHAR tilde
ENCODING 732
SWIDTH 403 0
DWIDTH 5 0
BBX 6 2 0 7
BITMAP
047411
28CE80
ENDCHAR
STARTCHAR hungarumlaut
ENCODING 733
SWIDTH 436 0
DWIDTH 5 0
BBX 5 3 1 7
BITMAP
021210
3D4C10
A2A200
ENDCHAR
STARTCHAR gravecomb
ENCODING 768
SWIDTH 0 0
DWIDTH 0 0
BBX 2 3 -2 7
BITMAP
20
D4
66
ENDCHAR
STARTCHAR acutecomb
ENCODING 769
SWIDTH 0 0
DWIDTH 0 0
BBX 3 2 -3 7
BITMAP
0890
2A00
ENDCHAR
STARTCHAR uni0302
ENCODING 770
SWIDTH 0 0
DWIDTH 0 0
BBX 5 2 -4 7
BITMAP
007900
187910
ENDCHAR
STARTCHAR tildecomb
ENCODING 771
SWIDTH 0 0
DWIDTH 0 0
BBX 6 2 -5 7
BITMAP
037511
18CEA1
ENDCHAR
STARTCHAR uni0304
ENCODING 772
SWIDTH 0 0
DWIDTH 0 0
BBX 5 1 -4 7
BITMAP
6BBB40
ENDCHAR
STARTCHAR uni0306
ENCODING 774
SWIDTH 0 0
DWIDTH 0 0
BBX 5 2 -4 6
BITMAP
A60A50
3BB600
ENDCHAR
STARTCHAR uni0307
ENCODING 775
SWIDTH 0 0
DWIDTH 0 0
BBX 3 2 -2 7
BITMAP
3C30
4E40
ENDCHAR
STARTCHAR uni0308
ENCODING 776
SWIDTH 0 0
DWIDTH 0 0
BBX 5 2 -4 6
BITMAP
2E2D30
010100
ENDCHAR
STARTCHAR hookabovecomb
ENCODING 777
SWIDTH 0 0
DWIDTH 0 0
BBX 3 3 -3 7
BITMAP
5A40
0390
3700
ENDCHAR
STARTCHAR uni030A
ENCODING 778
SWIDTH 0 0
DWIDTH 0 0
BBX 3 2 -2 6
BITMAP
3920
4920
ENDCHAR
STARTCHAR uni030B
ENCODING 779
SWIDTH 0 0
DWIDTH 0 0
BBX 5 3 -4 7
BITMAP
012110
0C4D30
576600
ENDCHAR
STARTCHAR uni030C
ENCODING 780
SWIDTH 0 0
DWIDTH 0 0
BBX 4 2 -3 7
BITMAP
8583
5B10
ENDCHAR
STARTCHAR uni030F
ENCODING 783
SWIDTH 0 0
DWIDTH 0 0
BBX 5 3 -4 7
BITMAP
212000
989700
0B2B10
ENDCHAR
STARTCHAR uni0311
ENCODING 785
SWIDTH 0 0
DWIDTH 0 0
BBX 6 2 -5 6
BITMAP
03AC80
1C21C2
ENDCHAR
STARTCHAR uni031B
ENCODING 795
SWIDTH 0 0
DWIDTH 0 0
BBX 3 3 -2 5
BITMAP
0A30
0C10
3300
ENDCHAR
STARTCHAR dotbelowcomb
ENCODING 803
SWIDTH 0 0
DWIDTH 0 0
BBX 3 2 -3 -3
BITMAP
1B60
1E80
ENDCHAR
STARTCHAR uni0324
ENCODING 804
SWIDTH 0 0
DWIDTH 0 0
BBX 5 2 -6 -3
BITMAP
2E2D30
010100
ENDCHAR
STARTCHAR uni0326
ENCODING 806
SWIDTH 0 0
DWIDTH 0 0
BBX 2 3 -3 -4
BITMAP
B5
82
10
ENDCHAR
STARTCHAR uni0327
ENCODING 807
SWIDTH 0 0
DWIDTH 0 0
BBX 4 3 -5 -3
BITMAP
0530
09B3
1791
ENDCHAR
STARTCHAR uni0328
ENCODING 808
SWIDTH 0 0
DWIDTH 0 0
BBX 4 3 -5 -3
BITMAP
0520
3C01
1CA1
ENDCHAR
STARTCHAR uni032E
ENCODING 814
SWIDTH 0 0
DWIDTH 0 0
BBX 4 2 -5 -2
BITMAP
8044
7970
ENDCHAR
STARTCHAR uni0331
ENCODING 817
SWIDTH 0 0
DWIDTH 0 0
BBX 5 1 -6 -2
BITMAP
5BBB50
ENDCHAR
STARTCHAR uni0335
ENCODING 821
SWIDTH 0 0
DWIDTH 0 0
BBX 5 1 -5 3
BITMAP
599940
ENDCHAR
STARTCHAR uni0394
ENCODING 916
SWIDTH 619 0
DWIDTH 7 0
BBX 8 9 0 0
BITMAP
00007F20
0002DE50
000A7B70
003D0990
00C407C0
05B005E0
1D2003F1
880001F3
CEEEEEF5
ENDCHAR
STARTCHAR uni03A9
ENCODING 937
SWIDTH 745 0
DWIDTH 9 0
BBX 9 9 0 0
BITMAP
0003ADC400
006D526E10
03D1000C50
0970000A50
0D30000C30
0D20003C00
0A5000B300
02B1084000
8EE46EEA00
ENDCHAR
STARTCHAR uni03BC
ENCODING 956
SWIDTH 505 0
DWIDTH 6 0
BBX 8 8 -1 -2
BITMAP
04D64D50
07F48F30
0AF1BF00
0DD0EC00
2FA5FA34
5FF9DFA0
8F401100
BC000000
ENDCHAR
STARTCHAR pi
ENCODING 960
SWIDTH 530 0
DWIDTH 6 0
BBX 8 6 -1 0
BITMAP
1EFEEFE4
02D02D00
05A05A00
08608600
0C30C300
0B008600
ENDCHAR
STARTCHAR uni0400
ENCODING 1024
SWIDTH 459 0
DWIDTH 6 0
BBX 6 13 0 0
BITMAP
000210
000880
0002A0
000000
005DC7
02F61D
06F248
03F700
07E810
6FA000
DF4000
CF4025
4DE950
ENDCHAR
STARTCHAR uni0401
ENCODING 1025
SWIDTH 459 0
DWIDTH 6 0
BBX 7 11 0 0
BITMAP
001E2D40
00010100
005DC700
02F61D00
06F24800
03F70000
07E81000
6FA00000
DF400000
CF402500
4DE95000
ENDCHAR
STARTCHAR uni0402
ENCODING 1026
SWIDTH 725 0
DWIDTH 9 0
BBX 9 11 0 -2
BITMAP
04ACFCBB50
4C18F30000
B60BF10000
C40EE00000
532FEAD500
005F80DC00
008F40EB00
00BF13F700
00EC08F200
00002E8000
0007C70000
ENDCHAR
STARTCHAR uni0403
ENCODING 1027
SWIDTH 400 0
DWIDTH 5 0
BBX 8 12 0 0
BITMAP
000002D2
00000930
00000000
056ECAB4
794F6000
C67F3000
75AF1000
00DC0000
01F90000
04F60000
07F30000
0AF10000
ENDCHAR
STARTCHAR uni0404
ENCODING 1028
SWIDTH 497 0
DWIDTH 6 0
BBX 7 9 0 0
BITMAP
006DCB10
05F80A50
0ED00510
5FDB9000
9F500000
BF400000
BF400010
8F800710
1AEA7100
ENDCHAR
STARTCHAR uni0405
ENCODING 1029
SWIDTH 570 0
DWIDTH 7 0
BBX 7 9 0 0
BITMAP
004CCC20
01FA0990
02FB0A50
00AF7000
001CF500
19A2EE00
7E20AF20
7D01DC00
1ACDA200
ENDCHAR
STARTCHAR uni0406
ENCODING 1030
SWIDTH 374 0
DWIDTH 4 0
BBX 5 9 0 0
BITMAP
018DB0
2C5F80
B76F50
C49F10
11DD00
01FA00
04F700
07F400
0AF100
ENDCHAR
STARTCHAR uni0407
ENCODING 1031
SWIDTH 375 0
DWIDTH 5 0
BBX 6 11 0 0
BITMAP
00896B
001101
029EA0
3C6F70
C57F40
D3AF10
11EC00
02F900
05F600
08F300
0CE000
ENDCHAR
STARTCHAR uni0408
ENCODING 1032
SWIDTH 536 0
DWIDTH 6 0
BBX 7 11 0 -2
BITMAP
00018DC0
001C5F90
00985F60
00A69F20
0012CE00
0001FB00
0004F700
0008F400
4B8CE100
B63F8000
5CB80000
ENDCHAR
STARTCHAR uni0409
ENCODING 1033
SWIDTH 817 0
DWIDTH 10 0
BBX 11 10 -1 -1
BITMAP
000007EC0000
0000A7FA0000
000794F70000
004E17F40000
00C70BFAC800
06F10ED07F40
0CA02F905F50
2F605F608E10
5F309F6BD400
2D2000000000
ENDCHAR
STARTCHAR uni040A
ENCODING 1034
SWIDTH 931 0
DWIDTH 11 0
BBX 11 9 0 0
BITMAP
018DB08F3000
1C7F90AF1000
986F60DD0000
C59F31FA0000
53CFBCFCCB20
01FB07F42F90
04F80BF00EA0
07F40EC03F60
0AF13F8BD800
ENDCHAR
STARTCHAR uni040B
ENCODING 1035
SWIDTH 745 0
DWIDTH 9 0
BBX 9 9 0 0
BITMAP
06BCFCBB50
7B08F30000
C50BE00000
630EEAC400
002F90EC00
005F50EC00
008F21FA00
00BE04F700
00EC03E800
ENDCHAR
STARTCHAR uni040C
ENCODING 1036
SWIDTH 635 0
DWIDTH 8 0
BBX 9 12 0 0
BITMAP
000002D200
0000093000
0000000000
018DB1BD10
2C6F8B9B00
A86FA80000
C49FC10000
43CFCB3000
01FB1F9000
04F73F6000
07F47F2000
0AF17F2000
ENDCHAR
STARTCHAR uni040D
ENCODING 1037
SWIDTH 705 0
DWIDTH 8 0
BBX 9 13 0 0
BITMAP
0000020000
00001E2000
0000084000
0000000000
018DB03FB0
2C5F80BF70
B76F55FF40
C49F2DCF10
11DD78DD00
01FBD2FA00
04FF64F700
07FC08F300
0AF30BF000
ENDCHAR
STARTCHAR uni040E
ENCODING 1038
SWIDTH 644 0
DWIDTH 8 0
BBX 9 12 0 0
BITMAP
0000010010
00008C1820
00004BA400
018DE00650
2C2CF30B00
B707F64800
C403F9A100
1100EEA000
0000AF4000
00006C0000
0038750000
005E900000
ENDCHAR
STARTCHAR uni040F
ENCODING 1039
SWIDTH 665 0
DWIDTH 8 0
BBX 9 13 0 -4
BITMAP
018DB08F30
2C5F80BF00
B76F50EC00
C49F22F900
11DD05F600
01FA09F200
04F70CE000
07F40FB000
0AFDDF8000
0028000000
006F300000
001E800000
0008200000
ENDCHAR
STARTCHAR uni0410
ENCODING 1040
SWIDTH 668 0
DWIDTH 8 0
BBX 9 11 0 -2
BITMAP
000004AE30
000066CF00
0004B0FC00
2ACEA7F900
C88C08F600
43E709F200
06F20CE000
0AC00FB000
0E903F8000
0E70000000
0340000000
ENDCHAR
STARTCHAR uni0411
ENCODING 1041
SWIDTH 638 0
DWIDTH 8 0
BBX 8 9 0 0
BITMAP
047ECBB4
577F4000
C4AF2000
D3DE0000
53FEAC50
04F90CE0
07F509F0
0AF20DB0
0DD7CB20
ENDCHAR
STARTCHAR uni0412
ENCODING 1042
SWIDTH 641 0
DWIDTH 8 0
BBX 8 9 0 0
BITMAP
029BBD60
4D5A64F0
C66F49A0
849FDF80
00CC0AF2
01F906F4
04F607F1
07F40BB0
0AF6CC20
ENDCHAR
STARTCHAR uni0413
ENCODING 1043
SWIDTH 400 0
DWIDTH 5 0
BBX 8 9 0 0
BITMAP
056ECAB4
794F6000
C67F3000
75AF1000
00DC0000
01F90000
04F60000
07F30000
0AF10000
ENDCHAR
STARTCHAR uni0414
ENCODING 1044
SWIDTH 669 0
DWIDTH 8 0
BBX 9 9 -1 0
BITMAP
0029BBC600
03D6954F50
0B76F50EA0
0B4AF20DC0
001DE00EB0
002FB02F70
09DF707F20
478F42E900
1BE99DA100
ENDCHAR
STARTCHAR uni0415
ENCODING 1045
SWIDTH 459 0
DWIDTH 6 0
BBX 6 9 0 0
BITMAP
005DC7
02F61D
06F248
03F700
07E810
6FA000
DF4000
CF4025
4DE950
ENDCHAR
STARTCHAR uni0416
ENCODING 1046
SWIDTH 777 0
DWIDTH 9 0
BBX 11 9 -1 0
BITMAP
00AE32B63DB0
009AA7F5D990
0000CAF86000
0000ADDB0000
006ECFDED200
02F84F74F500
06F37F37F200
0AF0BF0BE000
2E90EC0AD000
ENDCHAR
STARTCHAR uni0417
ENCODING 1047
SWIDTH 525 0
DWIDTH 6 0
BBX 7 9 -1 0
BITMAP
0029CE60
00600ED0
00005F90
001CFA00
00008F60
00004FA0
0B406F80
1F20CE20
08CCB300
ENDCHAR
STARTCHAR uni0418
ENCODING 1048
SWIDTH 705 0
DWIDTH 8 0
BBX 9 9 0 0
BITMAP
018DB03FB0
2C5F80BF70
B76F55FF40
C49F2DCF10
11DD78DD00
01FBD2FA00
04FF64F700
07FC08F300
0AF30BF000
ENDCHAR
STARTCHAR uni0419
ENCODING 1049
SWIDTH 705 0
DWIDTH 8 0
BBX 9 12 0 0
BITMAP
0000110110
0000B91900
00006BA200
018DB03FB0
2C5F80BF70
B76F55FF40
C49F2DCF10
11DD78DD00
01FBD2FA00
04FF64F700
07FC08F300
0AF30BF000
ENDCHAR
STARTCHAR uni041A
ENCODING 1050
SWIDTH 635 0
DWIDTH 8 0
BBX 9 9 0 0
BITMAP
018DB1BD10
2C6F8B9B00
A86FA80000
C49FC10000
43CFCB3000
01FB1F9000
04F73F6000
07F47F2000
0AF17F2000
ENDCHAR
STARTCHAR uni041B
ENCODING 1051
SWIDTH 549 0
DWIDTH 7 0
BBX 8 11 -1 -2
BITMAP
000007EC
000096FA
000694F7
002E18F3
00A80BF0
03F20EC0
0AC02F90
1F705F50
4F409F20
5F200000
06100000
ENDCHAR
STARTCHAR uni041C
ENCODING 1052
SWIDTH 787 0
DWIDTH 9 0
BBX 10 9 0 0
BITMAP
004AF804F9
06A7F70AF6
1F1CF72FF4
1E3EF68FF2
018AF6DCF0
00D6FA9DD0
04A5FF3FB0
0A56FC2F90
1D07F64F70
ENDCHAR
STARTCHAR uni041D
ENCODING 1053
SWIDTH 665 0
DWIDTH 8 0
BBX 9 9 0 0
BITMAP
018DB08F30
1DAF80AF00
9A5F60DC00
C58F31F900
63CFDEF600
00FB07F200
04F80BE000
07F40EB000
0AF13F8000
ENDCHAR
STARTCHAR uni041E
ENCODING 1054
SWIDTH 665 0
DWIDTH 8 0
BBX 8 9 0 0
BITMAP
006BBCA1
1C7791E8
996F30BC
B6EC00CC
27F700EB
09F304F7
0AF10AE1
09F35F50
02CEC500
ENDCHAR
STARTCHAR uni041F
ENCODING 1055
SWIDTH 688 0
DWIDTH 8 0
BBX 10 9 0 0
BITMAP
04BEEA4013
5E9FCAEEB1
B76F60DD00
C49F21FA00
32CE04F600
01FB08F300
04F70BE000
07F40EB000
0AF13F8000
ENDCHAR
STARTCHAR uni0420
ENCODING 1056
SWIDTH 573 0
DWIDTH 7 0
BBX 8 9 0 0
BITMAP
019BCC30
3D5847D0
B67F44F1
D3AF17D0
21DD2E40
02FC7200
05F60000
08F30000
0CE00000
ENDCHAR
STARTCHAR uni0421
ENCODING 1057
SWIDTH 497 0
DWIDTH 6 0
BBX 7 9 0 0
BITMAP
006DCB10
05FA0950
0EE10B30
5FA00000
9F600000
BF400000
BF400000
8F700610
1AEB8200
ENDCHAR
STARTCHAR uni0422
ENCODING 1058
SWIDTH 481 0
DWIDTH 6 0
BBX 9 9 0 0
BITMAP
05ACEA3150
6B18FAAA20
C50CF10000
D30EC00000
213F900000
006F600000
009F200000
00CE000000
00FB000000
ENDCHAR
STARTCHAR uni0423
ENCODING 1059
SWIDTH 644 0
DWIDTH 8 0
BBX 9 9 0 0
BITMAP
018DE00650
2C2CF30B00
B707F64800
C403F9A100
1100EEA000
0000AF4000
00006C0000
0038750000
005E900000
ENDCHAR
STARTCHAR uni0424
ENCODING 1060
SWIDTH 786 0
DWIDTH 9 0
BBX 9 10 0 0
BITMAP
007BCC5000
07C15F5000
0242AF7100
04B6DE6E50
4F40FB09E0
AF03F809F0
BE06F50DC0
7F4AF28F40
07CEFCA300
001FA00000
ENDCHAR
STARTCHAR uni0425
ENCODING 1061
SWIDTH 620 0
DWIDTH 7 0
BBX 8 9 0 0
BITMAP
028DD093
3C2DF4A0
C60AFD20
D307F900
1104FA00
0006FE00
001BCF20
00839F50
02906F80
ENDCHAR
STARTCHAR uni0426
ENCODING 1062
SWIDTH 692 0
DWIDTH 8 0
BBX 9 11 0 -2
BITMAP
018DB08F30
3C5F80BF00
B76F50EC00
C49F22F900
11DD06F500
01FA09F200
04F70CE000
07F40FB000
0AFDAF8000
0013AFC840
000006DD20
ENDCHAR
STARTCHAR uni0427
ENCODING 1063
SWIDTH 695 0
DWIDTH 8 0
BBX 9 9 0 0
BITMAP
018DB02F90
1C7F805F60
987F508F20
C58F30BE00
633D41EB00
000004F800
000007F500
00000AF100
00000DD000
ENDCHAR
STARTCHAR uni0428
ENCODING 1064
SWIDTH 906 0
DWIDTH 11 0
BBX 12 9 0 0
BITMAP
018DB0DD09F2
2C5F81FA0DE0
B76F54F71FA0
C49F28F34F70
11DD0BF07F40
01FA0EC0AF10
04F72F90DD00
07F45F52F900
0AFDEFEEF600
ENDCHAR
STARTCHAR uni0429
ENCODING 1065
SWIDTH 934 0
DWIDTH 11 0
BBX 12 11 0 -2
BITMAP
018DB0DD09F2
2C5F81FA0DE0
A76F54F71FA0
C49F28F34F70
11DD0BF07F40
01FA0EC0AF10
04F72F90DD00
07F45F61F900
0AFDDF76F600
00026AFFFB84
00000016BED1
ENDCHAR
STARTCHAR uni042A
ENCODING 1066
SWIDTH 714 0
DWIDTH 9 0
BBX 9 9 0 0
BITMAP
028BF90000
2906F70000
A509F40000
C50CF10000
770FFAC500
003F90BF10
006F608F10
009F30CC00
00CE6CC200
ENDCHAR
STARTCHAR uni042B
ENCODING 1067
SWIDTH 909 0
DWIDTH 11 0
BBX 12 9 0 0
BITMAP
018DB00009F2
1C7F80000CE0
986F50000FB0
C59F30003F80
53CFAC706F40
01FB09F2AF10
04F807F3DD00
07F40AD1FA00
0AF6BC34F700
ENDCHAR
STARTCHAR uni042C
ENCODING 1068
SWIDTH 640 0
DWIDTH 8 0
BBX 8 9 0 0
BITMAP
018DB000
1C7F8000
986F5000
C59F3000
53CFAC70
01FB09F2
04F807F3
07F40AD0
0AF6BC30
ENDCHAR
STARTCHAR uni042D
ENCODING 1069
SWIDTH 544 0
DWIDTH 7 0
BBX 8 9 -1 0
BITMAP
0028CD70
01500CF3
000009F6
002BBEF6
00000DF3
00002FE0
0C307F80
1F01ED10
089CA100
ENDCHAR
STARTCHAR uni042E
ENCODING 1070
SWIDTH 946 0
DWIDTH 11 0
BBX 12 9 0 0
BITMAP
018DB04BCC30
1C7F80592AD0
986F51D906F3
C59F37F306F3
63CFDFC008F1
01FB2F800DC0
04F84F704F60
07F43F81CB00
0AF109ED8100
ENDCHAR
STARTCHAR uni042F
ENCODING 1071
SWIDTH 630 0
DWIDTH 8 0
BBX 10 9 -1 0
BITMAP
0004BCBB60
004E34A5E3
009A0AF2A2
006D1ED000
006EEFA000
02F95F7000
06F28F4000
09E0BF1000
2E80EC0000
ENDCHAR
STARTCHAR uni0430
ENCODING 1072
SWIDTH 526 0
DWIDTH 6 0
BBX 8 6 -1 0
BITMAP
007DAFA0
06F54F70
0DD07F30
1FB0BF01
2FB3FE37
09E98EA0
ENDCHAR
STARTCHAR uni0431
ENCODING 1073
SWIDTH 430 0
DWIDTH 5 0
BBX 8 9 -1 0
BITMAP
001BDDD9
001EFFD2
00049000
006CE400
06F66900
0DE06900
2FA0A600
1F91D100
08EB3000
ENDCHAR
STARTCHAR uni0432
ENCODING 1074
SWIDTH 449 0
DWIDTH 5 0
BBX 8 9 -1 0
BITMAP
0008D700
006E1B00
01E90B00
06F43800
0BF18301
0EC4DA83
2FA07A00
1FA0A600
07EB8000
ENDCHAR
STARTCHAR uni0433
ENCODING 1075
SWIDTH 375 0
DWIDTH 5 0
BBX 6 6 -1 0
BITMAP
029EA0
080CF1
018FA0
0BF800
3FA025
1BEA50
ENDCHAR
STARTCHAR uni0434
ENCODING 1076
SWIDTH 507 0
DWIDTH 6 0
BBX 8 9 -1 -3
BITMAP
007DAFA0
06F64F70
0DE07F40
1FB0AF10
2FA1EC25
09EAFC90
004AF700
0299F200
01BE7000
ENDCHAR
STARTCHAR uni0435
ENCODING 1077
SWIDTH 384 0
DWIDTH 5 0
BBX 6 6 -1 0
BITMAP
007DD3
06F695
0DE3D1
1FEA30
2FA016
09EA70
ENDCHAR
STARTCHAR uni0436
ENCODING 1078
SWIDTH 882 0
DWIDTH 11 0
BBX 12 6 -1 0
BITMAP
05BE43F64DD4
050CB6F4E852
000CDEFCF200
130E6DB8F002
694E2F87F116
3CB44F51CC70
ENDCHAR
STARTCHAR uni0437
ENCODING 1079
SWIDTH 498 0
DWIDTH 6 0
BBX 7 9 0 -3
BITMAP
05BE7000
370BF100
800CF000
704F7010
07FA0440
009F6700
04CF5000
38AE1000
2CD50000
ENDCHAR
STARTCHAR uni0438
ENCODING 1080
SWIDTH 505 0
DWIDTH 6 0
BBX 8 6 -1 0
BITMAP
04F75F60
08F38F30
0BF0BE00
0EC0EB01
1FB7FB64
0BE6BE70
ENDCHAR
STARTCHAR uni0439
ENCODING 1081
SWIDTH 505 0
DWIDTH 6 0
BBX 8 9 -1 0
BITMAP
00020020
006E0740
002BB500
04F75F60
08F38F30
0BF0BE00
0EC0EB01
1FB7FB64
0BE6BE70
ENDCHAR
STARTCHAR uni043A
ENCODING 1082
SWIDTH 501 0
DWIDTH 6 0
BBX 8 6 -1 0
BITMAP
04F73B90
07F77110
0BFFF700
0ED2FA01
2F91FA63
5F60BE70
ENDCHAR
STARTCHAR uni043B
ENCODING 1083
SWIDTH 558 0
DWIDTH 7 0
BBX 9 6 -1 0
BITMAP
0001BEF100
00074CC000
000A1FA000
00094F6000
4A466F4610
3CB13EB400
ENDCHAR
STARTCHAR uni043C
ENCODING 1084
SWIDTH 827 0
DWIDTH 10 0
BBX 12 6 -1 0
BITMAP
0001BE00CF40
0007AF05FF10
00097F1BDC00
02096F67F901
6C465FC3F982
2BB14F71CE60
ENDCHAR
STARTCHAR uni043D
ENCODING 1085
SWIDTH 507 0
DWIDTH 6 0
BBX 8 6 -1 0
BITMAP
04F63F60
08F37F30
0BFBEF10
0EB0EC01
2F80FA34
5F50AE60
ENDCHAR
STARTCHAR uni043E
ENCODING 1086
SWIDTH 439 0
DWIDTH 5 0
BBX 8 6 -1 0
BITMAP
007DC300
06F67934
0DE08C40
1FB09600
2FA1D100
09EB4000
ENDCHAR
STARTCHAR uni043F
ENCODING 1087
SWIDTH 505 0
DWIDTH 6 0
BBX 8 6 -1 0
BITMAP
04FCDB00
08F49F20
0BE0BF00
0EC0EC00
2F91F925
5F50BD70
ENDCHAR
STARTCHAR uni0440
ENCODING 1088
SWIDTH 468 0
DWIDTH 6 0
BBX 7 10 -1 -3
BITMAP
01840000
05FCDC10
08F46F40
0BF06F40
0EC0AF10
2F93FA00
6FDEB100
9F200000
CE000000
B6000000
ENDCHAR
STARTCHAR uni0441
ENCODING 1089
SWIDTH 384 0
DWIDTH 5 0
BBX 6 6 -1 0
BITMAP
007DD3
06F694
0DE000
1FB000
2FA016
09EA70
ENDCHAR
STARTCHAR uni0442
ENCODING 1090
SWIDTH 752 0
DWIDTH 9 0
BBX 11 6 -1 0
BITMAP
04FCDC8DB000
08F49F49F100
0BE0CE0BE000
0EC0FB0EB000
2F93F81F9340
5F56F50BD700
ENDCHAR
STARTCHAR uni0443
ENCODING 1091
SWIDTH 486 0
DWIDTH 6 0
BBX 8 9 -1 -3
BITMAP
04F75F60
08F38F30
0BF0BE00
0EC0EB11
1FB7F871
0BECFB50
008DF200
065DD000
03ED4000
ENDCHAR
STARTCHAR uni0444
ENCODING 1092
SWIDTH 738 0
DWIDTH 9 0
BBX 10 12 -1 -3
BITMAP
0000013000
000009E000
00000DB000
007EAFCCC1
06F64F55F5
0DE07F15F5
1FA0AD08F2
2F91EA1DC0
0AEAFDDB20
0006F30000
0009F00000
0009700000
ENDCHAR
STARTCHAR uni0445
ENCODING 1093
SWIDTH 522 0
DWIDTH 6 0
BBX 7 6 0 0
BITMAP
05DB3A00
258F4C00
705FD200
706F6000
149F8160
3909E800
ENDCHAR
STARTCHAR uni0446
ENCODING 1094
SWIDTH 535 0
DWIDTH 6 0
BBX 7 9 -1 -3
BITMAP
04F75F60
08F38F30
0BF0BE00
0EC0EB00
1FB7FB10
0BE6BD90
00000460
005EFE10
00A98300
ENDCHAR
STARTCHAR uni0447
ENCODING 1095
SWIDTH 505 0
DWIDTH 6 0
BBX 7 6 0 0
BITMAP
5F75F600
8F38F300
AF4EE000
6EBFB030
001FB830
000BE600
ENDCHAR
STARTCHAR uni0448
ENCODING 1096
SWIDTH 752 0
DWIDTH 9 0
BBX 11 6 -1 0
BITMAP
04F75F65F500
08F38F39F200
0BF0BE0CE000
0EC0EB1FB010
1FB7FB8FA630
0BE6BE6CE600
ENDCHAR
STARTCHAR uni0449
ENCODING 1097
SWIDTH 782 0
DWIDTH 9 0
BBX 10 9 -1 -3
BITMAP
04F75F65F5
08F38F39F2
0BF0BE0CE0
0EC0EB1FB0
1FB7FB8FA1
0BE6BE6CD8
0000000046
000008FFE1
00001C9830
ENDCHAR
STARTCHAR uni044A
ENCODING 1098
SWIDTH 448 0
DWIDTH 5 0
BBX 5 6 0 0
BITMAP
8CF300
E9A000
4FCD60
CD0BD0
FA1E90
9EC800
ENDCHAR
STARTCHAR uni044B
ENCODING 1099
SWIDTH 655 0
DWIDTH 8 0
BBX 10 6 -1 0
BITMAP
05F5003D30
08F207EE00
0BE6D5CB00
0EB0B5F800
1F93E5F882
09ED41DE50
ENDCHAR
STARTCHAR uni044C
ENCODING 1100
SWIDTH 448 0
DWIDTH 5 0
BBX 6 6 -1 0
BITMAP
04F700
07F640
0BFAEA
0EC0BD
1FB3F7
09EE80
ENDCHAR
STARTCHAR uni044D
ENCODING 1101
SWIDTH 413 0
DWIDTH 5 0
BBX 6 6 -1 0
BITMAP
04AEB1
0405F6
00ADF6
2209F2
861E90
4CB800
ENDCHAR
STARTCHAR uni044E
ENCODING 1102
SWIDTH 675 0
DWIDTH 8 0
BBX 11 6 -1 0
BITMAP
04F619DC2000
08F3AF4B9740
0BFBFC0A9200
0EB4F80C4000
2F84F73C0000
5F50AEA20000
ENDCHAR
STARTCHAR uni044F
ENCODING 1103
SWIDTH 527 0
DWIDTH 6 0
BBX 8 6 -1 0
BITMAP
004CBFA0
01F72F70
02F66F40
008EDF10
4B58BD07
3DB18E91
ENDCHAR
STARTCHAR uni0450
ENCODING 1104
SWIDTH 384 0
DWIDTH 5 0
BBX 6 10 -1 0
BITMAP
000200
000D30
000750
000000
007DD3
06F695
0DE3D1
1FEA30
2FA016
09EA70
ENDCHAR
STARTCHAR uni0451
ENCODING 1105
SWIDTH 384 0
DWIDTH 5 0
BBX 6 8 -1 0
BITMAP
006B3D
000101
007DD3
06F695
0DE3D1
1FEA30
2FA016
09EA70
ENDCHAR
STARTCHAR uni0452
ENCODING 1106
SWIDTH 491 0
DWIDTH 6 0
BBX 8 12 -1 -3
BITMAP
00580000
00EC0000
09FEB100
05F60000
08FAC800
0BF2BE00
0EC0EC01
2F92F862
5F65FB50
007DF100
056CC000
03CD3000
ENDCHAR
STARTCHAR uni0453
ENCODING 1107
SWIDTH 375 0
DWIDTH 5 0
BBX 6 9 -1 0
BITMAP
0000A7
000390
000000
029EA0
080CF1
018FA0
0BF800
3FA025
1BEA50
ENDCHAR
STARTCHAR uni0454
ENCODING 1108
SWIDTH 384 0
DWIDTH 5 0
BBX 6 6 -1 0
BITMAP
007DD3
06F463
0DEB30
1FA001
2FA026
09EA60
ENDCHAR
STARTCHAR uni0455
ENCODING 1109
SWIDTH 382 0
DWIDTH 5 0
BBX 6 7 -1 0
BITMAP
000010
006F80
00BF90
047FA0
1B1FB0
591FD6
1ADB30
ENDCHAR
STARTCHAR uni0456
ENCODING 1110
SWIDTH 267 0
DWIDTH 3 0
BBX 5 8 -1 0
BITMAP
00BB00
00AA00
04F700
08F300
0BF000
0EC010
1FB560
0BE800
ENDCHAR
STARTCHAR uni0457
ENCODING 1111
SWIDTH 267 0
DWIDTH 3 0
BBX 5 8 -1 0
BITMAP
0A7790
011110
04F700
08F300
0BF000
0EC010
1FB560
0BE800
ENDCHAR
STARTCHAR uni0458
ENCODING 1112
SWIDTH 240 0
DWIDTH 3 0
BBX 7 11 -3 -3
BITMAP
0000CA00
0000B800
0004F700
0007F400
000BF100
000ED000
002F9520
005FB600
07DF3000
57CE0000
3CD40000
ENDCHAR
STARTCHAR uni0459
ENCODING 1113
SWIDTH 745 0
DWIDTH 9 0
BBX 10 6 -1 0
BITMAP
0001BEF100
00085CD320
000C1FECF3
011B4F63F6
5C576F47E2
3CC11CDC40
ENDCHAR
STARTCHAR uni045A
ENCODING 1114
SWIDTH 694 0
DWIDTH 8 0
BBX 9 6 -1 0
BITMAP
04F63F6000
08F37F8710
0BFBEE6EA0
0EB0EB0CC0
2F80F92F60
5F508EC700
ENDCHAR
STARTCHAR uni045B
ENCODING 1115
SWIDTH 505 0
DWIDTH 6 0
BBX 8 9 -1 0
BITMAP
00580000
00EC0000
09FEB100
05F60000
08FAC800
0BF2BE00
0EC0DC00
2F91F924
5F60BD70
ENDCHAR
STARTCHAR uni045C
ENCODING 1116
SWIDTH 501 0
DWIDTH 6 0
BBX 8 9 -1 0
BITMAP
00002D10
0000A300
00000000
04F73B90
07F77110
0BFFF700
0ED2FA01
2F91FA63
5F60BE70
ENDCHAR
STARTCHAR uni045D
ENCODING 1117
SWIDTH 505 0
DWIDTH 6 0
BBX 8 10 -1 0
BITMAP
00021000
000A7000
00039000
00000000
04F75F60
08F38F30
0BF0BE00
0EC0EB01
1FB7FB64
0BE6BE70
ENDCHAR
STARTCHAR uni045E
ENCODING 1118
SWIDTH 486 0
DWIDTH 6 0
BBX 8 12 -1 -3
BITMAP
00020010
006E0730
002BB500
04F75F60
08F38F30
0BF0BE00
0EC0EB11
1FB7F871
0BECFB50
008DF200
065DD000
03ED4000
ENDCHAR
STARTCHAR uni045F
ENCODING 1119
SWIDTH 505 0
DWIDTH 6 0
BBX 8 9 -1 -3
BITMAP
04F75F60
08F38F30
0BF0BE00
0EC0EB01
1FB7FB64
0BE6BE70
000A1000
002F6000
00071000
ENDCHAR
STARTCHAR uni0462
ENCODING 1122
SWIDTH 659 0
DWIDTH 8 0
BBX 8 9 0 0
BITMAP
003F8000
1ADFA113
A6AF8CB1
D3DE0000
74FEAC50
04F90BE0
07F509F1
0AF20CB0
0DD7CC20
ENDCHAR
STARTCHAR uni0463
ENCODING 1123
SWIDTH 692 0
DWIDTH 8 0
BBX 9 6 -1 0
BITMAP
04FCDB0000
08F49F2000
0BE0BFBC50
0EC0EC0CC0
2F90F91E80
5F509EC800
ENDCHAR
STARTCHAR uni046A
ENCODING 1130
SWIDTH 834 0
DWIDTH 10 0
BBX 10 9 0 0
BITMAP
004BEDBBE4
08A5FC0290
3E10EF1A10
5C009FB600
055BBFEBA1
02F75F65F4
07F28F38F2
0AE0CE0CD0
2E80EB0BC0
ENDCHAR
STARTCHAR uni046B
ENCODING 1131
SWIDTH 750 0
DWIDTH 9 0
BBX 8 6 0 0
BITMAP
05CEFBD4
0F29F250
03ABFBB6
08E4F6CC
0CA6F3E9
2E69F1E7
ENDCHAR
STARTCHAR uni0472
ENCODING 1138
SWIDTH 665 0
DWIDTH 8 0
BBX 8 9 0 0
BITMAP
017BBCA1
1C7691E8
986F30BC
B5EC00CC
06FBAAFB
09F304F7
0AF209E1
09F23F50
02CDB500
ENDCHAR
STARTCHAR uni0473
ENCODING 1139
SWIDTH 439 0
DWIDTH 5 0
BBX 8 6 -1 0
BITMAP
007DC300
06F67934
0DE38C40
1FDBE600
2FB3D100
09ED4000
ENDCHAR
STARTCHAR uni0474
ENCODING 1140
SWIDTH 668 0
DWIDTH 8 0
BBX 9 9 0 0
BITMAP
029EB01C80
3C2FC09C00
C60FC0E400
D30FC4C000
110EC86000
000EDB1000
000DDA0000
000DF50000
000DF10000
ENDCHAR
STARTCHAR uni0475
ENCODING 1141
SWIDTH 414 0
DWIDTH 5 0
BBX 6 6 -1 0
BITMAP
04F769
08F30B
0BF039
0EC094
1FB6B0
0BEA10
ENDCHAR
STARTCHAR uni0490
ENCODING 1168
SWIDTH 431 0
DWIDTH 5 0
BBX 8 11 0 0
BITMAP
00000001
0000003A
05AEFFF7
6A5F5110
C58F2000
B4BE0000
01EB0000
03F80000
06F50000
09F20000
0CE00000
ENDCHAR
STARTCHAR uni0491
ENCODING 1169
SWIDTH 342 0
DWIDTH 4 0
BBX 6 7 -1 0
BITMAP
000087
04FDA2
08F300
0BF000
0EC000
2F9000
5F6000
ENDCHAR
STARTCHAR uni0492
ENCODING 1170
SWIDTH 400 0
DWIDTH 5 0
BBX 8 9 0 0
BITMAP
046EDAB4
5A4F7000
B76F5000
C69F2000
33CE0000
08FE9000
03F80000
06F40000
0AF10000
ENDCHAR
STARTCHAR uni0493
ENCODING 1171
SWIDTH 375 0
DWIDTH 5 0
BBX 6 6 -1 0
BITMAP
03AEB0
071DD0
2CEEC3
1DE202
3FA034
0BEA40
ENDCHAR
STARTCHAR uni0494
ENCODING 1172
SWIDTH 665 0
DWIDTH 8 0
BBX 8 9 0 0
BITMAP
036EDAB4
4B4F7000
B77F5000
C6AF3000
75DFBD80
01FC06F4
04F804F5
07F50AD1
0AF6BA20
ENDCHAR
STARTCHAR uni0495
ENCODING 1173
SWIDTH 486 0
DWIDTH 6 0
BBX 8 9 -1 -3
BITMAP
04EBBA10
07F20000
0BFAD500
0ED3FA01
2F92F771
5F66FB50
008DF100
056CB000
04CD3000
ENDCHAR
STARTCHAR uni0496
ENCODING 1174
SWIDTH 777 0
DWIDTH 9 0
BBX 11 13 -1 -4
BITMAP
00AE32B63DB0
009AA7F5D990
0000CAF86000
0000ADDB0000
006ECFDED200
02F84F74F500
06F37F37F200
0AF0BF0BE000
2E90EC0BD000
0000000C5000
0000000EB000
00000006D000
000000022000
ENDCHAR
STARTCHAR uni0497
ENCODING 1175
SWIDTH 882 0
DWIDTH 11 0
BBX 12 9 -1 -3
BITMAP
05BE43F64DD4
050CB6F4E852
000CDEFCF200
130E6DB8F002
694E2F87F126
3CB44F52DD60
000000005A00
000000008F00
000000001500
ENDCHAR
STARTCHAR uni0498
ENCODING 1176
SWIDTH 525 0
DWIDTH 6 0
BBX 7 13 -1 -4
BITMAP
0029CE60
00600ED0
00005F90
001CFA00
00008F60
00004FA0
0B406F80
1F20CE10
08CC9200
005D0000
004F7000
000B6000
00040000
ENDCHAR
STARTCHAR uni0499
ENCODING 1177
SWIDTH 498 0
DWIDTH 6 0
BBX 7 12 0 -6
BITMAP
05BE7000
370BF100
800CF000
704F7010
07FA0430
009F7600
05CF4000
37BE1000
2DE60000
09300000
0D900000
06200000
ENDCHAR
STARTCHAR uni049A
ENCODING 1178
SWIDTH 635 0
DWIDTH 8 0
BBX 9 13 0 -4
BITMAP
018DB1BD10
2C6F8B9B00
A86FA80000
C49FC10000
43CFCB3000
01FB1F9000
04F73F6000
07F47F2000
0AF18F2000
00007B0000
00007F3000
00001D5000
0000050000
ENDCHAR
STARTCHAR uni049B
ENCODING 1179
SWIDTH 501 0
DWIDTH 6 0
BBX 8 9 -1 -3
BITMAP
04F73B90
07F77110
0BFFF700
0ED2FA00
2F91F934
5F60CE60
00005800
00009E00
00002500
ENDCHAR
STARTCHAR uni049C
ENCODING 1180
SWIDTH 721 0
DWIDTH 9 0
BBX 10 9 0 0
BITMAP
029DB02BD1
3D6F71D8B1
B66F9A8000
959FED0000
00CC78D100
01F908F200
04F60CE000
07F30FB000
0AF00DA000
ENDCHAR
STARTCHAR uni049D
ENCODING 1181
SWIDTH 551 0
DWIDTH 7 0
BBX 8 6 -1 0
BITMAP
04F707D5
07FC8210
0BFCEE20
0EF96F30
2FC77F69
5F603ED3
ENDCHAR
STARTCHAR uni04A0
ENCODING 1184
SWIDTH 691 0
DWIDTH 8 0
BBX 9 9 0 0
BITMAP
05ACF64DA0
5B18F5A580
C50CFA2000
D30EE80000
523FEDB100
006F76F400
009F38F100
00CE0CC000
01FB0CC000
ENDCHAR
STARTCHAR uni04A1
ENCODING 1185
SWIDTH 676 0
DWIDTH 8 0
BBX 10 6 -1 0
BITMAP
03BCE72CA0
0E56F7B780
1E29FDA400
011CE5EB00
001FB0FB55
004F70AE90
ENDCHAR
STARTCHAR uni04A2
ENCODING 1186
SWIDTH 665 0
DWIDTH 8 0
BBX 9 11 0 -2
BITMAP
018DB08F30
1C7F80AF00
986F60DC00
C59F31F900
63CFDEF500
01FB07F200
04F80BE000
07F40EB000
0AF13FB100
000003FE60
0000008D20
ENDCHAR
STARTCHAR uni04A3
ENCODING 1187
SWIDTH 507 0
DWIDTH 6 0
BBX 8 9 -1 -3
BITMAP
04F63F60
08F37F30
0BFBEF10
0EB0EC01
2F80FA34
5F50BE70
00005900
00008F00
00001600
ENDCHAR
STARTCHAR uni04A4
ENCODING 1188
SWIDTH 689 0
DWIDTH 8 0
BBX 11 9 0 0
BITMAP
015DB07E9B90
1A5F80AD0000
977F50DA0000
C4AF31F70000
63DFDEF50000
01FB07F20000
04F80BE00000
07F40EB00000
0AF13F800000
ENDCHAR
STARTCHAR uni04A5
ENCODING 1189
SWIDTH 681 0
DWIDTH 8 0
BBX 10 6 -1 0
BITMAP
04F63EBBB2
08F37F2000
0BFBEE0000
0EB0EB0200
2F80FB7300
5F50AE7000
ENDCHAR
STARTCHAR uni04AA
ENCODING 1194
SWIDTH 497 0
DWIDTH 6 0
BBX 7 13 0 -4
BITMAP
005DCB10
04FA0950
0DE10B30
4FA00000
8F600000
AF400000
BF400000
9F700710
3EFCC400
02D70000
00DC0000
006F0000
00250000
ENDCHAR
STARTCHAR uni04AB
ENCODING 1195
SWIDTH 384 0
DWIDTH 5 0
BBX 6 9 -1 -3
BITMAP
007DD3
06F684
0DE000
1FB001
2FB037
09FE70
00B200
00E800
005200
ENDCHAR
STARTCHAR uni04AE
ENCODING 1198
SWIDTH 620 0
DWIDTH 7 0
BBX 9 9 0 0
BITMAP
028DD00920
3C2DF21A00
C609F67400
D305F9A000
1101FF6000
0000EF1000
0002FC0000
0005F90000
0008F50000
ENDCHAR
STARTCHAR uni04AF
ENCODING 1199
SWIDTH 480 0
DWIDTH 6 0
BBX 6 9 0 -3
BITMAP
5F60B4
3F8055
2F90A1
0FB480
0EDA00
0CF300
0EC000
3F8000
351000
ENDCHAR
STARTCHAR uni04B0
ENCODING 1200
SWIDTH 620 0
DWIDTH 7 0
BBX 9 9 0 0
BITMAP
028DD00920
3C2DF21A00
C609F67400
D305F9A000
1101FF6000
0009FF9000
0002FC0000
0005F90000
0008F50000
ENDCHAR
STARTCHAR uni04B1
ENCODING 1201
SWIDTH 480 0
DWIDTH 6 0
BBX 6 9 0 -3
BITMAP
5F60B4
3F8055
2F90A1
0FB480
0EDA00
8FFB10
0EC000
3F8000
351000
ENDCHAR
STARTCHAR uni04B6
ENCODING 1206
SWIDTH 695 0
DWIDTH 8 0
BBX 9 11 0 -2
BITMAP
018DB02F90
1C7F805F60
987F508F20
C58F30BE00
633D52EB00
000003F800
000006F500
00000AF200
00000DE000
000001CD80
0000004E60
ENDCHAR
STARTCHAR uni04B7
ENCODING 1207
SWIDTH 505 0
DWIDTH 6 0
BBX 7 9 0 -3
BITMAP
5F75F600
8F38F300
AF4EE000
6EBFB030
001FB730
000CD500
00069000
0009E000
00025000
ENDCHAR
STARTCHAR uni04B8
ENCODING 1208
SWIDTH 715 0
DWIDTH 9 0
BBX 9 9 0 0
BITMAP
018DB00EC0
2D7F802F90
A76F505F60
C48F208F30
223DBBDE00
000062FB00
000003F800
000006F500
000009F200
ENDCHAR
STARTCHAR uni04B9
ENCODING 1209
SWIDTH 545 0
DWIDTH 7 0
BBX 7 6 0 0
BITMAP
5F70DD00
8F53FA00
AF9BF600
5EECF330
0089F780
0005EB10
ENDCHAR
STARTCHAR uni04BA
ENCODING 1210
SWIDTH 679 0
DWIDTH 8 0
BBX 8 9 0 0
BITMAP
029DB000
3D6F8000
B66F5000
959F1000
00DD16D2
01F904F6
04F607F5
07F30AF2
0AF00DD0
ENDCHAR
STARTCHAR uni04BB
ENCODING 1211
SWIDTH 505 0
DWIDTH 6 0
BBX 8 9 -1 0
BITMAP
00140000
00DD0000
01FA0000
04FCDB00
07F49F20
0BE0BF00
0EC0EC00
2F91F925
5F50BD70
ENDCHAR
STARTCHAR uni04C0
ENCODING 1216
SWIDTH 375 0
DWIDTH 5 0
BBX 5 9 0 0
BITMAP
029EA0
3C6F70
C57F40
D3AF10
11EC00
02F900
05F600
08F300
0CE000
ENDCHAR
STARTCHAR uni04C1
ENCODING 1217
SWIDTH 777 0
DWIDTH 9 0
BBX 11 12 -1 0
BITMAP
000001001000
00000E729000
000008B91000
00AE32B63DB0
009AA7F5D990
0000CAF86000
0000ADDB0000
006ECFDED200
02F84F74F500
06F37F37F200
0AF0BF0BE000
2E90EC0AD000
ENDCHAR
STARTCHAR uni04C2
ENCODING 1218
SWIDTH 882 0
DWIDTH 11 0
BBX 12 9 -1 0
BITMAP
000001001000
00000E729000
000007B91000
05BE43F64DD4
050CB6F4E852
000CDEFCF200
130E6DB8F002
694E2F87F116
3CB44F51CC70
ENDCHAR
STARTCHAR uni04CB
ENCODING 1227
SWIDTH 695 0
DWIDTH 8 0
BBX 9 11 0 -2
BITMAP
028DB02F90
4C5F706F60
C67F409F20
848F30DE00
003DEBFB00
000004F800
000007F500
00000AF100
00205ED000
00AFB21000
0002000000
ENDCHAR
STARTCHAR uni04CC
ENCODING 1228
SWIDTH 516 0
DWIDTH 6 0
BBX 7 9 0 -3
BITMAP
2F83F800
6F56F500
8F5CF200
4ECED030
000FC550
000CF900
00047000
2DFE1000
89830000
ENDCHAR
STARTCHAR uni04CF
ENCODING 1231
SWIDTH 267 0
DWIDTH 3 0
BBX 5 9 -1 0
BITMAP
000100
00CE00
01FB00
04F700
07F400
0BF100
0ED000
1FA360
0BE900
ENDCHAR
STARTCHAR uni04D0
ENCODING 1232
SWIDTH 668 0
DWIDTH 8 0
BBX 10 14 0 -2
BITMAP
0000001001
000004F256
000001AB70
000004AE30
000066CF00
0004B0FC00
2ACEA7F900
C88C08F600
43E709F200
06F20CE000
0AC00FB000
0E903F8000
0E70000000
0340000000
ENDCHAR
STARTCHAR uni04D1
ENCODING 1233
SWIDTH 526 0
DWIDTH 6 0
BBX 8 9 -1 0
BITMAP
00011010
000C8290
0006B920
007DAFA0
06F54F70
0DD07F30
1FB0BF01
2FB3FE37
09E98EA0
ENDCHAR
STARTCHAR uni04D2
ENCODING 1234
SWIDTH 668 0
DWIDTH 8 0
BBX 10 13 0 -2
BITMAP
000000D3C5
0000001010
000004AE30
000066CF00
0004B0FC00
2ACEA7F900
C88C08F600
43E709F200
06F20CE000
0AC00FB000
0E903F8000
0E70000000
0340000000
ENDCHAR
STARTCHAR uni04D3
ENCODING 1235
SWIDTH 526 0
DWIDTH 6 0
BBX 8 8 -1 0
BITMAP
000896B0
00011010
007DAFA0
06F54F70
0DD07F30
1FB0BF01
2FB3FE37
09E98EA0
ENDCHAR
STARTCHAR uni04D4
ENCODING 1236
SWIDTH 764 0
DWIDTH 9 0
BBX 11 11 0 -2
BITMAP
000004BE6150
000067BF9B40
0005C0ED0000
2ACE94F90000
C98C1AFED300
96E709F30000
06F20CF00000
0BC00FC00000
0E903FEBB300
0E7000000000
033000000000
ENDCHAR
STARTCHAR uni04D5
ENCODING 1237
SWIDTH 650 0
DWIDTH 8 0
BBX 9 6 -1 0
BITMAP
007BEADD50
0010AF8680
03BCEF4C30
0ED1FFB400
1F94FD0060
0AE99FB810
ENDCHAR
STARTCHAR uni04D6
ENCODING 1238
SWIDTH 459 0
DWIDTH 6 0
BBX 7 12 0 0
BITMAP
00010010
005F1650
002BB600
005DC700
02F61D00
06F24800
03F70000
07E81000
6FA00000
DF400000
CF402500
4DE95000
ENDCHAR
STARTCHAR uni04D7
ENCODING 1239
SWIDTH 384 0
DWIDTH 5 0
BBX 7 9 -1 0
BITMAP
00110110
00AB1910
005BA300
007DD300
06F69500
0DE3D100
1FEA3000
2FA01600
09EA7000
ENDCHAR
STARTCHAR uni04D8
ENCODING 1240
SWIDTH 544 0
DWIDTH 7 0
BBX 7 9 0 0
BITMAP
04CED500
0B54DF20
01008F60
00008F60
006BEF50
1CC1DE10
8E13F800
BC0BC100
4DC91000
ENDCHAR
STARTCHAR uni04D9
ENCODING 1241
SWIDTH 404 0
DWIDTH 5 0
BBX 5 6 0 0
BITMAP
3ADC20
104F80
07CF90
987F50
E1DC00
ADA100
ENDCHAR
STARTCHAR uni04DC
ENCODING 1244
SWIDTH 777 0
DWIDTH 9 0
BBX 11 11 -1 0
BITMAP
00000987A000
000001101000
00AE32B63DB0
009AA7F5D990
0000CAF86000
0000ADDB0000
006ECFDED200
02F84F74F500
06F37F37F200
0AF0BF0BE000
2E90EC0AD000
ENDCHAR
STARTCHAR uni04DD
ENCODING 1245
SWIDTH 882 0
DWIDTH 11 0
BBX 12 8 -1 0
BITMAP
00000977A000
000001101000
05BE43F64DD4
050CB6F4E852
000CDEFCF200
130E6DB8F002
694E2F87F116
3CB44F51CC70
ENDCHAR
STARTCHAR uni04DE
ENCODING 1246
SWIDTH 525 0
DWIDTH 6 0
BBX 8 11 -1 0
BITMAP
0004D2E1
00001010
0029CE60
00600ED0
00005F90
001CFA00
00008F60
00004FA0
0B406F80
1F20CE20
08CCB300
ENDCHAR
STARTCHAR uni04DF
ENCODING 1247
SWIDTH 498 0
DWIDTH 6 0
BBX 7 11 0 -3
BITMAP
01E2D400
00101000
05BE7000
370BF100
800CF000
704F7010
07FA0440
009F6700
04CF5000
38AE1000
2CD50000
ENDCHAR
STARTCHAR uni04E2
ENCODING 1250
SWIDTH 705 0
DWIDTH 8 0
BBX 9 11 0 0
BITMAP
00008BBB10
0000000000
018DB03FB0
2C5F80BF70
B76F55FF40
C49F2DCF10
11DD78DD00
01FBD2FA00
04FF64F700
07FC08F300
0AF30BF000
ENDCHAR
STARTCHAR uni04E3
ENCODING 1251
SWIDTH 505 0
DWIDTH 6 0
BBX 8 8 -1 0
BITMAP
004BBB50
00000000
04F75F60
08F38F30
0BF0BE00
0EC0EB01
1FB7FB64
0BE6BE70
ENDCHAR
STARTCHAR uni04E4
ENCODING 1252
SWIDTH 705 0
DWIDTH 8 0
BBX 9 11 0 0
BITMAP
00007A4C00
0000010100
018DB03FB0
2C5F80BF70
B76F55FF40
C49F2DCF10
11DD78DD00
01FBD2FA00
04FF64F700
07FC08F300
0AF30BF000
ENDCHAR
STARTCHAR uni04E5
ENCODING 1253
SWIDTH 505 0
DWIDTH 6 0
BBX 8 8 -1 0
BITMAP
002E1D30
00010100
04F75F60
08F38F30
0BF0BE00
0EC0EB01
1FB7FB64
0BE6BE70
ENDCHAR
STARTCHAR uni04E6
ENCODING 1254
SWIDTH 665 0
DWIDTH 8 0
BBX 8 11 0 0
BITMAP
0000A789
00001011
006BBCA1
1C7791E8
996F30BC
B6EC00CC
27F700EB
09F304F7
0AF10AE1
09F35F50
02CEC500
ENDCHAR
STARTCHAR uni04E7
ENCODING 1255
SWIDTH 439 0
DWIDTH 5 0
BBX 8 8 -1 0
BITMAP
001E2D40
00010100
007DC300
06F67934
0DE08C40
1FB09600
2FA1D100
09EB4000
ENDCHAR
STARTCHAR uni04E8
ENCODING 1256
SWIDTH 665 0
DWIDTH 8 0
BBX 8 9 0 0
BITMAP
006BBCA1
1C7791E8
997F30BC
B6EC00CC
17FB99FB
09F304F7
0AF109E1
09F23F50
02CDC500
ENDCHAR
STARTCHAR uni04E9
ENCODING 1257
SWIDTH 439 0
DWIDTH 5 0
BBX 8 6 -1 0
BITMAP
007DC300
06F67934
0FF9FF40
1FB09600
2FA1D100
09EB4000
ENDCHAR
STARTCHAR uni04EE
ENCODING 1262
SWIDTH 644 0
DWIDTH 8 0
BBX 9 11 0 0
BITMAP
00006BBB30
0000000000
018DE00650
2C2CF30B00
B707F64800
C403F9A100
1100EEA000
0000AF4000
00006C0000
0038750000
005E900000
ENDCHAR
STARTCHAR uni04EF
ENCODING 1263
SWIDTH 486 0
DWIDTH 6 0
BBX 8 11 -1 -3
BITMAP
005BBB50
00000000
04F75F60
08F38F30
0BF0BE00
0EC0EB11
1FB7F871
0BECFB50
008DF200
065DD000
03ED4000
ENDCHAR
STARTCHAR uni04F0
ENCODING 1264
SWIDTH 644 0
DWIDTH 8 0
BBX 9 11 0 0
BITMAP
00004C2E10
0000010100
018DE00650
2C2CF30B00
B707F64800
C403F9A100
1100EEA000
0000AF4000
00006C0000
0038750000
005E900000
ENDCHAR
STARTCHAR uni04F1
ENCODING 1265
SWIDTH 486 0
DWIDTH 6 0
BBX 8 11 -1 -3
BITMAP
002D1D30
00010100
04F75F60
08F38F30
0BF0BE00
0EC0EB11
1FB7F871
0BECFB50
008DF200
065DD000
03ED4000
ENDCHAR
STARTCHAR uni04F2
ENCODING 1266
SWIDTH 644 0
DWIDTH 8 0
BBX 9 13 0 0
BITMAP
0000012120
0000097A60
00002A3900
0000000000
018DE00650
2C2CF30B00
B707F64800
C403F9A100
1100EEA000
0000AF4000
00006C0000
0038750000
005E900000
ENDCHAR
STARTCHAR uni04F3
ENCODING 1267
SWIDTH 486 0
DWIDTH 6 0
BBX 8 13 -1 -3
BITMAP
00002120
00079890
001B2B00
00000000
04F75F60
08F38F30
0BF0BE00
0EC0EB11
1FB7F871
0BECFB50
008DF200
065DD000
03ED4000
ENDCHAR
STARTCHAR uni04F4
ENCODING 1268
SWIDTH 695 0
DWIDTH 8 0
BBX 9 11 0 0
BITMAP
00006B4D00
0000010100
018DB02F90
1C7F805F60
987F508F20
C58F30BE00
633D41EB00
000004F800
000007F500
00000AF100
00000DD000
ENDCHAR
STARTCHAR uni04F5
ENCODING 1269
SWIDTH 505 0
DWIDTH 6 0
BBX 7 8 0 0
BITMAP
03D2E200
00101000
5F75F600
8F38F300
AF4EE000
6EBFB030
001FB830
000BE600
ENDCHAR
STARTCHAR uni04F6
ENCODING 1270
SWIDTH 442 0
DWIDTH 5 0
BBX 8 11 0 -2
BITMAP
056ECAB4
794F6000
C67F3000
75AF1000
00DC0000
01F90000
04F60000
07F30000
0AF30000
019EA000
001E9000
ENDCHAR
STARTCHAR uni04F7
ENCODING 1271
SWIDTH 375 0
DWIDTH 5 0
BBX 6 9 -1 -3
BITMAP
029EA0
080CF1
018F90
0BE502
3FB164
1BFC40
01B100
03F500
007100
ENDCHAR
STARTCHAR uni04F8
ENCODING 1272
SWIDTH 909 0
DWIDTH 11 0
BBX 12 11 0 0
BITMAP
000002E2D300
000000101000
018DB00009F2
1C7F80000CE0
986F50000FB0
C59F30003F80
53CFAC706F40
01FB09F2AF10
04F807F3DD00
07F40AD1FA00
0AF6BC34F700
ENDCHAR
STARTCHAR uni04F9
ENCODING 1273
SWIDTH 642 0
DWIDTH 8 0
BBX 9 8 0 0
BITMAP
003A2B1000
0013030000
4D4003C100
7F207ED000
AE6C5DA000
DB0B5F6000
F93E5F7810
9FD42DD400
ENDCHAR
STARTCHAR uni051A
ENCODING 1306
SWIDTH 665 0
DWIDTH 8 0
BBX 8 11 0 -2
BITMAP
006BBCA1
1C7691E8
896F40BC
C6ED00CC
37F700EA
09F303F7
0AF209F2
09F89F70
02CDEC00
00003FD2
00000450
ENDCHAR
STARTCHAR uni051B
ENCODING 1307
SWIDTH 486 0
DWIDTH 6 0
BBX 7 9 -1 -3
BITMAP
007DAFA0
06F64F60
0DE07F30
1FB0AF00
2FA1EC00
09E9F800
0006F500
0009F200
00098000
ENDCHAR
STARTCHAR uni051C
ENCODING 1308
SWIDTH 962 0
DWIDTH 12 0
BBX 13 9 0 0
BITMAP
029EB00CE00930
3C2FC02FE00C00
C60FC07FE05700
D30FC0BDF0A100
110EC29CF1A000
000ED73CF55000
000DDA0BF90000
000DF70BF90000
000DF10BF30000
ENDCHAR
STARTCHAR uni051D
ENCODING 1309
SWIDTH 661 0
DWIDTH 8 0
BBX 9 6 -1 0
BITMAP
04F75F6780
08F38F31B0
0BF0BE0480
0EC0EB0A40
1FB7FA6B00
0BE6BEA100
ENDCHAR
STARTCHAR uni0524
ENCODING 1316
SWIDTH 742 0
DWIDTH 9 0
BBX 10 11 0 -2
BITMAP
069EC9DDB3
794F60CD00
C57F31FA00
74AF03F700
00DC06F400
01F909F100
04F60DE000
07F31FB000
0AF13FA000
000003FE60
0000009D20
ENDCHAR
STARTCHAR uni0525
ENCODING 1317
SWIDTH 505 0
DWIDTH 6 0
BBX 8 9 -1 -3
BITMAP
04FCDC00
08F49F20
0BE0BE00
0EC0EB02
2F91FB73
5F50BE70
00004900
00008F00
00002700
ENDCHAR
STARTCHAR uni1E0C
ENCODING 7692
SWIDTH 663 0
DWIDTH 8 0
BBX 8 12 0 -3
BITMAP
029BCC60
3D6745F4
B77F40F9
D3AF10EB
32DD01F9
01FA03F6
05F608F1
08F32E80
0CEAD900
00000000
007B0000
009D1000
ENDCHAR
STARTCHAR uni1E0D
ENCODING 7693
SWIDTH 525 0
DWIDTH 6 0
BBX 8 12 -1 -3
BITMAP
00000131
00000AF1
00000DD0
007DAFA0
06F64F70
0DE07F40
1FB0AF10
2FA1ED06
09E9AE81
00000000
00990000
00BB0000
ENDCHAR
STARTCHAR uni1E20
ENCODING 7712
SWIDTH 578 0
DWIDTH 7 0
BBX 7 13 0 -2
BITMAP
001BBB80
00000000
006CCC30
08F706B0
3FB00A90
9F500000
BF200940
AF203F40
6F50BF10
08C9CB00
06A4F700
1E18E100
08CB3000
ENDCHAR
STARTCHAR uni1E21
ENCODING 7713
SWIDTH 507 0
DWIDTH 6 0
BBX 8 11 -1 -3
BITMAP
002BBB70
00000000
007DAFA0
06F64F70
0DE07F40
1FB0AF10
2FA1EC25
09EAFC90
004AF700
0299F200
01BE7000
ENDCHAR
STARTCHAR uni1E24
ENCODING 7716
SWIDTH 665 0
DWIDTH 8 0
BBX 9 12 0 -3
BITMAP
018DB08F30
1DAF80AF00
9A5F60DC00
C58F31F900
63CFDEF600
00FB07F200
04F80BE000
07F40EB000
0AF13F8000
0000000000
003C300000
005E400000
ENDCHAR
STARTCHAR uni1E25
ENCODING 7717
SWIDTH 505 0
DWIDTH 6 0
BBX 8 12 -1 -3
BITMAP
00140000
00DD0000
01FA0000
04FCDB00
07F49F20
0BE0BF00
0EC0EC00
2F91F925
5F50BD70
00000000
00A80000
00DA0000
ENDCHAR
STARTCHAR uni1E2A
ENCODING 7722
SWIDTH 665 0
DWIDTH 8 0
BBX 9 12 0 -3
BITMAP
018DB08F30
1DAF80AF00
9A5F60DC00
C58F31F900
63CFDEF600
00FB07F200
04F80BE000
07F40EB000
0AF13F8000
0000000000
0480560000
01AA810000
ENDCHAR
STARTCHAR uni1E2B
ENCODING 7723
SWIDTH 505 0
DWIDTH 6 0
BBX 8 12 -1 -3
BITMAP
00140000
00DD0000
01FA0000
04FCDB00
07F49F20
0BE0BF00
0EC0EC00
2F91F925
5F50BD70
00000000
0A11A000
06B93000
ENDCHAR
STARTCHAR uni1E36
ENCODING 7734
SWIDTH 379 0
DWIDTH 5 0
BBX 8 12 0 -3
BITMAP
029EA000
3C6F7000
C57F3000
C3BF0000
11EC0000
02F90000
06F50000
09F20000
0CF40000
015DB400
1B61BFEB
1E8008E7
ENDCHAR
STARTCHAR uni1E37
ENCODING 7735
SWIDTH 293 0
DWIDTH 4 0
BBX 4 12 0 -3
BITMAP
0011
07F3
0BF0
0EC0
2F90
6F50
9F20
BF18
7EB2
0000
B700
D900
ENDCHAR
STARTCHAR uni1E42
ENCODING 7746
SWIDTH 787 0
DWIDTH 9 0
BBX 10 12 0 -3
BITMAP
004AF804F9
06A7F70AF6
1F1CF72FF4
1E3EF68FF2
018AF6DCF0
00D6FA9DD0
04A5FF3FB0
0A56FC2F90
1D07F64F70
0000000000
0009900000
000BB00000
ENDCHAR
STARTCHAR uni1E43
ENCODING 7747
SWIDTH 752 0
DWIDTH 9 0
BBX 11 9 -1 -3
BITMAP
04FCDC8DB000
08F49F49F100
0BE0CE0BE000
0EC0FB0EB000
2F93F81F9340
5F56F50BD700
000000000000
0008B0000000
000AD0000000
ENDCHAR
STARTCHAR uni1E44
ENCODING 7748
SWIDTH 668 0
DWIDTH 8 0
BBX 9 12 0 0
BITMAP
000004C200
000005E300
0000000000
04BFA00A80
5C5FE00D40
C67FF31F10
D4ACF64D00
23D5FA7900
02F1CDA600
05C09FE300
08905FE000
0C502FB000
ENDCHAR
STARTCHAR uni1E45
ENCODING 7749
SWIDTH 505 0
DWIDTH 6 0
BBX 8 9 -1 0
BITMAP
0002E600
0002C500
00000000
04FCDB00
08F49F20
0BE0BF00
0EC0EC00
2F91F925
5F50BD70
ENDCHAR
STARTCHAR uni1E46
ENCODING 7750
SWIDTH 668 0
DWIDTH 8 0
BBX 9 12 0 -3
BITMAP
04BFA00A80
5C5FE00D40
C67FF31F10
D4ACF64D00
23D5FA7900
02F1CDA600
05C09FE300
08905FE000
0C502FB000
0000000000
002C400000
003E500000
ENDCHAR
STARTCHAR uni1E47
ENCODING 7751
SWIDTH 505 0
DWIDTH 6 0
BBX 8 9 -1 -3
BITMAP
04FCDB00
08F49F20
0BE0BF00
0EC0EC00
2F91F925
5F50BD70
00000000
00990000
00BB0000
ENDCHAR
STARTCHAR uni1E5A
ENCODING 7770
SWIDTH 601 0
DWIDTH 7 0
BBX 7 12 0 -3
BITMAP
018CBC30
2D6846D0
A77F46E0
D3AF2C60
52DFEE30
01FA2F80
05F74F50
08F38F10
0CE08F10
00000000
004C2000
005E3000
ENDCHAR
STARTCHAR uni1E5B
ENCODING 7771
SWIDTH 376 0
DWIDTH 5 0
BBX 6 9 -1 -3
BITMAP
04FBD7
08F686
0BF000
0EC000
2F9000
5F6000
000000
5C2000
6E3000
ENDCHAR
STARTCHAR uni1E60
ENCODING 7776
SWIDTH 570 0
DWIDTH 7 0
BBX 7 12 0 0
BITMAP
00009900
0000BB00
00000000
004CCC20
01FA0990
02FB0A50
00AF7000
001CF500
19A2EE00
7E20AF20
7D01DC00
1ACDA200
ENDCHAR
STARTCHAR uni1E61
ENCODING 7777
SWIDTH 382 0
DWIDTH 5 0
BBX 6 9 -1 0
BITMAP
000BB0
0009A0
000220
007F80
00BF90
056FA0
1C1FB0
5A1FD6
1ADB30
ENDCHAR
STARTCHAR uni1E62
ENCODING 7778
SWIDTH 570 0
DWIDTH 7 0
BBX 7 12 0 -3
BITMAP
004CCC20
01FA0990
02FB0A50
00AF7000
001CF500
19A2EE00
7E20AF20
7D01DC00
1ACDA200
00000000
04C20000
05E30000
ENDCHAR
STARTCHAR uni1E63
ENCODING 7779
SWIDTH 382 0
DWIDTH 5 0
BBX 6 10 -1 -3
BITMAP
000010
006F80
00BF90
047FA0
1B1FB0
591FD6
1ADB30
000000
0B8000
0DA000
ENDCHAR
STARTCHAR uni1E6C
ENCODING 7788
SWIDTH 481 0
DWIDTH 6 0
BBX 9 12 0 -3
BITMAP
05ACEA3150
6B18FAAA20
C50CF10000
D30EC00000
213F900000
006F600000
009F200000
00CE000000
00FB000000
0000000000
03C3000000
04E4000000
ENDCHAR
STARTCHAR uni1E6D
ENCODING 7789
SWIDTH 267 0
DWIDTH 3 0
BBX 5 11 -1 -3
BITMAP
009A00
01FA00
08FD20
07F400
0AF100
0EC010
1FB460
0BE800
000000
5C2000
6E3000
ENDCHAR
STARTCHAR Wgrave
ENCODING 7808
SWIDTH 962 0
DWIDTH 12 0
BBX 13 12 0 0
BITMAP
0000000D400000
00000008700000
00000001100000
029EB00CE00930
3C2FC02FE00C00
C60FC07FE05700
D30FC0BDF0A100
110EC29CF1A000
000ED73CF55000
000DDA0BF90000
000DF70BF90000
000DF10BF30000
ENDCHAR
STARTCHAR wgrave
ENCODING 7809
SWIDTH 661 0
DWIDTH 8 0
BBX 9 9 -1 0
BITMAP
0000B70000
0000690000
0000020000
04F75F6780
08F38F31B0
0BF0BE0480
0EC0EB0A40
1FB7FA6B00
0BE6BEA100
ENDCHAR
STARTCHAR Wacute
ENCODING 7810
SWIDTH 962 0
DWIDTH 12 0
BBX 13 12 0 0
BITMAP
000000004D0000
00000000B40000
00000000600000
029EB00CE00930
3C2FC02FE00C00
C60FC07FE05700
D30FC0BDF0A100
110EC29CF1A000
000ED73CF55000
000DDA0BF90000
000DF70BF90000
000DF10BF30000
ENDCHAR
STARTCHAR wacute
ENCODING 7811
SWIDTH 661 0
DWIDTH 8 0
BBX 9 9 -1 0
BITMAP
000002E200
0000088000
0000061000
04F75F6780
08F38F31B0
0BF0BE0480
0EC0EB0A40
1FB7FA6B00
0BE6BEA100
ENDCHAR
STARTCHAR Wdieresis
ENCODING 7812
SWIDTH 962 0
DWIDTH 12 0
BBX 13 11 0 0
BITMAP
0000007A4C0000
00000001010000
029EB00CE00930
3C2FC02FE00C00
C60FC07FE05700
D30FC0BDF0A100
110EC29CF1A000
000ED73CF55000
000DDA0BF90000
000DF70BF90000
000DF10BF30000
ENDCHAR
STARTCHAR wdieresis
ENCODING 7813
SWIDTH 661 0
DWIDTH 8 0
BBX 9 8 -1 0
BITMAP
0003D1E200
0000101000
04F75F6780
08F38F31B0
0BF0BE0480
0EC0EB0A40
1FB7FA6B00
0BE6BEA100
ENDCHAR
STARTCHAR uni1E8E
ENCODING 7822
SWIDTH 620 0
DWIDTH 7 0
BBX 9 12 0 0
BITMAP
000006C100
000007E200
0000000000
028DD00920
3C2DF21A00
C609F67400
D305F9A000
1101FF6000
0000EF1000
0002FC0000
0005F90000
0008F50000
ENDCHAR
STARTCHAR uni1E8F
ENCODING 7823
SWIDTH 505 0
DWIDTH 6 0
BBX 8 12 -1 -3
BITMAP
0004E400
0003C300
00000000
04F75F60
08F38F30
0BF0BE00
0EC0EB11
1FB7F871
0BECFB50
008DF200
065DD000
03ED4000
ENDCHAR
STARTCHAR uni1E92
ENCODING 7826
SWIDTH 542 0
DWIDTH 7 0
BBX 7 15 0 -3
BITMAP
00000540
00002D10
00004300
08CBEF60
0D41ED00
0009F600
002FD000
009F5000
02FD0000
09F50000
2FD03D00
9FDBC800
00000000
03C40000
04E50000
ENDCHAR
STARTCHAR uni1E93
ENCODING 7827
SWIDTH 428 0
DWIDTH 5 0
BBX 5 9 0 -3
BITMAP
1BBFD0
396F40
01EB00
08F300
2F9560
BFCC40
000000
4C2000
5E3000
ENDCHAR
STARTCHAR uni1E97
ENCODING 7831
SWIDTH 267 0
DWIDTH 3 0
BBX 6 10 -1 0
BITMAP
03D3D1
003310
00EC00
01FA00
08FD20
07F400
0AF100
0EC010
1FB460
0BE800
ENDCHAR
STARTCHAR uni1E9E
ENCODING 7838
SWIDTH 559 0
DWIDTH 7 0
BBX 9 12 -1 -3
BITMAP
0008ECFE10
004F65F700
00AF1DE100
00EC6F7000
03F86F3000
06F50DB000
09F20BE000
0CD00DB000
1FA9DB2000
3F70000000
7F30000000
6700000000
ENDCHAR
STARTCHAR uni1EA0
ENCODING 7840
SWIDTH 668 0
DWIDTH 8 0
BBX 9 12 0 -3
BITMAP
000002BE30
00002DDF10
0000C6CC00
0006B0F900
3ACEA7F600
C89B08F300
02F50BE000
08E10EB000
0CA03F8000
0E80000000
0553C30000
0005E40000
ENDCHAR
STARTCHAR uni1EA1
ENCODING 7841
SWIDTH 526 0
DWIDTH 6 0
BBX 8 9 -1 -3
BITMAP
007DAFA0
06F54F70
0DD07F30
1FB0BF01
2FB3FE37
09E98EA0
00000000
00990000
00BB0000
ENDCHAR
STARTCHAR uni1EA2
ENCODING 7842
SWIDTH 668 0
DWIDTH 8 0
BBX 9 14 0 -2
BITMAP
0000004C80
00000000B0
0000000910
000004AE30
000066CF00
0004B0FC00
2ACEA7F900
C88C08F600
43E709F200
06F20CE000
0AC00FB000
0E903F8000
0E70000000
0340000000
ENDCHAR
STARTCHAR uni1EA3
ENCODING 7843
SWIDTH 526 0
DWIDTH 6 0
BBX 8 9 -1 0
BITMAP
00008C50
00005710
00000000
007DAFA0
06F54F70
0DD07F30
1FB0BF01
2FB3FE37
09E98EA0
ENDCHAR
STARTCHAR uni1EA4
ENCODING 7844
SWIDTH 668 0
DWIDTH 8 0
BBX 11 14 0 -2
BITMAP
000000000A10
000000198800
000000514000
000004AE3000
000066CF0000
0004B0FC0000
2ACEA7F90000
C88C08F60000
43E709F20000
06F20CE00000
0AC00FB00000
0E903F800000
0E7000000000
034000000000
ENDCHAR
STARTCHAR uni1EA5
ENCODING 7845
SWIDTH 526 0
DWIDTH 6 0
BBX 9 11 -1 0
BITMAP
0000000710
0000004900
00003A3100
0004991000
0001000000
007DAFA000
06F54F7000
0DD07F3000
1FB0BF0100
2FB3FE3700
09E98EA000
ENDCHAR
STARTCHAR uni1EA6
ENCODING 7846
SWIDTH 668 0
DWIDTH 8 0
BBX 10 14 0 -2
BITMAP
0000000139
0000002A77
0000005040
000004AE30
000066CF00
0004B0FC00
2ACEA7F900
C88C08F600
43E709F200
06F20CE000
0AC00FB000
0E903F8000
0E70000000
0340000000
ENDCHAR
STARTCHAR uni1EA7
ENCODING 7847
SWIDTH 526 0
DWIDTH 6 0
BBX 8 10 -1 0
BITMAP
000000B2
00003A65
0003AA10
00020010
007DAFA0
06F54F70
0DD07F30
1FB0BF01
2FB3FE37
09E98EA0
ENDCHAR
STARTCHAR uni1EA8
ENCODING 7848
SWIDTH 668 0
DWIDTH 8 0
BBX 11 14 0 -2
BITMAP
000000003A20
0000001B7C20
000000514100
000004AE3000
000066CF0000
0004B0FC0000
2ACEA7F90000
C88C08F60000
43E709F20000
06F20CE00000
0AC00FB00000
0E903F800000
0E7000000000
034000000000
ENDCHAR
STARTCHAR uni1EA9
ENCODING 7849
SWIDTH 526 0
DWIDTH 6 0
BBX 8 10 -1 0
BITMAP
00000087
00003A75
00049810
00010000
007DAFA0
06F54F70
0DD07F30
1FB0BF01
2FB3FE37
09E98EA0
ENDCHAR
STARTCHAR uni1EAA
ENCODING 7850
SWIDTH 668 0
DWIDTH 8 0
BBX 10 14 0 -2
BITMAP
0000003DB3
0000002980
0000005040
000004AE30
000066CF00
0004B0FC00
2ACEA7F900
C88C08F600
43E709F200
06F20CE000
0AC00FB000
0E903F8000
0E70000000
0340000000
ENDCHAR
STARTCHAR uni1EAB
ENCODING 7851
SWIDTH 526 0
DWIDTH 6 0
BBX 8 10 -1 0
BITMAP
00005971
00003A00
00049910
00010000
007DAFA0
06F54F70
0DD07F30
1FB0BF01
2FB3FE37
09E98EA0
ENDCHAR
STARTCHAR uni1EAC
ENCODING 7852
SWIDTH 668 0
DWIDTH 8 0
BBX 10 15 0 -3
BITMAP
0000000140
0000003CB0
0000015031
000002BE30
00002DDF10
0000C6CC00
0006B0F900
3ACEA7F600
C89B08F300
02F50BE000
08E10EB000
0CA03F8000
0E80000000
0553C30000
0005E40000
ENDCHAR
STARTCHAR uni1EAD
ENCODING 7853
SWIDTH 526 0
DWIDTH 6 0
BBX 8 12 -1 -3
BITMAP
00003B00
0004BA20
00030120
007DAFA0
06F54F70
0DD07F30
1FB0BF01
2FB3FE37
09E98EA0
00000000
00990000
00BB0000
ENDCHAR
STARTCHAR uni1EAE
ENCODING 7854
SWIDTH 668 0
DWIDTH 8 0
BBX 10 14 0 -2
BITMAP
00000002B0
0000008784
0000007981
000004AE30
000066CF00
0004B0FC00
2ACEA7F900
C88C08F600
43E709F200
06F20CE000
0AC00FB000
0E903F8000
0E70000000
0340000000
ENDCHAR
STARTCHAR uni1EAF
ENCODING 7855
SWIDTH 526 0
DWIDTH 6 0
BBX 8 10 -1 0
BITMAP
00000C20
00003800
0008A950
00000000
007DAFA0
06F54F70
0DD07F30
1FB0BF01
2FB3FE37
09E98EA0
ENDCHAR
STARTCHAR uni1EB0
ENCODING 7856
SWIDTH 668 0
DWIDTH 8 0
BBX 10 14 0 -2
BITMAP
0000000D00
0000008854
0000007981
000004AE30
000066CF00
0004B0FC00
2ACEA7F900
C88C08F600
43E709F200
06F20CE000
0AC00FB000
0E903F8000
0E70000000
0340000000
ENDCHAR
STARTCHAR uni1EB1
ENCODING 7857
SWIDTH 526 0
DWIDTH 6 0
BBX 8 10 -1 0
BITMAP
0000B200
00005300
00089850
00000000
007DAFA0
06F54F70
0DD07F30
1FB0BF01
2FB3FE37
09E98EA0
ENDCHAR
STARTCHAR uni1EB2
ENCODING 7858
SWIDTH 668 0
DWIDTH 8 0
BBX 10 14 0 -2
BITMAP
0000000960
0000006984
0000008C91
000004AE30
000066CF00
0004B0FC00
2ACEA7F900
C88C08F600
43E709F200
06F20CE000
0AC00FB000
0E903F8000
0E70000000
0340000000
ENDCHAR
STARTCHAR uni1EB3
ENCODING 7859
SWIDTH 526 0
DWIDTH 6 0
BBX 8 10 -1 0
BITMAP
00006A00
00005800
0008A850
00000000
007DAFA0
06F54F70
0DD07F30
1FB0BF01
2FB3FE37
09E98EA0
ENDCHAR
STARTCHAR uni1EB4
ENCODING 7860
SWIDTH 668 0
DWIDTH 8 0
BBX 10 14 0 -2
BITMAP
0000006E92
0000008044
0000007981
000004AE30
000066CF00
0004B0FC00
2ACEA7F900
C88C08F600
43E709F200
06F20CE000
0AC00FB000
0E903F8000
0E70000000
0340000000
ENDCHAR
STARTCHAR uni1EB5
ENCODING 7861
SWIDTH 526 0
DWIDTH 6 0
BBX 8 10 -1 0
BITMAP
00006A60
00000000
00079860
00000000
007DAFA0
06F54F70
0DD07F30
1FB0BF01
2FB3FE37
09E98EA0
ENDCHAR
STARTCHAR uni1EB6
ENCODING 7862
SWIDTH 668 0
DWIDTH 8 0
BBX 10 14 0 -3
BITMAP
0000059049
000001AA91
000002BE30
00002DDF10
0000C6CC00
0006B0F900
3ACEA7F600
C89B08F300
02F50BE000
08E10EB000
0CA03F8000
0E80000000
0553C30000
0005E40000
ENDCHAR
STARTCHAR uni1EB7
ENCODING 7863
SWIDTH 526 0
DWIDTH 6 0
BBX 8 12 -1 -3
BITMAP
002E00E1
000E25A0
0005B910
007DAFA0
06F54F70
0DD07F30
1FB0BF01
2FB3FE37
09E98EA0
00000000
00990000
00BB0000
ENDCHAR
STARTCHAR uni1EB8
ENCODING 7864
SWIDTH 459 0
DWIDTH 6 0
BBX 6 12 0 -3
BITMAP
005DC7
02F61D
06F248
03F700
07E810
6FA000
DF4000
CF4025
4DE950
000000
0B7000
1D9000
ENDCHAR
STARTCHAR uni1EB9
ENCODING 7865
SWIDTH 384 0
DWIDTH 5 0
BBX 6 9 -1 -3
BITMAP
007DD3
06F695
0DE3D1
1FEA30
2FA016
09EA70
000000
06B100
08E100
ENDCHAR
STARTCHAR uni1EBA
ENCODING 7866
SWIDTH 459 0
DWIDTH 6 0
BBX 6 12 0 0
BITMAP
0003BA
000094
000000
005DC7
02F61D
06F248
03F700
07E810
6FA000
DF4000
CF4025
4DE950
ENDCHAR
STARTCHAR uni1EBB
ENCODING 7867
SWIDTH 384 0
DWIDTH 5 0
BBX 6 9 -1 0
BITMAP
0007C6
000471
000000
007DD3
06F695
0DE3D1
1FEA30
2FA016
09EA70
ENDCHAR
STARTCHAR uni1EBC
ENCODING 7868
SWIDTH 459 0
DWIDTH 6 0
BBX 8 11 0 0
BITMAP
0015CEA1
00000000
005DC700
02F61D00
06F24800
03F70000
07E81000
6FA00000
DF400000
CF402500
4DE95000
ENDCHAR
STARTCHAR uni1EBD
ENCODING 7869
SWIDTH 384 0
DWIDTH 5 0
BBX 7 8 -1 0
BITMAP
01AFD910
00024100
007DD300
06F69500
0DE3D100
1FEA3000
2FA01600
09EA7000
ENDCHAR
STARTCHAR uni1EBE
ENCODING 7870
SWIDTH 459 0
DWIDTH 6 0
BBX 8 12 0 0
BITMAP
000032A1
00068930
00000000
005DC700
02F61D00
06F24800
03F70000
07E81000
6FA00000
DF400000
CF402500
4DE95000
ENDCHAR
STARTCHAR uni1EBF
ENCODING 7871
SWIDTH 384 0
DWIDTH 5 0
BBX 8 11 -1 0
BITMAP
00000034
000000C1
0000A330
00197600
00100100
007DD300
06F69500
0DE3D100
1FEA3000
2FA01600
09EA7000
ENDCHAR
STARTCHAR uni1EC0
ENCODING 7872
SWIDTH 459 0
DWIDTH 6 0
BBX 7 12 0 0
BITMAP
00001390
0002A770
00050400
005DC700
02F61D00
06F24800
03F70000
07E81000
6FA00000
DF400000
CF402500
4DE95000
ENDCHAR
STARTCHAR uni1EC1
ENCODING 7873
SWIDTH 384 0
DWIDTH 5 0
BBX 7 10 -1 0
BITMAP
00000490
0000A3A0
00098600
00110100
007DD300
06F69500
0DE3D100
1FEA3000
2FA01600
09EA7000
ENDCHAR
STARTCHAR uni1EC2
ENCODING 7874
SWIDTH 459 0
DWIDTH 6 0
BBX 8 12 0 0
BITMAP
000001A4
0001B7B4
00051410
005DC700
02F61D00
06F24800
03F70000
07E81000
6FA00000
DF400000
CF402500
4DE95000
ENDCHAR
STARTCHAR uni1EC3
ENCODING 7875
SWIDTH 384 0
DWIDTH 5 0
BBX 7 10 -1 0
BITMAP
000006A0
0000A780
00196600
00100100
007DD300
06F69500
0DE3D100
1FEA3000
2FA01600
09EA7000
ENDCHAR
STARTCHAR uni1EC4
ENCODING 7876
SWIDTH 459 0
DWIDTH 6 0
BBX 7 12 0 0
BITMAP
0001AB30
00068800
00000000
005DC700
02F61D00
06F24800
03F70000
07E81000
6FA00000
DF400000
CF402500
4DE95000
ENDCHAR
STARTCHAR uni1EC5
ENCODING 7877
SWIDTH 384 0
DWIDTH 5 0
BBX 7 10 -1 0
BITMAP
00028920
0000A200
00197600
00100100
007DD300
06F69500
0DE3D100
1FEA3000
2FA01600
09EA7000
ENDCHAR
STARTCHAR uni1EC6
ENCODING 7878
SWIDTH 459 0
DWIDTH 6 0
BBX 6 15 0 -3
BITMAP
000032
0005C9
002404
005DC7
02F61D
06F248
03F700
07E810
6FA000
DF4000
CF4025
4DE950
000000
0B7000
1D9000
ENDCHAR
STARTCHAR uni1EC7
ENCODING 7879
SWIDTH 384 0
DWIDTH 5 0
BBX 6 12 -1 -3
BITMAP
0001B3
001A88
003102
007DD3
06F695
0DE3D1
1FEA30
2FA016
09EA70
000000
06B100
08E100
ENDCHAR
STARTCHAR uni1EC8
ENCODING 7880
SWIDTH 375 0
DWIDTH 5 0
BBX 6 12 0 0
BITMAP
0008C3
000066
000550
029EA0
3C6F70
C57F40
D3AF10
11EC00
02F900
05F600
08F300
0CE000
ENDCHAR
STARTCHAR uni1EC9
ENCODING 7881
SWIDTH 267 0
DWIDTH 3 0
BBX 5 9 -1 0
BITMAP
009C30
006610
000000
04F700
08F300
0BF000
0EC010
1FB560
0BE800
ENDCHAR
STARTCHAR uni1ECA
ENCODING 7882
SWIDTH 375 0
DWIDTH 5 0
BBX 5 12 0 -3
BITMAP
029EA0
3C6F70
C57F40
D3AF10
11EC00
02F900
05F600
08F300
0CE000
000000
2C5000
2E6000
ENDCHAR
STARTCHAR uni1ECB
ENCODING 7883
SWIDTH 267 0
DWIDTH 3 0
BBX 5 11 -1 -3
BITMAP
00BB00
00AA00
04F700
08F300
0BF000
0EC010
1FB560
0BE800
000000
5C2000
6E3000
ENDCHAR
STARTCHAR uni1ECC
ENCODING 7884
SWIDTH 665 0
DWIDTH 8 0
BBX 8 12 0 -3
BITMAP
006BBCA1
1C7791E8
996F30BC
B6EC00CC
27F700EB
09F304F7
0AF10AE1
09F35F50
02CEC500
00000000
008B0000
00AD0000
ENDCHAR
STARTCHAR uni1ECD
ENCODING 7885
SWIDTH 433 0
DWIDTH 5 0
BBX 8 9 -1 -3
BITMAP
007DC300
06F58834
0ED09B40
2FA0A500
3F91D100
0AEB3000
00000000
06B10000
08E10000
ENDCHAR
STARTCHAR uni1ECE
ENCODING 7886
SWIDTH 665 0
DWIDTH 8 0
BBX 8 12 0 0
BITMAP
00002B90
000000C0
00000820
006BBCA1
1C7791E8
996F30BC
B6EC00CC
27F700EB
09F304F7
0AF10AE1
09F35F50
02CEC500
ENDCHAR
STARTCHAR uni1ECF
ENCODING 7887
SWIDTH 433 0
DWIDTH 5 0
BBX 8 9 -1 0
BITMAP
0004BA00
00019300
00000000
007DC300
06F58834
0ED09B40
2FA0A500
3F91D100
0AEB3000
ENDCHAR
STARTCHAR uni1ED0
ENCODING 7888
SWIDTH 665 0
DWIDTH 8 0
BBX 9 12 0 0
BITMAP
0000022A10
0000299300
0000504000
006BBCA100
1C7791E800
996F30BC00
B6EC00CC00
27F700EB00
09F304F700
0AF10AE100
09F35F5000
02CEC50000
ENDCHAR
STARTCHAR uni1ED1
ENCODING 7889
SWIDTH 433 0
DWIDTH 5 0
BBX 8 11 -1 0
BITMAP
00000034
000000C1
0000A330
00197600
00100100
007DC300
06F58834
0ED09B40
2FA0A500
3F91D100
0AEB3000
ENDCHAR
STARTCHAR uni1ED2
ENCODING 7890
SWIDTH 665 0
DWIDTH 8 0
BBX 8 12 0 0
BITMAP
00000139
00002A77
00005040
006BBCA1
1C7791E8
996F30BC
B6EC00CC
27F700EB
09F304F7
0AF10AE1
09F35F50
02CEC500
ENDCHAR
STARTCHAR uni1ED3
ENCODING 7891
SWIDTH 433 0
DWIDTH 5 0
BBX 8 10 -1 0
BITMAP
00000490
0000A3A0
00098600
00110100
007DC300
06F58834
0ED09B40
2FA0A500
3F91D100
0AEB3000
ENDCHAR
STARTCHAR uni1ED4
ENCODING 7892
SWIDTH 665 0
DWIDTH 8 0
BBX 9 12 0 0
BITMAP
0000001A40
00001B7A40
0000514100
006BBCA100
1C7791E800
996F30BC00
B6EC00CC00
27F700EB00
09F304F700
0AF10AE100
09F35F5000
02CEC50000
ENDCHAR
STARTCHAR uni1ED5
ENCODING 7893
SWIDTH 433 0
DWIDTH 5 0
BBX 8 10 -1 0
BITMAP
000005A0
0000A6A0
000AA700
00110200
007DC300
06F58834
0ED09B40
2FA0A500
3F91D100
0AEB3000
ENDCHAR
STARTCHAR uni1ED6
ENCODING 7894
SWIDTH 665 0
DWIDTH 8 0
BBX 8 12 0 0
BITMAP
00003DB3
00001980
00005040
006BBCA1
1C7791E8
996F30BC
B6EC00CC
27F700EB
09F304F7
0AF10AE1
09F35F50
02CEC500
ENDCHAR
STARTCHAR uni1ED7
ENCODING 7895
SWIDTH 433 0
DWIDTH 5 0
BBX 8 10 -1 0
BITMAP
00027730
0000A200
00197600
00100100
007DC300
06F58834
0ED09B40
2FA0A500
3F91D100
0AEB3000
ENDCHAR
STARTCHAR uni1ED8
ENCODING 7896
SWIDTH 665 0
DWIDTH 8 0
BBX 8 15 0 -3
BITMAP
00000410
00007C60
00033040
006BBCA1
1C7791E8
996F30BC
B6EC00CC
27F700EB
09F304F7
0AF10AE1
09F35F50
02CEC500
00000000
008B0000
00AD0000
ENDCHAR
STARTCHAR uni1ED9
ENCODING 7897
SWIDTH 433 0
DWIDTH 5 0
BBX 8 12 -1 -3
BITMAP
0001C100
002B9600
00300200
007DC300
06F58834
0ED09B40
2FA0A500
3F91D100
0AEB3000
00000000
06B10000
08E10000
ENDCHAR
STARTCHAR uni1EDA
ENCODING 7898
SWIDTH 665 0
DWIDTH 8 0
BBX 9 12 0 0
BITMAP
000005C000
00000C4340
0000160790
006BBC8B30
1C7791E800
996F30BC00
B6EC00CD00
27F700EB00
09F304F700
0AF10AE100
09F35F6000
02CEC50000
ENDCHAR
STARTCHAR uni1EDB
ENCODING 7899
SWIDTH 439 0
DWIDTH 5 0
BBX 7 9 -1 0
BITMAP
00008A00
0001D370
000133B0
006DCB40
06F65900
0DE06900
2FB09700
1FA1D100
08EA3000
ENDCHAR
STARTCHAR uni1EDC
ENCODING 7900
SWIDTH 665 0
DWIDTH 8 0
BBX 9 12 0 0
BITMAP
0003E00000
0000D20460
0000200790
006BBC8B30
1C7791E900
996F30BC00
B6EC00CD00
27F700EB00
09F304F700
0AF10AE100
09F35F6000
02CEC50000
ENDCHAR
STARTCHAR uni1EDD
ENCODING 7901
SWIDTH 439 0
DWIDTH 5 0
BBX 7 9 -1 0
BITMAP
000A7000
0005A290
000023B0
006DCB30
06F65900
0DE06900
2FB09700
1FA1D100
08EA3000
ENDCHAR
STARTCHAR uni1EDE
ENCODING 7902
SWIDTH 665 0
DWIDTH 8 0
BBX 9 12 0 0
BITMAP
00002B9000
000000C000
0000082580
006BBC8B40
1C7791E900
996F30BC00
B6EC00CD00
27F700EB00
09F304F700
0AF10AE100
09F35F6000
02CEC50000
ENDCHAR
STARTCHAR uni1EDF
ENCODING 7903
SWIDTH 439 0
DWIDTH 5 0
BBX 7 9 -1 0
BITMAP
0004BA00
000195A0
000003B0
006DCB30
06F65900
0DE06900
2FB09700
1FA1D100
08EA3000
ENDCHAR
STARTCHAR uni1EE0
ENCODING 7904
SWIDTH 665 0
DWIDTH 8 0
BBX 9 11 0 0
BITMAP
0008EC7240
0001472790
006BBC8B30
1C7791E800
996F30BC00
B6EC00CD00
27F700EB00
09F304F700
0AF10AE100
09F35F6000
02CEC50000
ENDCHAR
STARTCHAR uni1EE1
ENCODING 7905
SWIDTH 439 0
DWIDTH 5 0
BBX 7 8 -1 0
BITMAP
008EB470
000223B0
006DCB30
06F55900
0DE06900
2FB0A700
1FB4E100
08EC3000
ENDCHAR
STARTCHAR uni1EE2
ENCODING 7906
SWIDTH 665 0
DWIDTH 8 0
BBX 9 13 0 -3
BITMAP
0000000690
006BBC8B40
1C7791E900
996F30BC00
B6EC00CD00
27F700EB00
09F304F700
0AF10AE100
09F35F6000
02CEC50000
0000000000
008B000000
00AD000000
ENDCHAR
STARTCHAR uni1EE3
ENCODING 7907
SWIDTH 439 0
DWIDTH 5 0
BBX 7 11 -1 -3
BITMAP
00000150
000003C0
006DCB40
06F65900
0DE06900
2FB09700
1FA1D100
08EA3000
00000000
06B10000
08E10000
ENDCHAR
STARTCHAR uni1EE4
ENCODING 7908
SWIDTH 716 0
DWIDTH 9 0
BBX 9 12 0 -3
BITMAP
029DD00BE0
4C2FA00EB0
E44F602F80
E18F206F50
21CD009F10
00F900DD00
02F703F800
02FA3BE100
008EEB3000
0000000000
001C600000
002E700000
ENDCHAR
STARTCHAR uni1EE5
ENCODING 7909
SWIDTH 505 0
DWIDTH 6 0
BBX 8 9 -1 -3
BITMAP
04F75F60
08F38F30
0BF0BE00
0EC0EB01
1FB7FB64
0BE6BE70
00000000
00A80000
00DA0000
ENDCHAR
STARTCHAR uni1EE6
ENCODING 7910
SWIDTH 716 0
DWIDTH 9 0
BBX 9 12 0 0
BITMAP
000004C800
0000000C00
0000009100
029DD00BE0
4C2FA00EB0
E44F602F80
E18F206F50
21CD009F10
00F900DD00
02F703F800
02FA3BE100
008EEB3000
ENDCHAR
STARTCHAR uni1EE7
ENCODING 7911
SWIDTH 505 0
DWIDTH 6 0
BBX 8 9 -1 0
BITMAP
0006B700
00038200
00000000
04F75F60
08F38F30
0BF0BE00
0EC0EB01
1FB7FB64
0BE6BE70
ENDCHAR
STARTCHAR uni1EE8
ENCODING 7912
SWIDTH 716 0
DWIDTH 9 0
BBX 11 12 0 0
BITMAP
0000003E1000
000000960960
000000701D30
029DD00BF600
4C2FA00EC000
E44F602F8000
E18F206F5000
21CD009F2000
00F900DD0000
02F703F80000
02FA3BE10000
008EEB300000
ENDCHAR
STARTCHAR uni1EE9
ENCODING 7913
SWIDTH 505 0
DWIDTH 6 0
BBX 8 9 -1 0
BITMAP
00004D10
0000B467
000040A4
04F75F70
08F38F30
0BF0BE00
0EC0EB01
1FB7FB64
0BE6BE70
ENDCHAR
STARTCHAR uni1EEA
ENCODING 7914
SWIDTH 716 0
DWIDTH 9 0
BBX 11 12 0 0
BITMAP
00000E300210
00000A500A60
000001101C20
029DD00BE300
4C2FA00EB000
E44F602F8000
E18F206F5000
21CD009F1000
00F900DD0000
02F703F80000
02FA3BE10000
008EEB300000
ENDCHAR
STARTCHAR uni1EEB
ENCODING 7915
SWIDTH 505 0
DWIDTH 6 0
BBX 8 9 -1 0
BITMAP
00098000
0004B078
000020A4
04F75F70
08F38F30
0BF0BE00
0EC0EB01
1FB7FB64
0BE6BE70
ENDCHAR
STARTCHAR uni1EEC
ENCODING 7916
SWIDTH 716 0
DWIDTH 9 0
BBX 11 12 0 0
BITMAP
000004C80000
0000000C0850
000000911C30
029DD00BF700
4C2FA00EC000
E44F602F9000
E18F206F5000
21CD009F2000
00F900DD0000
02F703F80000
02FA3BE20000
008EEB300000
ENDCHAR
STARTCHAR uni1EED
ENCODING 7917
SWIDTH 505 0
DWIDTH 6 0
BBX 8 9 -1 0
BITMAP
0006B700
00038277
000000A4
04F75F70
08F38F30
0BF0BE00
0EC0EB01
1FB7FB64
0BE6BE70
ENDCHAR
STARTCHAR uni1EEE
ENCODING 7918
SWIDTH 716 0
DWIDTH 9 0
BBX 11 11 0 0
BITMAP
00005EEA5960
000012651D30
029DD00BF600
4C2FA00EC000
E44F602F8000
E18F206F5000
21CD009F2000
00F900DD0000
02F703F80000
02FA3BE10000
008EEB300000
ENDCHAR
STARTCHAR uni1EEF
ENCODING 7919
SWIDTH 505 0
DWIDTH 6 0
BBX 8 8 -1 0
BITMAP
002CD866
000030A5
04F75F80
08F38F30
0BF0BE00
0EC0EB01
1FB7FB64
0BE6BE70
ENDCHAR
STARTCHAR uni1EF0
ENCODING 7920
SWIDTH 716 0
DWIDTH 9 0
BBX 11 14 0 -3
BITMAP
000000000420
000000000C50
029DD00BFB00
4C2FA00ED000
E44F602F9000
E18F206F6000
21CD009F2000
00F900DD0000
02F703F90000
02FA3BE20000
008EEC300000
000000000000
001C60000000
002E70000000
ENDCHAR
STARTCHAR uni1EF1
ENCODING 7921
SWIDTH 505 0
DWIDTH 6 0
BBX 8 11 -1 -3
BITMAP
00000033
00000096
04F75FB0
08F38F40
0BF0BF00
0EC0EC01
1FB7FB64
0BE6BE70
00000000
00A80000
00DA0000
ENDCHAR
STARTCHAR Ygrave
ENCODING 7922
SWIDTH 620 0
DWIDTH 7 0
BBX 9 12 0 0
BITMAP
00000C6000
0000078000
0000012000
028DD00920
3C2DF21A00
C609F67400
D305F9A000
1101FF6000
0000EF1000
0002FC0000
0005F90000
0008F50000
ENDCHAR
STARTCHAR ygrave
ENCODING 7923
SWIDTH 505 0
DWIDTH 6 0
BBX 8 12 -1 -3
BITMAP
000A8000
0005A000
00002000
04F75F60
08F38F30
0BF0BE00
0EC0EB11
1FB7F871
0BECFB50
008DF200
065DD000
03ED4000
ENDCHAR
STARTCHAR uni1EF4
ENCODING 7924
SWIDTH 620 0
DWIDTH 7 0
BBX 9 12 0 -3
BITMAP
028DD00920
3C2DF21A00
C609F67400
D305F9A000
1101FF6000
0000EF1000
0002FC0000
0005F90000
0008F50000
0000000000
000A900000
000CB00000
ENDCHAR
STARTCHAR uni1EF5
ENCODING 7925
SWIDTH 505 0
DWIDTH 6 0
BBX 8 9 -1 -3
BITMAP
04F75F60
08F38F30
0BF0BE00
0EC0EB11
1FB7F871
0BECFB50
008DF200
065DD540
03ED4A80
ENDCHAR
STARTCHAR uni1EF6
ENCODING 7926
SWIDTH 620 0
DWIDTH 7 0
BBX 9 12 0 0
BITMAP
000004C800
0000000C00
0000009100
028DD00920
3C2DF21A00
C609F67400
D305F9A000
1101FF6000
0000EF1000
0002FC0000
0005F90000
0008F50000
ENDCHAR
STARTCHAR uni1EF7
ENCODING 7927
SWIDTH 505 0
DWIDTH 6 0
BBX 8 12 -1 -3
BITMAP
0006B700
00038200
00000000
04F75F60
08F38F30
0BF0BE00
0EC0EB11
1FB7F871
0BECFB50
008DF200
065DD000
03ED4000
ENDCHAR
STARTCHAR uni1EF8
ENCODING 7928
SWIDTH 620 0
DWIDTH 7 0
BBX 9 11 0 0
BITMAP
00009EC820
0001147300
028DD00920
3C2DF21A00
C609F67400
D305F9A000
1101FF6000
0000EF1000
0002FC0000
0005F90000
0008F50000
ENDCHAR
STARTCHAR uni1EF9
ENCODING 7929
SWIDTH 505 0
DWIDTH 6 0
BBX 8 11 -1 -3
BITMAP
005CEB50
00002200
04F75F60
08F38F30
0BF0BE00
0EC0EB11
1FB7F871
0BECFB50
008DF200
065DD000
03ED4000
ENDCHAR
STARTCHAR uni2010
ENCODING 8208
SWIDTH 290 0
DWIDTH 3 0
BBX 3 1 0 3
BITMAP
7B80
ENDCHAR
STARTCHAR endash
ENCODING 8211
SWIDTH 352 0
DWIDTH 4 0
BBX 4 1 0 3
BITMAP
7BB5
ENDCHAR
STARTCHAR emdash
ENCODING 8212
SWIDTH 444 0
DWIDTH 5 0
BBX 5 1 0 3
BITMAP
7BBB60
ENDCHAR
STARTCHAR quoteleft
ENCODING 8216
SWIDTH 209 0
DWIDTH 3 0
BBX 2 3 1 6
BITMAP
14
A6
A9
ENDCHAR
STARTCHAR quoteright
ENCODING 8217
SWIDTH 238 0
DWIDTH 3 0
BBX 2 3 1 6
BITMAP
A9
88
50
ENDCHAR
STARTCHAR quotesinglbase
ENCODING 8218
SWIDTH 220 0
DWIDTH 3 0
BBX 3 3 -1 -1
BITMAP
1D50
0C50
0600
ENDCHAR
STARTCHAR quotedblleft
ENCODING 8220
SWIDTH 429 0
DWIDTH 5 0
BBX 4 3 1 6
BITMAP
1405
A65B
A96D
ENDCHAR
STARTCHAR quotedblright
ENCODING 8221
SWIDTH 426 0
DWIDTH 5 0
BBX 5 3 1 6
BITMAP
8B3E20
5B1D10
411300
ENDCHAR
STARTCHAR quotedblbase
ENCODING 8222
SWIDTH 440 0
DWIDTH 5 0
BBX 5 3 -1 -1
BITMAP
1D59A0
0C57A0
060510
ENDCHAR
STARTCHAR dagger
ENCODING 8224
SWIDTH 495 0
DWIDTH 6 0
BBX 6 12 0 -3
BITMAP
000760
000A30
000D00
012C11
1FFFF6
14A841
00B200
00D000
02B000
058000
085000
0C1000
ENDCHAR
STARTCHAR daggerdbl
ENCODING 8225
SWIDTH 495 0
DWIDTH 6 0
BBX 6 12 0 -3
BITMAP
000760
000A30
000D00
012C11
1FFFF6
149841
009400
6BECA0
02B000
058000
085000
0C1000
ENDCHAR
STARTCHAR bullet
ENCODING 8226
SWIDTH 434 0
DWIDTH 5 0
BBX 3 3 1 2
BITMAP
0200
6F90
5E70
ENDCHAR
STARTCHAR ellipsis
ENCODING 8230
SWIDTH 702 0
DWIDTH 8 0
BBX 8 2 0 0
BITMAP
5C17B08A
7E29D0AC
ENDCHAR
STARTCHAR perthousand
ENCODING 8240
SWIDTH 1175 0
DWIDTH 14 0
BBX 14 9 0 0
BITMAP
03CC1049000000
0D4A50B1000000
4E0B6580000000
6C0D4C10000000
5B3C764CD209D8
1BB3B1E3A67B2E
000945D0C5C64D
002B06B2E1C498
00A302DC407DA1
ENDCHAR
STARTCHAR minute
ENCODING 8242
SWIDTH 196 0
DWIDTH 2 0
BBX 3 3 0 6
BITMAP
07B0
0B30
1B00
ENDCHAR
STARTCHAR second
ENCODING 8243
SWIDTH 341 0
DWIDTH 4 0
BBX 5 3 0 6
BITMAP
07BB70
0B4D10
1B4700
ENDCHAR
STARTCHAR guilsinglleft
ENCODING 8249
SWIDTH 359 0
DWIDTH 4 0
BBX 4 5 0 1
BITMAP
0002
0187
5920
4A30
0193
ENDCHAR
STARTCHAR guilsinglright
ENCODING 8250
SWIDTH 344 0
DWIDTH 4 0
BBX 4 5 0 1
BITMAP
0200
0950
0069
0396
7600
ENDCHAR
STARTCHAR fraction
ENCODING 8260
SWIDTH 248 0
DWIDTH 3 0
BBX 7 9 -2 0
BITMAP
00000760
00001B00
00009400
0002A000
000A3000
00490000
00B10000
06700000
1C100000
ENDCHAR
STARTCHAR uni2052
ENCODING 8274
SWIDTH 796 0
DWIDTH 10 0
BBX 7 9 1 0
BITMAP
2E700490
1C500B10
00006800
0001C100
00076000
001C0000
00940000
02B00A70
0A301D90
ENDCHAR
STARTCHAR uni2070
ENCODING 8304
SWIDTH 379 0
DWIDTH 5 0
BBX 5 6 0 3
BITMAP
03CC10
0D4A50
4E0B60
6C0D30
5B3C00
1BB200
ENDCHAR
STARTCHAR uni2074
ENCODING 8308
SWIDTH 352 0
DWIDTH 4 0
BBX 4 5 0 4
BITMAP
086C
0A7B
2ACB
00B4
00E2
ENDCHAR
STARTCHAR uni2075
ENCODING 8309
SWIDTH 335 0
DWIDTH 4 0
BBX 4 7 0 3
BITMAP
0112
08A8
0900
0BC5
2B6C
568A
1BB1
ENDCHAR
STARTCHAR uni2076
ENCODING 8310
SWIDTH 351 0
DWIDTH 4 0
BBX 4 6 0 3
BITMAP
03CC
0D46
4EA8
6C3D
5B4B
1BB1
ENDCHAR
STARTCHAR uni2077
ENCODING 8311
SWIDTH 329 0
DWIDTH 4 0
BBX 4 5 0 4
BITMAP
4BE9
0091
0940
3D00
2900
ENDCHAR
STARTCHAR uni2078
ENCODING 8312
SWIDTH 354 0
DWIDTH 4 0
BBX 5 6 0 3
BITMAP
04DB00
0A7B10
05E600
2B8B00
594D00
1BB400
ENDCHAR
STARTCHAR uni2079
ENCODING 8313
SWIDTH 345 0
DWIDTH 4 0
BBX 4 6 0 3
BITMAP
07C7
2C2E
493F
198C
2395
2650
ENDCHAR
STARTCHAR uni2080
ENCODING 8320
SWIDTH 379 0
DWIDTH 5 0
BBX 5 5 0 0
BITMAP
04CD20
1E3A60
5D0C50
6B2E10
2DC400
ENDCHAR
STARTCHAR uni2081
ENCODING 8321
SWIDTH 229 0
DWIDTH 3 0
BBX 3 6 0 0
BITMAP
0020
4E70
0B40
0E10
2D00
5A00
ENDCHAR
STARTCHAR uni2082
ENCODING 8322
SWIDTH 328 0
DWIDTH 4 0
BBX 4 5 0 0
BITMAP
08D8
0A5B
00A2
0820
5DB6
ENDCHAR
STARTCHAR uni2083
ENCODING 8323
SWIDTH 336 0
DWIDTH 4 0
BBX 4 5 0 0
BITMAP
06C9
093C
00B4
496C
2AA4
ENDCHAR
STARTCHAR uni2084
ENCODING 8324
SWIDTH 352 0
DWIDTH 4 0
BBX 4 5 0 0
BITMAP
086C
0A7B
2ACB
00B4
00E2
ENDCHAR
STARTCHAR uni2085
ENCODING 8325
SWIDTH 335 0
DWIDTH 4 0
BBX 4 6 0 0
BITMAP
0112
08A8
0800
0BC6
396C
3CC3
ENDCHAR
STARTCHAR uni2086
ENCODING 8326
SWIDTH 351 0
DWIDTH 4 0
BBX 4 5 0 0
BITMAP
04CC
1E46
5DA8
6B3D
2DC4
ENDCHAR
STARTCHAR uni2087
ENCODING 8327
SWIDTH 329 0
DWIDTH 4 0
BBX 4 5 0 0
BITMAP
4BE9
0091
0850
2E00
3C00
ENDCHAR
STARTCHAR uni2088
ENCODING 8328
SWIDTH 354 0
DWIDTH 4 0
BBX 4 5 0 0
BITMAP
05DB
098A
07D6
594D
2CC6
ENDCHAR
STARTCHAR uni2089
ENCODING 8329
SWIDTH 345 0
DWIDTH 4 0
BBX 4 5 0 0
BITMAP
09C8
3A2F
1C8E
0169
4891
ENDCHAR
STARTCHAR colonmonetary
ENCODING 8353
SWIDTH 384 0
DWIDTH 5 0
BBX 5 9 0 -1
BITMAP
006480
01BB90
1E52D0
AB0000
D80000
BB0200
2EDB00
17A000
224000
ENDCHAR
STARTCHAR franc
ENCODING 8355
SWIDTH 529 0
DWIDTH 6 0
BBX 7 9 0 0
BITMAP
005FDB90
005F6000
008F4000
00CF1000
00FFB500
04F90000
9DFCA000
0AF20000
0CE00000
ENDCHAR
STARTCHAR lira
ENCODING 8356
SWIDTH 455 0
DWIDTH 5 0
BBX 7 9 0 0
BITMAP
001BCC10
00BD2E10
01F80000
4CFDB000
06F30000
8DFB8000
0CD00000
2F702700
9DCEF800
ENDCHAR
STARTCHAR uni20A6
ENCODING 8358
SWIDTH 723 0
DWIDTH 9 0
BBX 10 9 0 0
BITMAP
001FB00980
004FE00C50
007FF21F20
00AEF53E00
49ECFCCD92
9CFBFEEDB0
06C0AFE200
09806FE000
0D503FB000
ENDCHAR
STARTCHAR uni20A9
ENCODING 8361
SWIDTH 841 0
DWIDTH 10 0
BBX 11 9 0 0
BITMAP
06F602F900C0
06F607F90570
05F60CF90A20
05F62BF91A00
4BFBCBFCBB90
9CFDECFDEB80
03FB51FB8000
03FE10FF3000
02FA00FC0000
ENDCHAR
STARTCHAR Euro
ENCODING 8364
SWIDTH 507 0
DWIDTH 6 0
BBX 8 9 0 0
BITMAP
0006CCA0
009E25F1
04F80360
4EFCB800
0CF20000
8EFCB500
0CF10000
08F50200
01AEA600
ENDCHAR
STARTCHAR uni20AE
ENCODING 8366
SWIDTH 481 0
DWIDTH 6 0
BBX 9 9 0 0
BITMAP
05ACEA3150
6B18F7AA20
C50BF00000
D30EC01000
347FD96000
389FA83000
59DF510000
00CE000000
00FB000000
ENDCHAR
STARTCHAR uni20B3
ENCODING 8371
SWIDTH 573 0
DWIDTH 7 0
BBX 8 9 0 0
BITMAP
019BCC30
2D5847D0
B67F44F1
D3AF17E0
32DD3E60
0BFDB500
4DFDB100
08F20000
0CE00000
ENDCHAR
STARTCHAR uni20B4
ENCODING 8372
SWIDTH 570 0
DWIDTH 7 0
BBX 7 9 0 0
BITMAP
019BEB10
09705F60
0430BC10
3BCFCB50
6CEDBB20
1D900000
6F40BB00
6F506E10
0ADBB400
ENDCHAR
STARTCHAR uni20B8
ENCODING 8376
SWIDTH 522 0
DWIDTH 6 0
BBX 10 9 0 0
BITMAP
0ABBBBBBB1
018BD92040
3E45FCCC50
B908F40000
D60BF10000
330EC00000
003F900000
006F600000
009F200000
ENDCHAR
STARTCHAR uni20B9
ENCODING 8377
SWIDTH 544 0
DWIDTH 7 0
BBX 7 10 0 -1
BITMAP
079BC980
199AFB60
0003F400
001BB000
3AEE3000
002FB000
001FA000
005F6000
007F5000
00031000
ENDCHAR
STARTCHAR uni20BA
ENCODING 8378
SWIDTH 455 0
DWIDTH 5 0
BBX 7 9 0 0
BITMAP
006F5000
00AF1000
00DF9200
4AFB5400
26FB4100
4BF30D30
0BF00E40
0EC2AA00
2FEB5000
ENDCHAR
STARTCHAR uni20BD
ENCODING 8381
SWIDTH 573 0
DWIDTH 7 0
BBX 8 9 0 0
BITMAP
019BCC30
2D5847D0
B67F44F1
D3AF17E0
32DD3E60
4CFEB500
7DFD6000
09F20000
0CE00000
ENDCHAR
STARTCHAR uni2116
ENCODING 8470
SWIDTH 996 0
DWIDTH 12 0
BBX 12 9 0 0
BITMAP
05BFB00A8000
5C4FF00D55C6
C57FF41F3E2A
C5ACF74D4C47
12E6FB8A2CA0
02F1CEB7BEE5
05D09FF30000
08905FF00000
0C602FC00000
ENDCHAR
STARTCHAR uni2120
ENCODING 8480
SWIDTH 585 0
DWIDTH 7 0
BBX 6 4 1 5
BITMAP
153323
293C86
687BA4
464551
ENDCHAR
STARTCHAR trademark
ENCODING 8482
SWIDTH 379 0
DWIDTH 5 0
BBX 6 3 -1 5
BITMAP
177534
271A84
081AA1
ENDCHAR
STARTCHAR uni2126
ENCODING 8486
SWIDTH 745 0
DWIDTH 9 0
BBX 9 9 0 0
BITMAP
0003ADC400
006D526E10
03D1000C50
0970000A50
0D30000C30
0D20003C00
0A5000B300
02B1084000
8EE46EEA00
ENDCHAR
STARTCHAR uni212A
ENCODING 8490
SWIDTH 601 0
DWIDTH 7 0
BBX 8 9 0 0
BITMAP
019DA0A9
2C7F75B0
A77F5C10
D3AFB300
52DECA20
02FA2F80
05F64F50
08F38F10
0CE08F10
ENDCHAR
STARTCHAR uni212B
ENCODING 8491
SWIDTH 668 0
DWIDTH 8 0
BBX 9 13 0 -1
BITMAP
0000000740
0000003670
0000007E30
00001BDF10
0000A6CD00
0006B1FA00
3ACEA8F700
C89B08F400
22F60AF100
07E10DD000
0CB01F9000
0E80284000
0860000000
ENDCHAR
STARTCHAR estimated
ENCODING 8494
SWIDTH 786 0
DWIDTH 9 0
BBX 9 9 0 0
BITMAP
003ABB6000
06D2008B00
2FC0004F70
7FC0004FD0
8FEAAABCC0
6FC0000000
1EC0000000
05D1005700
003ABB7100
ENDCHAR
STARTCHAR uni2153
ENCODING 8531
SWIDTH 733 0
DWIDTH 9 0
BBX 9 9 0 0
BITMAP
023001C000
4E60085000
0C302B0000
0E00930000
3C03A09D60
470B20A690
0058001C20
00C1076980
0670059A20
ENDCHAR
STARTCHAR uni2154
ENCODING 8532
SWIDTH 852 0
DWIDTH 10 0
BBX 11 9 0 0
BITMAP
08D800085000
0A5B002B0000
00A200A30000
081003A00000
4CB60B24CB00
000058074D10
0000C1008600
0007601B3E00
001C001A9700
ENDCHAR
STARTCHAR oneeighth
ENCODING 8539
SWIDTH 741 0
DWIDTH 9 0
BBX 9 9 0 0
BITMAP
023001C000
4E60085000
0C302B0000
0E00930000
3C03A0AC70
470B20E580
005801AE20
00C10A4980
067006CC30
ENDCHAR
STARTCHAR threeeighths
ENCODING 8540
SWIDTH 828 0
DWIDTH 10 0
BBX 10 9 0 0
BITMAP
06C9001C10
0A3C007600
00A401B000
486B094000
18823A09C8
0000A20E59
00049019E2
000B109588
0067005CC3
ENDCHAR
STARTCHAR fiveeighths
ENCODING 8541
SWIDTH 827 0
DWIDTH 10 0
BBX 10 10 0 0
BITMAP
0112000000
08A8001C10
0900007600
0BC501B000
2B6C094000
568A3A09C8
1BB1A20E59
00049019E2
000B10A498
0067006CC3
ENDCHAR
STARTCHAR seveneighths
ENCODING 8542
SWIDTH 761 0
DWIDTH 9 0
BBX 9 9 0 0
BITMAP
4BE900B200
0091049000
09400C1000
3D00670000
2901C06DB0
000850B7A0
002B008E50
00940685B0
03A003CC50
ENDCHAR
STARTCHAR partialdiff
ENCODING 8706
SWIDTH 597 0
DWIDTH 7 0
BBX 8 9 0 0
BITMAP
0018DD40
001605E0
000000E2
000000E1
019EE9D0
1C611890
68000C20
7B12B500
1BEC4000
ENDCHAR
STARTCHAR uni2206
ENCODING 8710
SWIDTH 619 0
DWIDTH 7 0
BBX 8 9 0 0
BITMAP
00007F20
0002DE50
000A7B70
003D0990
00C407C0
05B005E0
1D2003F1
880001F3
CEEEEEF5
ENDCHAR
STARTCHAR product
ENCODING 8719
SWIDTH 661 0
DWIDTH 8 0
BBX 8 9 0 0
BITMAP
6EFEEFE9
03B00E00
06803C00
09506900
0D209500
1D00C200
4A01E000
7704A000
A3077000
ENDCHAR
STARTCHAR summation
ENCODING 8721
SWIDTH 605 0
DWIDTH 7 0
BBX 8 9 0 0
BITMAP
01FEEEE5
00C60000
004D0000
000B7000
0006C000
003D2000
02D30000
2D400000
9EEEEB00
ENDCHAR
STARTCHAR minus
ENCODING 8722
SWIDTH 471 0
DWIDTH 6 0
BBX 5 1 0 4
BITMAP
6EEEB0
ENDCHAR
STARTCHAR uni2215
ENCODING 8725
SWIDTH 488 0
DWIDTH 6 0
BBX 6 9 0 0
BITMAP
000049
0000C1
000670
001C00
008500
02B000
094000
3A0000
B20000
ENDCHAR
STARTCHAR uni2219
ENCODING 8729
SWIDTH 434 0
DWIDTH 5 0
BBX 3 3 1 2
BITMAP
0410
7FA0
5E70
ENDCHAR
STARTCHAR radical
ENCODING 8730
SWIDTH 660 0
DWIDTH 8 0
BBX 8 9 0 0
BITMAP
00003FE8
00009700
0000D100
00059000
000B3000
9D2C0000
0D960000
0AE10000
03500000
ENDCHAR
STARTCHAR infinity
ENCODING 8734
SWIDTH 833 0
DWIDTH 10 0
BBX 9 4 0 1
BITMAP
06DC23BE50
4B05DA25B0
7917C91870
2DD60AE900
ENDCHAR
STARTCHAR integral
ENCODING 8747
SWIDTH 305 0
DWIDTH 4 0
BBX 7 12 -2 -2
BITMAP
00004B50
0000D300
0002D000
0005A000
00087000
000B4000
000E1000
003D0000
00690000
00960000
00D20000
1B700000
ENDCHAR
STARTCHAR approxequal
ENCODING 8776
SWIDTH 441 0
DWIDTH 5 0
BBX 6 5 0 0
BITMAP
1CD712
1128E3
000000
6EEEB0
200000
ENDCHAR
STARTCHAR notequal
ENCODING 8800
SWIDTH 500 0
DWIDTH 6 0
BBX 6 8 0 -1
BITMAP
000200
011A11
0EFFF7
048641
019210
7FFFE0
24A430
001000
ENDCHAR
STARTCHAR lessequal
ENCODING 8804
SWIDTH 405 0
DWIDTH 5 0
BBX 5 6 0 1
BITMAP
000590
05C920
3E8000
019D10
000300
DEEE50
ENDCHAR
STARTCHAR greaterequal
ENCODING 8805
SWIDTH 405 0
DWIDTH 5 0
BBX 5 6 0 1
BITMAP
087000
019C40
007D70
2C8100
110000
CEEE50
ENDCHAR
STARTCHAR lozenge
ENCODING 9674
SWIDTH 619 0
DWIDTH 7 0
BBX 7 9 0 0
BITMAP
0005F500
002D7B00
01D40E20
0B600880
6B0004C0
2E001C30
0B50B500
05A88000
00EB0000
ENDCHAR
STARTCHAR uni27E8
ENCODING 10216
SWIDTH 456 0
DWIDTH 5 0
BBX 6 13 0 -2
BITMAP
000011
000093
000660
002900
01A100
093000
470000
1A0000
056000
00A200
002A00
000650
000060
ENDCHAR
STARTCHAR uni27E9
ENCODING 10217
SWIDTH 456 0
DWIDTH 5 0
BBX 5 13 0 -2
BITMAP
230000
0A0000
048000
009300
001A00
000470
0001A0
000A20
007500
038000
1A0000
920000
200000
ENDCHAR
STARTCHAR ff
ENCODING 64256
SWIDTH 508 0
DWIDTH 6 0
BBX 11 12 -3 -3
BITMAP
00003DC9EC40
0000CD0FC150
0001FA3F8000
0004FDDFD700
0008F48F3000
000BF1BF0000
000ED0EC0000
002FA2F80000
005F88F50000
1ADF59F20000
75AF1CD00000
3CEACD400000
ENDCHAR
STARTCHAR fi
ENCODING 64257
SWIDTH 534 0
DWIDTH 6 0
BBX 10 12 -3 -3
BITMAP
00001ADC60
0000AE19C0
0001FA0320
0004FD7FA0
0007F55F70
000AF18F30
000ED0BF01
002FA0DE38
005F708EA1
17BF300000
64BE000000
3CD5000000
ENDCHAR
STARTCHAR fl
ENCODING 64258
SWIDTH 548 0
DWIDTH 7 0
BBX 10 12 -3 -3
BITMAP
00003DCB71
0000CD07F4
0001FA0BF1
0004FD7EC0
0008F42F90
000BF15F60
000ED08F31
002FA0AF39
005F606EB2
18BF300000
74BE000000
3CD5000000
ENDCHAR
STARTCHAR ffi
ENCODING 64259
SWIDTH 764 0
DWIDTH 9 0
BBX 13 12 -3 -3
BITMAP
00003DC7BCC400
0000CE1EC0E800
0001FA5F703100
0004FDDFCDF600
0008F4AF17F300
000BF1ED0BE000
000ED2F90EB010
002F95F61FA460
005F9BF30CE800
18BF3CE0000000
75AE1FA0000000
3CEACC20000000
ENDCHAR
STARTCHAR ffl
ENCODING 64260
SWIDTH 780 0
DWIDTH 9 0
BBX 13 12 -3 -3
BITMAP
00003DCAEBA600
0000CE1EA0BF10
0001FA4F70EC00
0004FDDFC7F900
0008F4AF15F600
000BF1ED09F300
000ED2FA0CE010
002F95F60ED370
005F9BF309EA10
18BF3CE0000000
75AE1FA0000000
3CEACC20000000
ENDCHAR
STARTCHAR .notdef
ENCODING -1
SWIDTH 810 0
DWIDTH 10 0
BBX 10 16 0 -3
BITMAP
0008777777
0016000017
0043000034
0070000061
0070000070
0070683070
0163A79160
04302B2430
0700820700
0700300700
0702800700
2500001600
5200005300
7000007000
7000007000
9777776000
ENDCHAR
STARTCHAR A.salt
ENCODING -1
SWIDTH 590 0
DWIDTH 7 0
BBX 8 11 0 -2
BITMAP
00003BE4
0003AAF2
001C1CE0
00A61FA0
03EABF70
0B907F40
3F40AF10
9E00DD00
CA02F900
D8000000
34000000
ENDCHAR
STARTCHAR B.salt
ENCODING -1
SWIDTH 633 0
DWIDTH 8 0
BBX 8 9 0 0
BITMAP
03ABBC50
4D5A55E0
D57F3A90
93AFDF70
00EB0CF1
02F80AF2
05F50CD0
08F34F60
0CEBE800
ENDCHAR
STARTCHAR E.salt
ENCODING -1
SWIDTH 554 0
DWIDTH 7 0
BBX 8 9 0 0
BITMAP
047ECBA1
586F4000
C49F2000
C3CE0000
22FFD800
03F80000
07F60000
0AF30000
0DFBB700
ENDCHAR
STARTCHAR N.salt
ENCODING -1
SWIDTH 669 0
DWIDTH 8 0
BBX 9 9 0 0
BITMAP
028EDBD300
3A7F70FA00
C5AF31FA00
C3DE04F700
13FC08F300
05F90BF000
08F50EC000
0BF21F9240
0EE00BD700
ENDCHAR
STARTCHAR i.loclTRK
ENCODING -1
SWIDTH 267 0
DWIDTH 3 0
BBX 5 8 -1 0
BITMAP
00BB00
00AA00
04F700
08F300
0BF000
0EC010
1FB560
0BE800
ENDCHAR
STARTCHAR a.end
ENCODING -1
SWIDTH 467 0
DWIDTH 6 0
BBX 7 6 -1 0
BITMAP
007DAFA0
06F64F70
0DE07F40
1FB0AF10
2FA1ED00
09E99E30
ENDCHAR
STARTCHAR aacute.end
ENCODING -1
SWIDTH 461 0
DWIDTH 6 0
BBX 7 9 -1 0
BITMAP
00003E10
0000A600
00004000
008DAF90
07F55F60
0ED08F30
3FA0BF00
3F91EC00
0AE9AE20
ENDCHAR
STARTCHAR c.end
ENCODING -1
SWIDTH 341 0
DWIDTH 4 0
BBX 6 6 -1 0
BITMAP
008DC2
07F5A3
0ED010
2FA000
3F9010
0AEA30
ENDCHAR
STARTCHAR d.end
ENCODING -1
SWIDTH 476 0
DWIDTH 6 0
BBX 8 9 -1 0
BITMAP
00000131
00000AF1
00000DD0
007DAFA0
06F64F70
0DE07F40
1FB0AF10
2FA1ED00
09E9AE50
ENDCHAR
STARTCHAR e.end
ENCODING -1
SWIDTH 366 0
DWIDTH 4 0
BBX 6 6 -1 0
BITMAP
007DD3
06F595
0DE3D1
2FEA30
2FA010
09EA40
ENDCHAR
STARTCHAR eacute.end
ENCODING -1
SWIDTH 367 0
DWIDTH 4 0
BBX 6 9 -1 0
BITMAP
0000A8
0002D1
000230
007DD3
06F695
0DE3D1
1FEA30
2FA010
09EA40
ENDCHAR
STARTCHAR uni0292.end
ENCODING -1
SWIDTH 391 0
DWIDTH 5 0
BBX 5 9 0 -3
BITMAP
6CDF60
94CC00
07F300
2FA000
1AF300
02F900
27FA00
A4F700
9DA000
ENDCHAR
STARTCHAR g.end
ENCODING -1
SWIDTH 480 0
DWIDTH 6 0
BBX 7 9 -1 -3
BITMAP
007DAFA0
06F64F70
0DE07F40
1FB0AF10
2FA1EC00
09EBF900
0058F600
0379F200
01BE7000
ENDCHAR
STARTCHAR uni01E5.end
ENCODING -1
SWIDTH 507 0
DWIDTH 6 0
BBX 7 9 -1 -3
BITMAP
007DAFA0
06F64F70
0DE07F40
1FB0AF10
2FA1ED00
09EBFA00
0058F700
07CDFA00
02BE8000
ENDCHAR
STARTCHAR h.end
ENCODING -1
SWIDTH 453 0
DWIDTH 5 0
BBX 7 9 -1 0
BITMAP
00140000
00DD0000
01F90000
04FCDC00
08F49F20
0BE0BE00
0EB0EB00
2F81FA10
5F50CE20
ENDCHAR
STARTCHAR i.end
ENCODING -1
SWIDTH 209 0
DWIDTH 3 0
BBX 4 9 -1 0
BITMAP
009A
00BB
0000
04F7
08F3
0BF0
0EC0
1FB1
0BE3
ENDCHAR
STARTCHAR iacute.end
ENCODING -1
SWIDTH 209 0
DWIDTH 3 0
BBX 5 9 -1 0
BITMAP
000C60
004B00
003100
04F700
08F300
0BF000
0EC000
1FB100
0BE300
ENDCHAR
STARTCHAR ij.end
ENCODING -1
SWIDTH 480 0
DWIDTH 6 0
BBX 8 11 -1 -3
BITMAP
00BB09D1
009A07B0
04F71FA0
08F35F70
0BF08F40
0EC0BF10
1FB1EC00
0BE5F900
0079F600
037AF200
01CE7000
ENDCHAR
STARTCHAR j.end
ENCODING -1
SWIDTH 213 0
DWIDTH 3 0
BBX 6 11 -3 -3
BITMAP
0000CB
0000A9
0004F7
0008F4
000BF1
000EC0
002F90
005F60
19DF30
74BE00
3CD400
ENDCHAR
STARTCHAR k.end
ENCODING -1
SWIDTH 472 0
DWIDTH 6 0
BBX 7 9 -1 0
BITMAP
00240000
00DD0000
01FA0000
04F72C30
07F7B200
0BFEFA00
0ED1CE00
2F90EC00
5F60AE50
ENDCHAR
STARTCHAR l.end
ENCODING -1
SWIDTH 207 0
DWIDTH 2 0
BBX 4 8 -1 0
BITMAP
009C
01FB
04F8
07F4
0BF1
0ED0
1FA0
0CD3
ENDCHAR
STARTCHAR m.end
ENCODING -1
SWIDTH 701 0
DWIDTH 8 0
BBX 10 6 -1 0
BITMAP
04FCDC8DB0
08F49F49F1
0BE0CE0BE0
0EC0FB0EA0
2F93F81FA1
5F56F50CD2
ENDCHAR
STARTCHAR n.end
ENCODING -1
SWIDTH 454 0
DWIDTH 5 0
BBX 7 6 -1 0
BITMAP
04FCDC00
08F49F20
0BE0BE00
0EC0EB00
2F91FB10
5F50BE20
ENDCHAR
STARTCHAR o.end
ENCODING -1
SWIDTH 487 0
DWIDTH 6 0
BBX 7 6 -1 0
BITMAP
007DC310
06F67B60
0DE09B00
1FB09600
2FA1D100
09EB4000
ENDCHAR
STARTCHAR oacute.end
ENCODING -1
SWIDTH 487 0
DWIDTH 6 0
BBX 7 9 -1 0
BITMAP
00008A00
0001D200
00023000
007DC310
06F67B60
0DE08B00
1FB09700
1FA1D100
09EB4000
ENDCHAR
STARTCHAR s.end
ENCODING -1
SWIDTH 316 0
DWIDTH 4 0
BBX 5 7 -1 0
BITMAP
000110
007F80
00BF90
046FA0
1C1FB0
591FA0
1ADB20
ENDCHAR
STARTCHAR t.end
ENCODING -1
SWIDTH 276 0
DWIDTH 3 0
BBX 5 8 -1 0
BITMAP
008A00
01FA00
07FD30
06F500
0AF200
0DD000
1FB000
0CD200
ENDCHAR
STARTCHAR u.end
ENCODING -1
SWIDTH 459 0
DWIDTH 6 0
BBX 7 6 -1 0
BITMAP
04F75F60
08F38F30
0BF0BE00
0EC0EB00
1FB7FB10
0BE6BE30
ENDCHAR
STARTCHAR uacute.end
ENCODING -1
SWIDTH 459 0
DWIDTH 6 0
BBX 7 9 -1 0
BITMAP
00008A00
0001D100
00013000
04F75F60
08F38F30
0BF0BE00
0EC0EB00
1FB7FB10
0BE6BE30
ENDCHAR
STARTCHAR x.end
ENCODING -1
SWIDTH 500 0
DWIDTH 6 0
BBX 6 6 0 0
BITMAP
06DB3A
257F5B
705FB1
608F70
067FC2
4908E5
ENDCHAR
STARTCHAR y.end
ENCODING -1
SWIDTH 460 0
DWIDTH 6 0
BBX 7 9 -1 -3
BITMAP
04F75F60
08F38F30
0BF0BF00
0EC0EC00
1FB7F900
0BECF500
019CF200
073CD000
03CD4000
ENDCHAR
STARTCHAR k.salt
ENCODING -1
SWIDTH 518 0
DWIDTH 6 0
BBX 8 9 -1 0
BITMAP
00130000
00DD0000
01F90000
04F66930
07FEC600
0BE6EE00
0EB0DD02
2F80FC46
5F509E90
ENDCHAR
STARTCHAR p.salt
ENCODING -1
SWIDTH 482 0
DWIDTH 6 0
BBX 8 10 -1 -3
BITMAP
01840000
05FCEB00
08F77F20
0BF13F52
0EC2AE61
2FABC800
6F6DB100
9F200000
CE000000
B6000000
ENDCHAR
STARTCHAR E_x
ENCODING -1
SWIDTH 797 0
DWIDTH 10 0
BBX 10 9 0 0
BITMAP
006DC80000
04F52D0000
05F32431B2
03EB17F475
2EE104F8C0
AF6002FE30
DF3001FB03
CF502ACE48
3CEA715EB1
ENDCHAR
STARTCHAR F_i
ENCODING -1
SWIDTH 726 0
DWIDTH 9 0
BBX 10 9 0 0
BITMAP
049EFFFF80
4A2FA5BB20
B55F700000
D38F40CE00
53BFC7FB00
00ED03F800
03F906F500
06F608F381
09F204EC30
ENDCHAR
STARTCHAR T_h
ENCODING -1
SWIDTH 971 0
DWIDTH 12 0
BBX 12 9 0 0
BITMAP
05ACFDDCA000
6B18F23F6000
D40CE06F3000
B30EB09FAE60
003F80CD0FB0
006F51F92F90
009F23F65F60
00CE07F37F37
00FB0AF13EB4
ENDCHAR
STARTCHAR T_i
ENCODING -1
SWIDTH 744 0
DWIDTH 9 0
BBX 10 9 0 0
BITMAP
05ACFFFFB0
6A08F69C50
C40BE00000
D30EB08F20
213F80CE00
006F50FB00
009F23F801
00CE05F772
00FB02DD50
ENDCHAR
STARTCHAR a_x
ENCODING -1
SWIDTH 899 0
DWIDTH 11 0
BBX 13 6 -1 0
BITMAP
007DAFA5F68600
06F54F72F85600
0DD07F30ED9000
1FA0BF00CE0110
2FC4FE39CF5910
09E96EC52ED400
ENDCHAR
STARTCHAR a_z
ENCODING -1
SWIDTH 906 0
DWIDTH 11 0
BBX 12 6 -1 0
BITMAP
007DAFA3CCF9
06F64F776AE1
0DE07F403F70
1FB0AF10CD00
2FA1ED06F552
09E99E4EFBC2
ENDCHAR
STARTCHAR b_s
ENCODING -1
SWIDTH 799 0
DWIDTH 10 0
BBX 11 9 -1 0
BITMAP
002400000000
00DD00000000
01FA00013200
04FCD70AF900
08F37D95FA00
0BF16D11FB00
0ED09994FB50
1FA1E3A0FE30
0AEB408CC200
ENDCHAR
STARTCHAR b_s_x
ENCODING -1
SWIDTH 1144 0
DWIDTH 14 0
BBX 16 9 -1 0
BITMAP
0047000000000000
00DC000000000000
02F9000253000940
05F79817F95F5470
08F27E62FA2F8B20
0BE07C01FB0EE500
0EB0A894FB3DE031
1FC5E2A1FD68F580
09EC308CB202EC20
ENDCHAR
STARTCHAR b_s_z
ENCODING -1
SWIDTH 1158 0
DWIDTH 14 0
BBX 15 9 -1 0
BITMAP
0024000000000000
00DD000000000000
01FA000032000000
04FDE70AF94CCF90
08F47D86F9559E10
0BF16D12FA03F700
0ED09A94FB0CD210
1FA1E3A0FA5F6B50
0AEB508CC3DFBB10
ENDCHAR
STARTCHAR c_x
ENCODING -1
SWIDTH 755 0
DWIDTH 9 0
BBX 11 6 -1 0
BITMAP
008DD3FA5A00
07F593DC2A00
0ED000AFA200
3F90008F4010
2FA005AF8640
09EB940CE700
ENDCHAR
STARTCHAR c_z
ENCODING -1
SWIDTH 769 0
DWIDTH 9 0
BBX 11 6 -1 0
BITMAP
008DC28CFE10
07F5A3E6F600
0ED0101DC000
2FA0007F4000
3F9011EB3500
0AEA39FDD600
ENDCHAR
STARTCHAR e_x
ENCODING -1
SWIDTH 762 0
DWIDTH 9 0
BBX 11 6 -1 0
BITMAP
007DD3EB4B00
06F695CE1B00
0DE3D19FB300
1FEA307F6000
1FB004AF9550
08EB950BE900
ENDCHAR
STARTCHAR e_z
ENCODING -1
SWIDTH 788 0
DWIDTH 9 0
BBX 11 6 -1 0
BITMAP
008DC29CEF30
07F4A4B3E900
0ED4D00AE100
3FEA203F7000
3F9010CD1600
0AEA36FDB900
ENDCHAR
STARTCHAR eacute_x
ENCODING -1
SWIDTH 760 0
DWIDTH 9 0
BBX 11 9 -1 0
BITMAP
00006C000000
0000C4000000
0002B0000000
007DD3FB4A00
06F595CD1B00
0DE3D1AFB300
2FEA207F5000
2FA004AF9550
08EC950BE800
ENDCHAR
STARTCHAR f_f_t
ENCODING -1
SWIDTH 780 0
DWIDTH 9 0
BBX 13 12 -3 -3
BITMAP
00003DCAEBA600
0000CE1EA0BF10
0001FA4F70EC00
0004FDDFCCFD40
0008F4AF15F600
000BF1ED08F300
000ED2FA0BE010
002F95F60ED370
005F9BF309EA10
18BF3CE0000000
75AE1FA0000000
3CEACC20000000
ENDCHAR
STARTCHAR f_i_x
ENCODING -1
SWIDTH 898 0
DWIDTH 11 0
BBX 15 12 -3 -3
BITMAP
00001ADC60000000
0000AE19C0000000
0001FA0430005200
0004FD7FA5F69800
0007F55F62F85400
000AF18F30EC8000
000ED0BF00CE0000
002FA0DE38BF5910
005F708EB32ED400
17BF300000000000
64BE000000000000
3CD5000000000000
ENDCHAR
STARTCHAR f_i_z
ENCODING -1
SWIDTH 904 0
DWIDTH 11 0
BBX 14 12 -3 -3
BITMAP
00001ADC600000
0000AE19C00000
0001FA03200000
0004FD7FA4CCF8
0007F55F765AE1
000AF18F404F60
000ED0BF10CD00
002FA0DD06F583
005F708E7EFCB1
17BF3000000000
64BE0000000000
3CD50000000000
ENDCHAR
STARTCHAR f_l_x
ENCODING -1
SWIDTH 912 0
DWIDTH 11 0
BBX 15 12 -3 -3
BITMAP
00003DCB71000000
0000CD07F4000000
0001FA0AF1000000
0004FD7EC2F86800
0008F42F90FB3900
000BF15F60CEA100
000ED08F20AF2010
002FA0AF47BF7820
005F606EC41DD500
18BF300000000000
74CE000000000000
3CD5000000000000
ENDCHAR
STARTCHAR f_l_z
ENCODING -1
SWIDTH 938 0
DWIDTH 11 0
BBX 15 12 -3 -3
BITMAP
00003DCB71000000
0000CD07F4000000
0001FA0BF1000000
0004FD7EC0BBFE10
0008F42F92A4F600
000BF15F600CC000
000ED08F306F4000
002FA0AF11EB3700
005F606E99FDC600
18BF300000000000
74BE000000000000
3CD5000000000000
ENDCHAR
STARTCHAR f_t
ENCODING -1
SWIDTH 548 0
DWIDTH 7 0
BBX 10 12 -3 -3
BITMAP
00003DCB71
0000CD07F4
0001FA0BF1
0004FDBFE7
0008F41FA0
000BF15F60
000ED08F31
002FA0AF39
005F606EB2
18BF300000
74CE000000
3CD5000000
ENDCHAR
STARTCHAR f_u
ENCODING -1
SWIDTH 772 0
DWIDTH 9 0
BBX 13 12 -3 -3
BITMAP
00003DC5000000
0000CD05000000
0001FA00000000
0004FDCFA2F900
0008F44F75F600
000BF17F38F300
000ED0BF0BE010
002F90DE4FD370
005F609E99E900
18BF3000000000
74CD0000000000
3CD40000000000
ENDCHAR
STARTCHAR f_x
ENCODING -1
SWIDTH 663 0
DWIDTH 8 0
BBX 12 12 -3 -3
BITMAP
00003DC30000
0000CD090000
0001FA010000
0004FDCF8690
0008F40FB390
000BF10DDB10
000ED01DF200
002F92B8F433
005F65B1DC60
15AF30000000
73DD00000000
3CD400000000
ENDCHAR
STARTCHAR g_p
ENCODING -1
SWIDTH 975 0
DWIDTH 12 0
BBX 13 10 -1 -3
BITMAP
00000000850000
007DAFA3FCCD10
06F64F76F55F50
0DE07F3AF15F50
1FB0AF0DD08F30
2FA1EC1FA2EC00
09E9FDBFEEB200
006CF68F300000
0299F2AF100000
01BE70C9000000
ENDCHAR
STARTCHAR g_x
ENCODING -1
SWIDTH 892 0
DWIDTH 11 0
BBX 12 9 -1 -3
BITMAP
007DAFA6F4A5
06F54F73F775
0DD07F31FC90
1FA0BF00DE01
2FC5FC19CF49
09EBFD923EC3
006CF6000000
0299F2000000
01BE70000000
ENDCHAR
STARTCHAR g_z
ENCODING -1
SWIDTH 907 0
DWIDTH 11 0
BBX 12 9 -1 -3
BITMAP
007DAFA3CCF9
06F64F6769E1
0DE07F303F70
2FB0AF00CD10
2FA1EC06F552
0AEAF91EFBC2
0079F6000000
0469F2000000
01BE60000000
ENDCHAR
STARTCHAR i_x
ENCODING -1
SWIDTH 631 0
DWIDTH 8 0
BBX 9 9 -1 0
BITMAP
009A000000
00BB000000
0000000B20
04F78F3750
08F35F7C00
0BF02FE300
0EC01FB020
1FB4ACE480
0BE914EB10
ENDCHAR
STARTCHAR i_z
ENCODING -1
SWIDTH 637 0
DWIDTH 8 0
BBX 9 9 -1 0
BITMAP
009A000000
00BB000000
0000000000
04F76CDF50
08F493DC00
0BF107F300
0EC01EA000
1FA09F2910
0BE7FEBA00
ENDCHAR
STARTCHAR iacute_x
ENCODING -1
SWIDTH 631 0
DWIDTH 8 0
BBX 9 9 -1 0
BITMAP
000C500000
005A000000
0010000B20
04F78F3750
08F35F7C00
0BF02FE300
0EC01FB020
1FB4ACE480
0BE914EB10
ENDCHAR
STARTCHAR iacute_z
ENCODING -1
SWIDTH 637 0
DWIDTH 8 0
BBX 9 9 -1 0
BITMAP
000C600000
004B000000
0031000000
04F76CDF50
08F4B4DC00
0BF107F300
0EC01EA000
1FA09F2910
0BE7FEBA00
ENDCHAR
STARTCHAR j_x
ENCODING -1
SWIDTH 624 0
DWIDTH 7 0
BBX 11 11 -3 -3
BITMAP
0000DA000000
0000B8000000
0004F79F2B20
0008F37F4920
000BF04FB700
000EC02FB010
002F91ADD380
005FB816EB10
07DF20000000
56CD00000000
3CD400000000
ENDCHAR
STARTCHAR j_z
ENCODING -1
SWIDTH 618 0
DWIDTH 7 0
BBX 11 11 -3 -3
BITMAP
0000BB000000
0000A9000000
0004F79CEF20
0007F4A3F800
000AF10AE100
000DD04F6000
001FA0CC2A00
005F66FED700
18BF30000000
64BE00000000
3CD500000000
ENDCHAR
STARTCHAR l_x
ENCODING -1
SWIDTH 631 0
DWIDTH 8 0
BBX 9 9 -1 0
BITMAP
0047000000
00DD000000
01F9000B20
05F68F3750
08F35F7C00
0BF02FE300
0EC01FB020
1FB4ACE480
0BEA14EB10
ENDCHAR
STARTCHAR l_z
ENCODING -1
SWIDTH 635 0
DWIDTH 8 0
BBX 9 9 -1 0
BITMAP
0024000000
00DD000000
01FA000000
05F76CDF50
08F4A3DC00
0BF107F300
0ED02EA000
1FA0AF2700
0BD6FEBB00
ENDCHAR
STARTCHAR m_x
ENCODING -1
SWIDTH 1124 0
DWIDTH 13 0
BBX 15 6 -1 0
BITMAP
04FADC7DB09F2A20
08F49F49F16F4A20
0BE0CE0BE04FD500
0EC0FB0EA02FA020
2F93F81FA3ADD380
5F56F50BE916EB10
ENDCHAR
STARTCHAR m_z
ENCODING -1
SWIDTH 1125 0
DWIDTH 14 0
BBX 15 6 -1 0
BITMAP
04FADC7DB09CEF30
08F49F49F162EA00
0BE0CE0BE009F200
0EC0FB0EB03F8000
2F93F81F90BE2A00
5F56F50CE8FEB900
ENDCHAR
STARTCHAR n_z
ENCODING -1
SWIDTH 882 0
DWIDTH 11 0
BBX 12 6 -1 0
BITMAP
04FADC08CDF4
08F49F262DB0
0BE0BE008F30
0EC0EB02E900
2F91FA0AE2B0
5F50BE7FEBA0
ENDCHAR
STARTCHAR o_ae
ENCODING -1
SWIDTH 1089 0
DWIDTH 13 0
BBX 15 6 -1 0
BITMAP
007DC407ADBBD900
05F69B7205FC2C00
0DE17819CDF6A700
1FB0A5AF2BFC7000
1FA1D1CD0EF20420
08EB306EB8DC9300
ENDCHAR
STARTCHAR o_s
ENCODING -1
SWIDTH 786 0
DWIDTH 9 0
BBX 11 7 -1 0
BITMAP
000000002100
007DC30BF600
06F68B87F700
0DE08A04F800
1FB0A6A5FA50
2FA1D383FD20
09EB30ADB100
ENDCHAR
STARTCHAR o_s_x
ENCODING -1
SWIDTH 1132 0
DWIDTH 14 0
BBX 15 6 -1 0
BITMAP
007DC409E68F3B40
06F58A77F75F6930
0DE08A04F82FD500
1FA0A6A5F94EB040
1FB4E382FC4AE380
09ED40ADA104EB10
ENDCHAR
STARTCHAR o_s_z
ENCODING -1
SWIDTH 1139 0
DWIDTH 14 0
BBX 15 7 -1 0
BITMAP
0000000021000000
007DC40BF66CDF60
06F68B87F773CC00
0DE08A04F806F400
1FB0A6A5F91EB200
2FA1D383F89F3E20
09EB30ADB4FEB900
ENDCHAR
STARTCHAR o_x
ENCODING -1
SWIDTH 851 0
DWIDTH 10 0
BBX 12 6 -1 0
BITMAP
007DC30EC4B0
06F6797DE1B0
0DE09C29FB40
2FB0960AF600
2FA1D2A6F715
09EB42D2AE70
ENDCHAR
STARTCHAR oacute_s
ENCODING -1
SWIDTH 787 0
DWIDTH 9 0
BBX 11 9 -1 0
BITMAP
00008A000000
0001D2000000
000230002100
007DC40BF600
06F68B87F700
0DE08A04F800
1FB096A5FA50
1FA1D382FD20
09EB40ADB100
ENDCHAR
STARTCHAR oacute_s_x
ENCODING -1
SWIDTH 1141 0
DWIDTH 14 0
BBX 15 9 -1 0
BITMAP
00007A0000000000
0001D20000000000
0001400021000000
007DC40BF66CDF60
05F68B86F773CD00
0DE17A03F806F400
1FB096A4F91EB200
1FA1D382F89F3E20
08EB30ADC4FEB900
ENDCHAR
STARTCHAR oacute_s_z
ENCODING -1
SWIDTH 1140 0
DWIDTH 14 0
BBX 15 9 -1 0
BITMAP
00008A0000000000
0001D20000000000
0002300021000000
007DC40BF66CDF60
06F68B87F773CC00
0DE08A04F806F400
1FB096A5F91EB300
1FA1D382F89F3E20
09EB30ADB4FEB900
ENDCHAR
STARTCHAR oacute_x
ENCODING -1
SWIDTH 852 0
DWIDTH 10 0
BBX 12 9 -1 0
BITMAP
00007B000000
0000D3000000
0003A0000000
007DC30EC3B0
06F6797DE1B0
0DE09C29FB40
1FB0860AF600
2FA1D1A6F815
09EB41D2AE81
ENDCHAR
STARTCHAR r_x
ENCODING -1
SWIDTH 784 0
DWIDTH 9 0
BBX 11 7 -1 0
BITMAP
000000002B10
04FBD7DD0930
08F2769F2C00
0BE0006FC300
0EB0008F8000
2F80094EB070
5F500C57E910
ENDCHAR
STARTCHAR r_z
ENCODING -1
SWIDTH 654 0
DWIDTH 8 0
BBX 9 6 -1 0
BITMAP
04FBDECF80
08F685AE10
0BF004F600
0EC00CC000
2F906F4830
5F61EFCB10
ENDCHAR
STARTCHAR s_x
ENCODING -1
SWIDTH 727 0
DWIDTH 9 0
BBX 11 7 -1 0
BITMAP
001530009400
007F86F54700
008F93F9B200
053FA0FE4000
1C1FB2EE0210
571FD9AF5900
1ADB203EC300
ENDCHAR
STARTCHAR s_z
ENCODING -1
SWIDTH 744 0
DWIDTH 9 0
BBX 10 7 -1 0
BITMAP
0013200000
007F83CCFA
00BF9569E2
056FA03F80
1C1FB0BE10
5A1FA5F674
1ADB2DFCC2
ENDCHAR
STARTCHAR t_x
ENCODING -1
SWIDTH 631 0
DWIDTH 8 0
BBX 9 8 -1 0
BITMAP
0012000000
01EB000000
08FDDF3B30
07F46F5840
0AF13FAA00
0DD01FC000
1FA06ED060
0BE836EA30
ENDCHAR
STARTCHAR t_z
ENCODING -1
SWIDTH 704 0
DWIDTH 8 0
BBX 10 8 -1 0
BITMAP
008A000000
01FA000000
07FD39CEF3
06F50B3E90
0AF200AE10
0DD003F700
1FB00CD290
0CD26FEB80
ENDCHAR
STARTCHAR u_v
ENCODING -1
SWIDTH 923 0
DWIDTH 11 0
BBX 12 6 -1 0
BITMAP
04F75F66F859
08F38F37F40B
0BF0BE0AF129
0EC0EB0DD084
1FB7F80FC5B0
0BECF50AEB20
ENDCHAR
STARTCHAR u_x
ENCODING -1
SWIDTH 878 0
DWIDTH 11 0
BBX 12 7 -1 0
BITMAP
0000000000B2
04F75F68F274
08F38F35F7B0
0BF0BE02FE20
0EC0EB01FB03
1FB7FB4BDE48
0BE6AEB25EB1
ENDCHAR
STARTCHAR y_p
ENCODING -1
SWIDTH 954 0
DWIDTH 11 0
BBX 13 10 -1 -3
BITMAP
00000002830000
04F75F67FBEA00
08F38F3AF18F10
0BF0BE0DD09F10
0EC0EB2F90CE00
1FB7F85F65F800
0BECFBDFEE9000
007DF3BE000000
065DD0EC000000
03ED42D6000000
ENDCHAR
STARTCHAR y_x
ENCODING -1
SWIDTH 871 0
DWIDTH 10 0
BBX 12 9 -1 -3
BITMAP
04F75F6AF2B1
08F38F37F392
0BF0BE04FB70
0EC0EB02FA01
1FB7F82ADD38
0BECFB816EB1
007DF2000000
065DD0000000
03ED40000000
ENDCHAR
STARTCHAR y_z
ENCODING -1
SWIDTH 888 0
DWIDTH 11 0
BBX 12 9 -1 -3
BITMAP
04F75F66CDF6
08F38F383DC0
0BF0BF007F40
0EC0EC01EA00
1FB7F909F2B1
0BECF53FECA0
017BF2000000
073CD0000000
03CD40000000
ENDCHAR
STARTCHAR a_x.end
ENCODING -1
SWIDTH 884 0
DWIDTH 11 0
BBX 12 6 -1 0
BITMAP
007DAFA5F686
06F54F72F856
0DD07F30ECA0
1FA0BF00CE00
2FC4FE39CF50
09E96EC52EB0
ENDCHAR
STARTCHAR b_s.end
ENCODING -1
SWIDTH 731 0
DWIDTH 9 0
BBX 10 9 -1 0
BITMAP
0024000000
00DD000000
01FA000132
04FCD70AF9
08F37D95F9
0BF16D11FA
0ED09994FB
1FA1E3A0FA
0AEB408CC3
ENDCHAR
STARTCHAR e_x.end
ENCODING -1
SWIDTH 747 0
DWIDTH 9 0
BBX 10 6 -1 0
BITMAP
007DD3EB4B
06F695CE1B
0DE3D19FB3
1FEA307F60
1FB003BF70
08EB960BE4
ENDCHAR
STARTCHAR f_u.end
ENCODING -1
SWIDTH 724 0
DWIDTH 9 0
BBX 12 12 -3 -3
BITMAP
00003DC50000
0000CD050000
0001FA000000
0004FDCFA2F9
0008F44F75F6
000BF17F38F3
000ED0BF0BE0
002F90DE4FD1
005F609E98E6
18BF30000000
74CD00000000
3CD400000000
ENDCHAR
STARTCHAR fi.end
ENCODING -1
SWIDTH 479 0
DWIDTH 6 0
BBX 9 12 -3 -3
BITMAP
00001ADC60
0000AE19C0
0001FA0320
0004FD7FA0
0007F55F70
000AF18F30
000ED0BF00
002FA0DE10
005F708E60
17BF300000
64BE000000
3CD5000000
ENDCHAR
STARTCHAR fl.end
ENCODING -1
SWIDTH 490 0
DWIDTH 6 0
BBX 10 12 -3 -3
BITMAP
00003DCB71
0000CD07F4
0001FA0BF1
0004FD7EC0
0008F42F90
000BF15F60
000ED08F30
002FA0AF20
005F606E80
18BF300000
74BE000000
3CD5000000
ENDCHAR
STARTCHAR i_x.end
ENCODING -1
SWIDTH 616 0
DWIDTH 7 0
BBX 9 9 -1 0
BITMAP
009A000000
00BB000000
0000000B20
04F78F3750
08F35F7B00
0BF02FE300
0EC01FB000
1FB4ACE300
0BE914E900
ENDCHAR
STARTCHAR o_s.end
ENCODING -1
SWIDTH 718 0
DWIDTH 9 0
BBX 10 7 -1 0
BITMAP
0000000021
007DC30BF6
06F68B87F7
0DE08A04F8
1FB0A6A5F9
2FA1D383F8
09EB30ADB1
ENDCHAR
STARTCHAR oacute_s.end
ENCODING -1
SWIDTH 719 0
DWIDTH 9 0
BBX 10 9 -1 0
BITMAP
00008A0000
0001D20000
0002300021
007DC40BF6
06F68B87F7
0DE08A04F8
1FB096A5F9
1FA1D382F8
09EB40ADB1
ENDCHAR
STARTCHAR u_x.end
ENCODING -1
SWIDTH 863 0
DWIDTH 10 0
BBX 12 6 -1 0
BITMAP
04F75F69F2A2
08F38F36F483
0BF1BE03FB80
0EC0EC01FB00
1FB6FB2ADD20
0BE7AFB36E90
ENDCHAR
STARTCHAR uni0424.loclBGR
ENCODING -1
SWIDTH 840 0
DWIDTH 10 0
BBX 10 12 0 -2
BITMAP
003ABCB000
00E50DD000
00614FC300
02AA8F9AC2
2E907F40DA
9F10AF10AE
CE00EC00CD
BE02F902F8
5F65F62CC1
05BDFCC710
000BF00000
0005500000
ENDCHAR
STARTCHAR uni0492.loclBSH
ENCODING -1
SWIDTH 459 0
DWIDTH 6 0
BBX 8 9 0 0
BITMAP
047ECBA1
486F5000
B49F3000
D3CF1000
64FFD800
03F90000
07F60000
0AF20000
0DE00000
ENDCHAR
STARTCHAR uni04AA.loclCHU
ENCODING -1
SWIDTH 497 0
DWIDTH 6 0
BBX 7 12 0 -3
BITMAP
005DCB10
05F90950
0EE10A30
5FA00000
9F600000
BF400000
BF400000
8F912910
1BEFA200
00771000
003C4000
02870000
ENDCHAR
STARTCHAR uni0418.loclSRB
ENCODING -1
SWIDTH 705 0
DWIDTH 8 0
BBX 9 9 0 0
BITMAP
018DB01FB0
2C5F805F70
B76F52EF40
C49F2DEF10
11DDB8DD00
01FFA1FA00
04FC14F700
07F408F300
0AF10BF000
ENDCHAR
STARTCHAR uni0419.loclSRB
ENCODING -1
SWIDTH 705 0
DWIDTH 8 0
BBX 9 12 0 0
BITMAP
0000110110
0000B91900
00006BA200
018DB01FB0
2C5F805F70
B76F52EF40
C49F2DEF10
11DDB8DD00
01FFA1FA00
04FC14F700
07F408F300
0AF10BF000
ENDCHAR
STARTCHAR uni0430.end
ENCODING -1
SWIDTH 467 0
DWIDTH 6 0
BBX 7 6 -1 0
BITMAP
007DAFA0
06F64F70
0DE07F40
1FB0AF10
2FA1ED00
09E99E30
ENDCHAR
STARTCHAR uni0432.end
ENCODING -1
SWIDTH 406 0
DWIDTH 5 0
BBX 6 9 -1 0
BITMAP
0008D7
006E1B
01E90B
06F438
0BF183
0EC4D4
2FA07A
1FA0A6
07EB80
ENDCHAR
STARTCHAR uni0434.end
ENCODING -1
SWIDTH 480 0
DWIDTH 6 0
BBX 7 9 -1 -3
BITMAP
007DAFA0
06F64F70
0DE07F40
1FB0AF10
2FA1EC00
09EBF900
0058F600
0379F200
01BE7000
ENDCHAR
STARTCHAR uni0435.end
ENCODING -1
SWIDTH 366 0
DWIDTH 4 0
BBX 6 6 -1 0
BITMAP
007DD3
06F595
0DE3D1
2FEA30
2FA010
09EA40
ENDCHAR
STARTCHAR uni0451.end
ENCODING -1
SWIDTH 366 0
DWIDTH 4 0
BBX 6 8 -1 0
BITMAP
006B4D
000101
007DD3
06F595
0DE3D1
2FEA30
2FA010
09EA40
ENDCHAR
STARTCHAR uni0436.end
ENCODING -1
SWIDTH 848 0
DWIDTH 10 0
BBX 12 6 -1 0
BITMAP
05BE43F64DD4
050CB6F4E852
000CDEFCF200
130E6DB8F000
694E2F87F110
3CB44F51CC80
ENDCHAR
STARTCHAR uni0437.end
ENCODING -1
SWIDTH 426 0
DWIDTH 5 0
BBX 6 9 0 -3
BITMAP
05BE70
260CF1
700CF0
704F70
07FA00
009F20
06BF40
56AE10
2BE500
ENDCHAR
STARTCHAR uni0438.end
ENCODING -1
SWIDTH 459 0
DWIDTH 6 0
BBX 7 6 -1 0
BITMAP
04F75F60
08F38F30
0BF0BE00
0EC0EB00
1FB7FB10
0BE6BE30
ENDCHAR
STARTCHAR uni0439.end
ENCODING -1
SWIDTH 459 0
DWIDTH 6 0
BBX 7 9 -1 0
BITMAP
00160040
006F1630
001A9500
04F75F60
08F38F30
0BF0BE00
0EC0EB00
1FB7FB10
0BE6BE30
ENDCHAR
STARTCHAR uni043A.end
ENCODING -1
SWIDTH 501 0
DWIDTH 6 0
BBX 7 6 -1 0
BITMAP
04F73BB0
07F77010
0BFFF700
0ED2FA00
2F91FA10
5F60BE30
ENDCHAR
STARTCHAR uni043B.end
ENCODING -1
SWIDTH 511 0
DWIDTH 6 0
BBX 8 6 -1 0
BITMAP
0001BEF1
00085CC0
000C1F90
131B4F60
6C576F60
3CC12EB0
ENDCHAR
STARTCHAR uni043C.end
ENCODING -1
SWIDTH 780 0
DWIDTH 9 0
BBX 11 6 -1 0
BITMAP
0001BE00CF40
0007AF05FF10
00096F1BDC00
02095F67F900
6C464FC3F910
2BB14F71DD10
ENDCHAR
STARTCHAR uni043D.end
ENCODING -1
SWIDTH 460 0
DWIDTH 6 0
BBX 7 6 -1 0
BITMAP
04F63F60
08F37F30
0BFBEF00
0EB0EC00
2F80FA00
5F50AD30
ENDCHAR
STARTCHAR uni043E.end
ENCODING -1
SWIDTH 439 0
DWIDTH 5 0
BBX 6 6 -1 0
BITMAP
007DC4
06F659
0DE079
1FB096
2FA1D1
09EB30
ENDCHAR
STARTCHAR uni043F.end
ENCODING -1
SWIDTH 454 0
DWIDTH 5 0
BBX 7 6 -1 0
BITMAP
04FCDC00
08F49F20
0BE0BE00
0EC0EB00
2F91FB10
5F50BE20
ENDCHAR
STARTCHAR uni0441.end
ENCODING -1
SWIDTH 341 0
DWIDTH 4 0
BBX 6 6 -1 0
BITMAP
008DC2
07F5A3
0ED010
2FA000
3F9010
0AEA30
ENDCHAR
STARTCHAR uni0442.end
ENCODING -1
SWIDTH 701 0
DWIDTH 8 0
BBX 10 6 -1 0
BITMAP
04FCDC8DB0
08F49F49F1
0BE0CE0BE0
0EC0FB0EA0
2F93F81FA1
5F56F50CD2
ENDCHAR
STARTCHAR uni0443.end
ENCODING -1
SWIDTH 460 0
DWIDTH 6 0
BBX 7 9 -1 -3
BITMAP
04F75F60
08F38F30
0BF0BF00
0EC0EC00
1FB7F900
0BECF500
019CF200
073CD000
03CD4000
ENDCHAR
STARTCHAR uni0445.end
ENCODING -1
SWIDTH 500 0
DWIDTH 6 0
BBX 6 6 0 0
BITMAP
06DB3A
257F5B
705FB1
608F70
067FC2
4908E5
ENDCHAR
STARTCHAR uni0447.end
ENCODING -1
SWIDTH 459 0
DWIDTH 6 0
BBX 6 6 0 0
BITMAP
5F75F6
8F38F3
AF4EE0
6EBFB0
001FB2
000BE3
ENDCHAR
STARTCHAR uni0448.end
ENCODING -1
SWIDTH 706 0
DWIDTH 8 0
BBX 10 6 -1 0
BITMAP
04F75F65F5
08F38F39F2
0BF0BE0CE0
0EC0EB1FB0
1FB7FB8FA1
0BE6BE6CE2
ENDCHAR
STARTCHAR uni044B.end
ENCODING -1
SWIDTH 608 0
DWIDTH 7 0
BBX 9 6 -1 0
BITMAP
05F5003D30
08F207EE00
0BE6D5CB00
0EB0B5F800
1F93E4F810
09ED41DC10
ENDCHAR
STARTCHAR uni0455.end
ENCODING -1
SWIDTH 316 0
DWIDTH 4 0
BBX 5 7 -1 0
BITMAP
000110
007F80
00BF90
046FA0
1C1FB0
591FA0
1ADB20
ENDCHAR
STARTCHAR uni0456.end
ENCODING -1
SWIDTH 209 0
DWIDTH 3 0
BBX 4 9 -1 0
BITMAP
009A
00BB
0000
04F7
08F3
0BF0
0EC0
1FB1
0BE3
ENDCHAR
STARTCHAR uni0458.end
ENCODING -1
SWIDTH 213 0
DWIDTH 3 0
BBX 6 11 -3 -3
BITMAP
0000CB
0000A9
0004F7
0008F4
000BF1
000EC0
002F90
005F60
19DF30
74BE00
3CD400
ENDCHAR
STARTCHAR uni044E.end
ENCODING -1
SWIDTH 675 0
DWIDTH 8 0
BBX 9 6 -1 0
BITMAP
04F619DC20
08F3AF4870
0BFBFC0960
0EB4F80C40
2F84F72C00
5F50AEA200
ENDCHAR
STARTCHAR uni044F.end
ENCODING -1
SWIDTH 480 0
DWIDTH 6 0
BBX 7 6 -1 0
BITMAP
004CBFA0
01F72F70
02F66F30
008EDF00
5B58BE10
3CB18E50
ENDCHAR
STARTCHAR uni0437.init
ENCODING -1
SWIDTH 455 0
DWIDTH 5 0
BBX 6 9 0 -3
BITMAP
18DC20
815F80
105F70
00BD11
1DE308
02FA82
18FC10
A5F800
8DB100
ENDCHAR
STARTCHAR uni0445.init
ENCODING -1
SWIDTH 390 0
DWIDTH 5 0
BBX 6 7 -1 0
BITMAP
0000A4
08F257
05F7C1
01FE40
08FC00
76AF17
893EA3
ENDCHAR
STARTCHAR uni0436.loclBGR
ENCODING -1
SWIDTH 882 0
DWIDTH 11 0
BBX 12 9 -1 0
BITMAP
000000570000
000000CC0000
000000F90000
05BE43F64DD4
050CB7F3E852
000CDEFCF200
130E6DB8F002
694E2F87F116
3CB44F51CC70
ENDCHAR
STARTCHAR uni043A.loclBGR
ENCODING -1
SWIDTH 518 0
DWIDTH 6 0
BBX 8 9 -1 0
BITMAP
00240000
00DD0000
01FA0000
04F74B20
07FAC200
0BFBED00
0EC0CE01
2F90EC46
5F60AEA0
ENDCHAR
STARTCHAR uni044E.loclBGR
ENCODING -1
SWIDTH 675 0
DWIDTH 8 0
BBX 11 9 -1 0
BITMAP
006700000000
00DC00000000
02F900000000
05F619DC2000
08F3AF4B9740
0BFBFC0A9200
0EB4F80C4000
2F84F73C0000
5F50AEA20000
ENDCHAR
STARTCHAR uni0493.loclBSH
ENCODING -1
SWIDTH 398 0
DWIDTH 5 0
BBX 6 6 -1 0
BITMAP
08EAB9
0CB000
1FC940
4F5000
6F4700
3EB300
ENDCHAR
STARTCHAR uni04AB.loclCHU
ENCODING -1
SWIDTH 384 0
DWIDTH 5 0
BBX 6 9 -1 -3
BITMAP
007DD3
06F684
0DE000
1FB001
2FB146
09EE70
002A20
002890
008720
ENDCHAR
STARTCHAR uni0453.loclMKD
ENCODING -1
SWIDTH 267 0
DWIDTH 3 0
BBX 5 11 -1 0
BITMAP
0006A0
001B10
000000
07BB60
000000
04F700
08F300
0BF000
0EC010
1FB560
0BE800
ENDCHAR
STARTCHAR uni0433.loclSRB
ENCODING -1
SWIDTH 267 0
DWIDTH 3 0
BBX 5 8 -1 0
BITMAP
07BB60
000000
04F700
08F300
0BF000
0EC010
1FB560
0BE800
ENDCHAR
STARTCHAR uni043F.loclSRB
ENCODING -1
SWIDTH 505 0
DWIDTH 6 0
BBX 8 8 -1 0
BITMAP
006BBB40
00000000
04F75F60
08F38F30
0BF0BE00
0EC0EB01
1FB7FB64
0BE6BE70
ENDCHAR
STARTCHAR uni0442.loclSRB
ENCODING -1
SWIDTH 752 0
DWIDTH 9 0
BBX 11 8 -1 0
BITMAP
005BBBBBB200
000000000000
04F75F65F500
08F38F39F200
0BF0BE0CE000
0EC0EB1FB010
1FB7FB8FA630
0BE6BE6CE600
ENDCHAR
STARTCHAR uni04150437
ENCODING -1
SWIDTH 940 0
DWIDTH 11 0
BBX 12 12 0 -3
BITMAP
005DC7000000
03F51D000000
06F248000000
01EA1019EB10
1CF300607F50
9F8003208F50
DF300501DC01
CF50323ED116
4DE83004F960
0000005BF800
000000B6F400
000000AD8000
ENDCHAR
STARTCHAR uni04150445
ENCODING -1
SWIDTH 797 0
DWIDTH 10 0
BBX 10 9 0 0
BITMAP
006DC80000
04F52D0000
05F32431B2
03EB17F475
2EE104F8C0
AF6002FE30
DF3001FB03
CF502ACE48
3CEA715EB1
ENDCHAR
STARTCHAR uni04010437
ENCODING -1
SWIDTH 940 0
DWIDTH 11 0
BBX 12 14 0 -3
BITMAP
001D3C500000
000101000000
005DC7000000
03F51D000000
06F248000000
01EA1019EB10
1CF300607F50
9F8003208F50
DF300501DC01
CF50323ED116
4DE83004F960
0000005BF800
000000B6F400
000000AD8000
ENDCHAR
STARTCHAR uni04010445
ENCODING -1
SWIDTH 797 0
DWIDTH 10 0
BBX 10 11 0 0
BITMAP
001D3C5000
0001010000
006DC80000
04F52D0000
05F32431B2
03EB17F475
2EE104F8C0
AF6002FE30
DF3001FB03
CF502ACE48
3CEA715EB1
ENDCHAR
STARTCHAR uni04210437
ENCODING -1
SWIDTH 973 0
DWIDTH 12 0
BBX 12 12 0 -3
BITMAP
006DCB100000
05FA09500000
0EE10B300000
5FA00006CD40
9F6000421FB0
BF4000502FB0
BF4004208F31
8F70140BF507
1AEA5000DD63
00000019EE00
00000083FA00
0000005DC200
ENDCHAR
STARTCHAR uni04210445
ENCODING -1
SWIDTH 814 0
DWIDTH 10 0
BBX 11 9 0 0
BITMAP
006DCB200000
05F90A500000
0EE105419500
5FA003F74800
9F6001FAB200
BF4000EF5000
BF4001DE0210
8F913BBF3800
1BED922EC300
ENDCHAR
STARTCHAR uni04040437
ENCODING -1
SWIDTH 973 0
DWIDTH 12 0
BBX 12 12 0 -3
BITMAP
006DDB100000
05FA09500000
0EF20B300000
5FC00006CD40
9FDB90421FB0
BF5000502FB0
BF4004208F30
8F60140BF507
1AEA5000DD63
00000019EE00
00000083FA00
0000005DC200
ENDCHAR
STARTCHAR uni04040445
ENCODING -1
SWIDTH 814 0
DWIDTH 10 0
BBX 11 9 0 0
BITMAP
006DDB200000
05FA0A500000
0EF205419500
5FC004F73800
9FDB91F98400
BF5000EC9000
BF4000CE0000
8F9129CF3810
1BED932ED400
ENDCHAR
STARTCHAR uni04300445
ENCODING -1
SWIDTH 899 0
DWIDTH 11 0
BBX 13 6 -1 0
BITMAP
007DAFA5F68600
06F54F72F85600
0DD07F30ED9000
1FA0BF00CE0110
2FC4FE39CF5910
09E96EC52ED400
ENDCHAR
STARTCHAR uni04300447
ENCODING -1
SWIDTH 993 0
DWIDTH 12 0
BBX 14 6 -1 0
BITMAP
007DAFA7F47F40
06F64F7AF1AF10
0DE07F4CE3FD00
1FB0AF18EBFA12
2FA1ED0004F751
09E99E3001DC40
ENDCHAR
STARTCHAR uni04310433
ENCODING -1
SWIDTH 816 0
DWIDTH 10 0
BBX 11 9 -1 0
BITMAP
001BDDD90000
000EFFD20000
000390000000
007DE429EC10
07F56A90AF30
0EE06E16FD00
2FA0A77FB100
1F91C1CF1060
08EB307EC810
ENDCHAR
STARTCHAR uni04310453
ENCODING -1
SWIDTH 816 0
DWIDTH 10 0
BBX 11 9 -1 0
BITMAP
001BDDD91E30
000EFFD27800
000390004100
007DE429EC10
07F56A90AF30
0EE06E16FD00
2FA0A77FB100
1F91C1CF1060
08EB307EC810
ENDCHAR
STARTCHAR uni04310451
ENCODING -1
SWIDTH 814 0
DWIDTH 10 0
BBX 12 9 -1 0
BITMAP
001DFFF30000
000EED8391A1
0004A0000000
006CE405DD50
06F6693F8780
0DE069AF3D30
2FA0A6EEB400
1FA2D1ED0270
08EC307EE910
ENDCHAR
STARTCHAR uni04310436
ENCODING -1
SWIDTH 1261 0
DWIDTH 15 0
BBX 17 9 -1 0
BITMAP
001BDDD90000000000
001EFFD20000000000
0004A0000000000000
006CE47CD34F55DD20
06F66D60E98F3F7610
0DE06D00DDEEDF1000
2FA0A701F5EA9D0010
1F91D386D3F78E0340
08EB32CC35F42DB600
ENDCHAR
STARTCHAR uni04310439
ENCODING -1
SWIDTH 935 0
DWIDTH 11 0
BBX 13 9 -1 0
BITMAP
001BDDD6B10600
001EFFB4F35400
00049000996000
006CE42F92F900
06F6695F65F600
0DE0699F38F300
2FA0A6CF0BE000
1F91D1ED1FC160
08EB309E9AE700
ENDCHAR
STARTCHAR uni0431045E
ENCODING -1
SWIDTH 916 0
DWIDTH 11 0
BBX 13 12 -1 -3
BITMAP
001BDDD6B10600
001EFFB4F35400
00049000996000
006CE42F92F900
06F6695F65F500
0DE0699F39F200
2FA0A6CF0CE000
1F91D1ED1FB340
08EB309EBFC700
00000004AF6000
00000037BF1000
0000002DE60000
ENDCHAR
STARTCHAR uni0431044D
ENCODING -1
SWIDTH 860 0
DWIDTH 10 0
BBX 11 9 -1 0
BITMAP
001BDDD90000
001EFFD20000
000490000000
006CE429CD40
06F66BB10FC0
0DE06F25BFC0
2FA0A8204F70
1F91D4C0AD10
08EB31CAB200
ENDCHAR
STARTCHAR uni04310456
ENCODING -1
SWIDTH 697 0
DWIDTH 8 0
BBX 10 9 -1 0
BITMAP
001CEEE8C0
000EED69D1
0004A00000
006CE42F90
06F6695F60
0DE0699F30
2FA0A6CF00
1F91D1ED07
08EB309E81
ENDCHAR
STARTCHAR uni04310457
ENCODING -1
SWIDTH 697 0
DWIDTH 8 0
BBX 10 9 -1 0
BITMAP
001DFFB000
000EEC4A49
0004A00000
006CE42F90
06F6695F60
0DE0699F30
2FA0A6CF00
1F91D1ED07
08EA309E81
ENDCHAR
STARTCHAR uni04310458
ENCODING -1
SWIDTH 669 0
DWIDTH 8 0
BBX 10 12 -1 -3
BITMAP
0000008100
001EFFCAC0
0007EC49B0
006CA02F90
06F6665F60
0DE0698F30
2FA0A8CE00
1F91D2FB35
08EB43FC70
00006CF600
00038AF100
0001BE6000
ENDCHAR
STARTCHAR uni04320433
ENCODING -1
SWIDTH 837 0
DWIDTH 10 0
BBX 12 9 -1 0
BITMAP
0008D7000000
006E1B000000
01E90B000000
06F43806DD20
0BF183717F50
0EC4D904EE10
2FA07A4FD200
1FA0A5AF3052
07EB705ED820
ENDCHAR
STARTCHAR uni04320453
ENCODING -1
SWIDTH 837 0
DWIDTH 10 0
BBX 12 9 -1 0
BITMAP
0008D7000D50
006E1B005A00
01E90B003100
06F43806DD20
0BF183717F50
0EC4D904EE10
2FA07A4FD200
1FA0A5AF3052
07EB705ED820
ENDCHAR
STARTCHAR uni04320436
ENCODING -1
SWIDTH 1279 0
DWIDTH 15 0
BBX 17 9 -1 0
BITMAP
0008D7000000000000
006E1B000000000000
01E90B000000000000
06F4384AE61F83CD40
0BF18540AD5F5DA670
0EC4C900AEDFCF4100
2FA07900C8BD6F2010
1FA0B4A3F2EA5F2160
07EB60CB52F71BD800
ENDCHAR
STARTCHAR uni04320437
ENCODING -1
SWIDTH 824 0
DWIDTH 10 0
BBX 12 12 -1 -3
BITMAP
0008D7000000
006E1B000000
01E90B000000
06F4383AE700
0BF18560DE00
0EC4D800DE00
2FA07A05F600
1FA0A68F9052
07EB700AE650
0000007DF200
0000056CD000
000003CD4000
ENDCHAR
STARTCHAR uni04320445
ENCODING -1
SWIDTH 851 0
DWIDTH 10 0
BBX 12 9 -1 0
BITMAP
0008D7000000
006E1B000000
01E90B000000
06F4384EA3B0
0BF185ACF1C0
0EC4D907FA40
2FA07A07F600
1FA0A54AF716
07EB74909E70
ENDCHAR
STARTCHAR uni04330437
ENCODING -1
SWIDTH 840 0
DWIDTH 10 0
BBX 12 9 -1 -3
BITMAP
029EA019E900
080CF170AF20
018FA420BF20
0BF80602F901
3FA0616EB035
1BE92007F760
0000006CF500
00000299F200
000001BE6000
ENDCHAR
STARTCHAR uni04330445
ENCODING -1
SWIDTH 740 0
DWIDTH 9 0
BBX 11 7 -1 0
BITMAP
000000007600
029EA5F52A00
080CF3F89500
028FA0EE8000
0BF800CF0000
3FA02AAF3520
1BEA812DC500
ENDCHAR
STARTCHAR uni04330447
ENCODING -1
SWIDTH 880 0
DWIDTH 11 0
BBX 12 6 -1 0
BITMAP
029EA0CE0DE0
080CF1FB1FB0
008FA4FA8F70
0BF807CECF43
3FA052009F37
1BE930005EB1
ENDCHAR
STARTCHAR uni04530437
ENCODING -1
SWIDTH 840 0
DWIDTH 10 0
BBX 12 12 -1 -3
BITMAP
0000A8000000
0002D0000000
000230000000
029EA019E900
080CF170AF20
018FA420BF20
0BF80602F901
3FA0616EB035
1BE92007F760
0000006CF500
00000299F200
000001BE6000
ENDCHAR
STARTCHAR uni04530445
ENCODING -1
SWIDTH 740 0
DWIDTH 9 0
BBX 11 9 -1 0
BITMAP
0000B7000000
0004B0000000
000000007600
029EA5F52A00
080CF3F89500
028FA0EE8000
0BF800CF0000
3FA02AAF3520
1BEA812DC500
ENDCHAR
STARTCHAR uni04530447
ENCODING -1
SWIDTH 880 0
DWIDTH 11 0
BBX 12 9 -1 0
BITMAP
0000A8000000
0002D0000000
000230000000
029EA0CE0DE0
080CF1FB1FB0
008FA4FA8F70
0BF807CECF43
3FA052009F37
1BE930005EB1
ENDCHAR
STARTCHAR uni04340447
ENCODING -1
SWIDTH 1010 0
DWIDTH 12 0
BBX 14 9 -1 -3
BITMAP
007DAFA3F74F70
06F64F76F47F40
0DE07F49F4DF10
1FB0AF1AEBFD02
2FA1EC3301FB24
09EAFB5000BD50
004AF500000000
0299F100000000
01BE6000000000
ENDCHAR
STARTCHAR uni04340458
ENCODING -1
SWIDTH 746 0
DWIDTH 9 0
BBX 11 11 -1 -3
BITMAP
00000000BB00
00000000A900
007DAFA3F800
06F64F76F500
0DE07F3AF200
1FB0AF0DD000
2FA1EC1FA340
09EAF96FC800
0037F68F5000
028BF4CE1000
01DE8DE50000
ENDCHAR
STARTCHAR uni04350437
ENCODING -1
SWIDTH 876 0
DWIDTH 11 0
BBX 12 9 -1 -3
BITMAP
007DD308DC20
06F695513F90
0DE3D2504F80
1FEA3510AE20
2FA0241DF308
09EA5001FB72
0000002AFC00
000000A4F800
0000007DB100
ENDCHAR
STARTCHAR uni04350445
ENCODING -1
SWIDTH 762 0
DWIDTH 9 0
BBX 11 6 -1 0
BITMAP
007DD3EB4B00
06F695CE1B00
0DE3D19FB300
1FEA307F6000
1FB004AF9550
08EB950BE900
ENDCHAR
STARTCHAR uni04350447
ENCODING -1
SWIDTH 889 0
DWIDTH 11 0
BBX 12 6 -1 0
BITMAP
007DD3AF1BF0
06F695DD0EC0
0DE3D3FA4F90
1FEA38EFEF60
2FA046007F48
09EA50004EC3
ENDCHAR
STARTCHAR uni04510437
ENCODING -1
SWIDTH 876 0
DWIDTH 11 0
BBX 12 11 -1 -3
BITMAP
006B4D000000
000101000000
007DD308DC20
06F695513F90
0DE3D2504F80
1FEA3510AE20
2FA0241DF308
09EA5001FB72
0000002AFC00
000000A4F800
0000007DB100
ENDCHAR
STARTCHAR uni04510445
ENCODING -1
SWIDTH 762 0
DWIDTH 9 0
BBX 11 8 -1 0
BITMAP
006B4D000000
000101000000
007DD3EB4B00
06F695CE1B00
0DE3D19FB300
1FEA307F6000
1FB004AF9550
08EB950BE900
ENDCHAR
STARTCHAR uni04510447
ENCODING -1
SWIDTH 889 0
DWIDTH 11 0
BBX 12 8 -1 0
BITMAP
006B4D000000
000101000000
007DD3AF1BF0
06F695DD0EC0
0DE3D3FA4F90
1FEA39EFEF60
2FA057007F48
09EA50004EC3
ENDCHAR
STARTCHAR uni04360447
ENCODING -1
SWIDTH 1392 0
DWIDTH 17 0
BBX 18 6 -1 0
BITMAP
05BE43F64DD4BF0BF0
050CB6F4E852EC0EC0
000CDEFCF203FB8F90
140E6DB8F007BEBF53
694E2F87F135008F58
3CB44F51CC70003EC2
ENDCHAR
STARTCHAR uni04370437
ENCODING -1
SWIDTH 921 0
DWIDTH 11 0
BBX 12 9 0 -3
BITMAP
05BE703AE800
370BF150AF20
800CF510BF10
704F7603F801
07FA066FB035
009F7108F670
04CF404BF600
38AE1299F200
2CD501BE6000
ENDCHAR
STARTCHAR uni04380447
ENCODING -1
SWIDTH 1010 0
DWIDTH 12 0
BBX 14 6 -1 0
BITMAP
04F75F63F74F70
08F38F37F47F40
0BF0BE0AF4DF10
0EC0EB0BEBFC03
1FB7FB6301FB64
0BE6BE6000BE70
ENDCHAR
STARTCHAR uni04390447
ENCODING -1
SWIDTH 1010 0
DWIDTH 12 0
BBX 14 9 -1 0
BITMAP
00160040000000
006F1630000000
001A9500000000
04F75F64F74F70
08F38F37F47F40
0BF0BE0AF4DF10
0EC0EB0BEBFC03
1FB7FB6301FB64
0BE6BE6000BE70
ENDCHAR
STARTCHAR uni043A0447
ENCODING -1
SWIDTH 1016 0
DWIDTH 12 0
BBX 14 6 -1 0
BITMAP
04F73BA1FA2F90
07F77014F75F60
0BFFF707F5BF30
0ED2FA09ECEE02
2F91FA5500DD36
5F60BE80009E90
ENDCHAR
STARTCHAR uni045C0447
ENCODING -1
SWIDTH 1016 0
DWIDTH 12 0
BBX 14 9 -1 0
BITMAP
00005C00000000
0000C300000000
00013000000000
04F73BA1FA2F90
07F77014F75F60
0BFFF707F5BF30
0ED2FA09ECEE02
2F91FA5500DD36
5F60BE80009E90
ENDCHAR
STARTCHAR uni043B0447
ENCODING -1
SWIDTH 1061 0
DWIDTH 13 0
BBX 15 6 -1 0
BITMAP
0001BEF19F2AF100
00075CC0CD0DD000
000B1FA0FC6FA000
141B4F63CEBF7210
6D576F46006F5600
2CC13EA2003EA200
ENDCHAR
STARTCHAR uni043C0447
ENCODING -1
SWIDTH 1276 0
DWIDTH 15 0
BBX 17 6 -1 0
BITMAP
0005F705F91FA1FA00
0008F80CF64F75F700
000AF95EF37F7BF300
1409FABBE09ECDF030
6C46EE8DD5600DE460
2BA0EE18E90008E900
ENDCHAR
STARTCHAR uni043D0447
ENCODING -1
SWIDTH 1011 0
DWIDTH 12 0
BBX 14 6 -1 0
BITMAP
04F63F63F74F70
08F37F36F47F40
0BFBEF19F6DF10
0EB0EC0AEBFD03
2F80FA3300FB24
5F50AD5000AD50
ENDCHAR
STARTCHAR uni043E0433
ENCODING -1
SWIDTH 804 0
DWIDTH 10 0
BBX 11 6 -1 0
BITMAP
007DC419DC20
06F69C818F50
0DE07905ED10
1FB0968FB100
2FA1C1EE0170
09EB308EB700
ENDCHAR
STARTCHAR uni043E0453
ENCODING -1
SWIDTH 804 0
DWIDTH 10 0
BBX 11 9 -1 0
BITMAP
0000000008A0
000000001D10
000000002300
007DC419DC20
06F69C818F50
0DE07905ED10
1FB0968FB100
2FA1C1EE0170
09EB308EB700
ENDCHAR
STARTCHAR uni043E0436
ENCODING -1
SWIDTH 1271 0
DWIDTH 15 0
BBX 17 6 -1 0
BITMAP
007DC45BE52F73CD40
06F68D70BB6F4E8530
0DE07A00BEDFCF3000
1FB0A620D6DC7F0020
2FA1D694E2F96F1250
09EB33CB43F61CC700
ENDCHAR
STARTCHAR uni043E0437
ENCODING -1
SWIDTH 837 0
DWIDTH 10 0
BBX 12 9 -1 -3
BITMAP
007DC43AE800
06F69C60BF20
0DE07900BF10
1FB09603F801
2FA1D16FB034
09EB3008F760
0000006CF500
0000038AF100
000001BD6000
ENDCHAR
STARTCHAR uni043E043B
ENCODING -1
SWIDTH 992 0
DWIDTH 12 0
BBX 14 6 -1 0
BITMAP
007DC30009DF40
06F65900589F10
0DE0690093DD00
1FB08700C1FA00
2FA1D3E3A3F752
09ECA5CC31CD50
ENDCHAR
STARTCHAR uni043E043C
ENCODING -1
SWIDTH 1207 0
DWIDTH 14 0
BBX 16 6 -1 0
BITMAP
007DC4002FA02FC0
06F559005FB09F90
0DE069008EC2EF60
1FA09610ACD8BF21
2FB4D6E29CEB9F48
09EDA4BA2BF45EC1
ENDCHAR
STARTCHAR uni043E0445
ENCODING -1
SWIDTH 850 0
DWIDTH 10 0
BBX 12 6 -1 0
BITMAP
007DC30EC4B0
06F6797DE1B0
0DE09C29FB40
2FB0960AF600
2FA1D2A6F715
09EB42D2AE70
ENDCHAR
STARTCHAR uni043E0459
ENCODING -1
SWIDTH 1179 0
DWIDTH 14 0
BBX 15 6 -1 0
BITMAP
007DC30009DF4000
06F65900589F3300
0DE0690093DECF70
1FB08700C1F90F90
2FA1D3E3A2F73F40
09ECA6CC30ADC600
ENDCHAR
STARTCHAR uni043E044D
ENCODING -1
SWIDTH 867 0
DWIDTH 10 0
BBX 11 6 -1 0
BITMAP
007DC419CE50
06F69C910ED0
0DE07A04BFD0
1FB0A6202F90
2FA1D2D09E20
09EB30BAC300
ENDCHAR
STARTCHAR uni043F0447
ENCODING -1
SWIDTH 1010 0
DWIDTH 12 0
BBX 14 6 -1 0
BITMAP
04FCDB03F74F70
08F49F26F48F40
0BE0BF09F5DF10
0EC0EC0AEBFD03
2F91F92301FB24
5F50BD5000BD50
ENDCHAR
STARTCHAR uni04400437
ENCODING -1
SWIDTH 890 0
DWIDTH 11 0
BBX 12 10 -1 -3
BITMAP
018400000000
05FCDC16BE40
08F46FA21FB0
0BF06F402FB0
0EC0AF108F31
2F93FA0BF608
5FDEA100DD83
9F200019EE00
CE000083FB00
D800005CC200
ENDCHAR
STARTCHAR uni04410437
ENCODING -1
SWIDTH 876 0
DWIDTH 11 0
BBX 12 9 -1 -3
BITMAP
007DD308DC20
06F663513F90
0DE001504F80
1FB00510AE21
2FA0241DF308
09EA5001FB72
0000002AFB00
000000A4F800
0000007DB100
ENDCHAR
STARTCHAR uni04410445
ENCODING -1
SWIDTH 755 0
DWIDTH 9 0
BBX 11 6 -1 0
BITMAP
008DD3FA5A00
07F593DC2A00
0ED000AFA200
3F90008F4010
2FA005AF8640
09EB940CE700
ENDCHAR
STARTCHAR uni04410447
ENCODING -1
SWIDTH 889 0
DWIDTH 11 0
BBX 12 6 -1 0
BITMAP
007DD3AF1BF0
06F684DC0EC0
0DE002FB5F90
1FB006BECF62
2FA044007F47
09EA40003EC2
ENDCHAR
STARTCHAR uni0441044A
ENCODING -1
SWIDTH 841 0
DWIDTH 10 0
BBX 11 6 -1 0
BITMAP
007DD3BCE200
06F687E79000
0DE0206FBD60
1FB002ED0BD0
2FA027FA1E90
09EA608EC810
ENDCHAR
STARTCHAR uni04420447
ENCODING -1
SWIDTH 1257 0
DWIDTH 15 0
BBX 17 6 -1 0
BITMAP
04FCDC8DB04F75F600
08F49F49F17F38F400
0BE0CE0BE0AF5EF100
0EC0FB0EB0AEBFD030
2F93F81F93301FA330
5F56F50BD5000BD500
ENDCHAR
STARTCHAR uni04430447
ENCODING -1
SWIDTH 989 0
DWIDTH 12 0
BBX 14 9 -1 -3
BITMAP
04F75F67F48F30
08F38F3AF1BE00
0BF0CE0EE4FC00
0EC0FB2CEBF812
1FC9F87104F991
0BEBFA3001DD40
008DF200000000
065DC000000000
03ED4000000000
ENDCHAR
STARTCHAR uni04430458
ENCODING -1
SWIDTH 725 0
DWIDTH 9 0
BBX 10 11 -1 -3
BITMAP
00000001E7
00000001C6
04F75F67F4
08F38F3AF1
0BF0BE0DD0
0EC0EB2F91
1FB7F85F68
0BECF69FA3
007DF7DF00
066DE0EB00
03CEACC200
ENDCHAR
STARTCHAR uni045E0447
ENCODING -1
SWIDTH 989 0
DWIDTH 12 0
BBX 14 12 -1 -3
BITMAP
00160040000000
006F1630000000
001A9500000000
04F75F67F48F30
08F38F3AF1BE00
0BF0CE0EE4FC00
0EC0FB2CEBF812
1FC9F87104F991
0BEBFA3001DD40
008DF200000000
065DC000000000
03ED4000000000
ENDCHAR
STARTCHAR uni045E0458
ENCODING -1
SWIDTH 725 0
DWIDTH 9 0
BBX 10 12 -1 -3
BITMAP
0000001000
005E1452E8
002A9601B5
04F75F67F4
08F38F3AF1
0BF0BE0DD0
0EC0EB2F91
1FB7F85F68
0BECF69FA3
006CF2CF00
065EE3FB00
03ED8EC200
ENDCHAR
STARTCHAR uni04440437
ENCODING -1
SWIDTH 1148 0
DWIDTH 14 0
BBX 16 12 -1 -3
BITMAP
0000013000000000
000009E000000000
00000DB000000000
007EAFCCD16BE500
06F64F53FB30FD00
0DE07F13F500FC00
1FA0AD06F206F400
2F91EA0CB0AF7071
0AE9FDDB200BD640
0006F400019EF100
0009F100074EC000
000B900004CD3000
ENDCHAR
STARTCHAR uni04450447
ENCODING -1
SWIDTH 1027 0
DWIDTH 12 0
BBX 13 6 0 0
BITMAP
06DB3A0FB1FA00
347F5B3F74F700
705FA16F7BF400
509F607ECDF130
065E81500DE050
4807E70008E700
ENDCHAR
STARTCHAR uni0445044A
ENCODING -1
SWIDTH 1006 0
DWIDTH 12 0
BBX 12 6 0 0
BITMAP
05DA4B2CCC00
258F2C79B500
706FC308FBC3
705F602F91F8
13AF80CF64F4
3909E94DDC60
ENDCHAR
STARTCHAR uni04470447
ENCODING -1
SWIDTH 1010 0
DWIDTH 12 0
BBX 13 6 0 0
BITMAP
5F75F63F74F700
8F38F37F47F400
AF4EE0AF4DF100
6EBFB0BEBFC030
001FB6301FB640
000BE6000BE700
ENDCHAR
STARTCHAR uni04480447
ENCODING -1
SWIDTH 1257 0
DWIDTH 15 0
BBX 17 6 -1 0
BITMAP
04F75F65F54F75F600
08F38F39F27F38F300
0BF0BE0CE0AF4DF000
0EC0EB1FB0BEBFC030
1FB7FB8FA6201FB630
0BE6BE6CE6000BE600
ENDCHAR
STARTCHAR uni045F0447
ENCODING -1
SWIDTH 1010 0
DWIDTH 12 0
BBX 14 9 -1 -3
BITMAP
04F75F63F74F70
08F38F37F47F40
0BF0BE0AF4DF10
0EC0EB0BEBFC03
1FB7FB6301FB64
0BE7BE6000BE70
000C0000000000
002F6000000000
000B3000000000
ENDCHAR
STARTCHAR uni044B0447
ENCODING -1
SWIDTH 1157 0
DWIDTH 14 0
BBX 16 6 -1 0
BITMAP
05F5003D37F47F30
08F207EE0AF1BF00
0BE6D5CB0DE1EC00
0EB0B5F82DEBF911
1F93E5F89104F881
09ED41DE5001DD40
ENDCHAR
STARTCHAR uni04550437
ENCODING -1
SWIDTH 840 0
DWIDTH 10 0
BBX 12 10 -1 -3
BITMAP
000220000000
007F802AE900
009F9070AF20
045FA520BF20
1C1FB602F901
591FD26EB035
1ADC4007F860
0000006CF500
00000299F200
000001BE6000
ENDCHAR
STARTCHAR uni04550445
ENCODING -1
SWIDTH 727 0
DWIDTH 9 0
BBX 11 7 -1 0
BITMAP
001530009400
007F86F54700
008F93F9B200
053FA0FE4000
1C1FB2EE0210
571FD9AF5900
1ADB203EC300
ENDCHAR
STARTCHAR uni04550447
ENCODING -1
SWIDTH 909 0
DWIDTH 11 0
BBX 13 7 -1 0
BITMAP
00132000000000
007F807F47F400
00AF90AF1BF100
054FA0EE4FC000
1C1FB69EBF9120
571FD4004F8710
1ADB20001DD400
ENDCHAR
STARTCHAR uni04540437
ENCODING -1
SWIDTH 876 0
DWIDTH 11 0
BBX 12 9 -1 -3
BITMAP
007DD408DC20
06F452513F90
0DEB31504F80
1FA00510AE21
2FA0241DF308
09EA5001FB72
0000002AFB00
000000A4F800
0000007DB100
ENDCHAR
STARTCHAR uni04540445
ENCODING -1
SWIDTH 755 0
DWIDTH 9 0
BBX 11 6 -1 0
BITMAP
008DD3FA5A00
07F372DD3900
0EEB30AFA100
3F80008F4020
2FA006AF9730
09EB930BE600
ENDCHAR
STARTCHAR uni04540447
ENCODING -1
SWIDTH 889 0
DWIDTH 11 0
BBX 12 6 -1 0
BITMAP
007DD3AF1BF0
06F463DC0EC0
0DEB32FB7F90
1FA006BEBF62
2FA043007F47
09E930003EC2
ENDCHAR
STARTCHAR uni044D0437
ENCODING -1
SWIDTH 837 0
DWIDTH 10 0
BBX 12 9 -1 -3
BITMAP
02ADD34AE800
0401FD60BF20
007CF900BF10
0205F403F802
590BB06FB053
3CBA1007F860
0000006CF500
0000038AF100
000001BD6000
ENDCHAR
STARTCHAR uni04560447
ENCODING -1
SWIDTH 763 0
DWIDTH 9 0
BBX 11 9 -1 0
BITMAP
009A00000000
00BB00000000
000000000000
04F73F84F800
08F36F57F400
0BF09F5DF100
0EC0AEBED030
1FB6300FC540
0BE7000AE700
ENDCHAR
STARTCHAR uni04570447
ENCODING -1
SWIDTH 763 0
DWIDTH 9 0
BBX 11 8 -1 0
BITMAP
0A7790000000
011110000000
04F73F84F800
08F36F57F400
0BF09F5DF100
0EC0AEBED030
1FB6300FC540
0BE7000AE700
ENDCHAR
STARTCHAR uni04570457
ENCODING -1
SWIDTH 543 0
DWIDTH 7 0
BBX 8 8 -1 0
BITMAP
0A7C6E6C
01110101
04F71FA0
08F35F60
0BF08F30
0EC0BF01
1FB5FE38
0BE88EA1
ENDCHAR
STARTCHAR uni04580447
ENCODING -1
SWIDTH 743 0
DWIDTH 9 0
BBX 13 11 -3 -3
BITMAP
0000CA00000000
0000B800000000
0004F77F47F400
0007F4AF1AF100
000BF1DE4FC000
000EC1CEBF9120
002F97104FA910
005FB4001DD500
07DF2000000000
56CD0000000000
3CD40000000000
ENDCHAR
STARTCHAR uni04580458
ENCODING -1
SWIDTH 480 0
DWIDTH 6 0
BBX 10 11 -3 -3
BITMAP
0000CA1D80
0000B81C70
0004F76F50
0007F3AF10
000AF0DD00
000DC1FA21
002F85F790
005F9BFB30
05BF3BF100
56DE3EB000
3ED8ED3000
ENDCHAR
STARTCHAR uni045B0447
ENCODING -1
SWIDTH 990 0
DWIDTH 12 0
BBX 14 12 -1 -3
BITMAP
00580000000000
00EC0000000000
09FEB100000000
05F60008F39F20
08FAC80CE0CE00
0BF2BE0ED4FA00
0EC0DB3CEBF711
2F91F87005F890
5F65FA3002DD30
007DF100000000
056BB000000000
03CD3000000000
ENDCHAR
STARTCHAR uni045B0458
ENCODING -1
SWIDTH 722 0
DWIDTH 9 0
BBX 10 11 -1 -3
BITMAP
00AB0002E7
09FEB10010
05F60007F4
08FAC80BF1
0BF2BE0EC0
0EC0EC2F91
2F92F85F68
5F65F69FA3
005BF2CE00
056DD3FA00
03ED9EC200
ENDCHAR
STARTCHAR uni044E0433
ENCODING -1
SWIDTH 1050 0
DWIDTH 13 0
BBX 14 6 -1 0
BITMAP
04F619DC33AEB0
08F3AF4BC70AF2
0BFBFC0A707FC0
0EB4F80C3AF911
2F84F73C1FC025
5F50AEA20AEA50
ENDCHAR
STARTCHAR uni044E0453
ENCODING -1
SWIDTH 1050 0
DWIDTH 13 0
BBX 14 9 -1 0
BITMAP
000000000000B7
000000000003C0
00000000000220
04F619DC33AEB0
08F3AF4BC70AF2
0BFBFC0A707FC0
0EB4F80C3AF911
2F84F73C1FC025
5F50AEA20AEA50
ENDCHAR
STARTCHAR uni044E0436
ENCODING -1
SWIDTH 1507 0
DWIDTH 18 0
BBX 20 6 -1 0
BITMAP
04F619DC27BD35F45DD2
08F3AF4BD50E99F3F661
0BFBFC0A800EDEEDF100
0EB4F80C421F4F9AD002
2F84F73C876D3F69D043
5F50AEA24CB36F33DB50
ENDCHAR
STARTCHAR uni044E0437
ENCODING -1
SWIDTH 1073 0
DWIDTH 13 0
BBX 15 9 -1 -3
BITMAP
04F619DC35AE6000
08F3AF4BC40DE000
0BFBFC0A700EE000
0EB4F80C305F6010
2F84F73C08F80620
5F50AEA200AE6500
0000000007DF2000
0000000056CD0000
000000003CD40000
ENDCHAR
STARTCHAR uni044E043B
ENCODING -1
SWIDTH 1228 0
DWIDTH 15 0
BBX 17 6 -1 0
BITMAP
04F619DC2001BEF100
08F3AF4860075CD000
0BFBFC09700B1FA000
0EB4F80B530B3F7110
2F84F72C5D486F4600
5F50AEC96CC12DB300
ENDCHAR
STARTCHAR uni044E043C
ENCODING -1
SWIDTH 1443 0
DWIDTH 17 0
BBX 19 6 -1 0
BITMAP
04F619DC2004F804FA00
08F3AF486008F90BF700
0BFBFC097009F93EF400
0EB4F80B5209FA9BF120
2F84F72D5D36ED8CD160
5F50AEC96CA1DF17E800
ENDCHAR
STARTCHAR uni044E0445
ENCODING -1
SWIDTH 1088 0
DWIDTH 13 0
BBX 15 6 -1 0
BITMAP
04F619DC22FA5A00
08F3AF4BA9DD5800
0BFBFC0A90AF8000
0EB4F80C45EF3010
2F84F73C2B4F6440
5F50AEA23C1BD500
ENDCHAR
STARTCHAR uni044E0459
ENCODING -1
SWIDTH 1415 0
DWIDTH 17 0
BBX 18 6 -1 0
BITMAP
04F619DC2001BEF100
08F3AF4860075CD650
0BFBFC09700B1FB8F5
0EB4F80B530B3F62F7
2F84F72C6D485F47E2
5F50AEC96CC11CDC40
ENDCHAR
STARTCHAR uni044E044D
ENCODING -1
SWIDTH 1103 0
DWIDTH 13 0
BBX 14 6 -1 0
BITMAP
04F619DC229CD3
08F3AF4BB801FA
0BFBFC0A706BFA
0EB4F80C3205F6
2F84F73C4B0BD0
5F50AEA22CAB20
ENDCHAR
STARTCHAR uni044F0447
ENCODING -1
SWIDTH 1030 0
DWIDTH 12 0
BBX 14 6 -1 0
BITMAP
005CBFA0FB1FB0
01F72F73F83F80
02F65F46F68F50
018EDF18FEEF21
5C58BD0700CE07
3DB18E91008E81
ENDCHAR
STARTCHAR uni04300445.liga
ENCODING -1
SWIDTH 884 0
DWIDTH 11 0
BBX 12 6 -1 0
BITMAP
007DAFA5F686
06F54F72F856
0DD07F30ECA0
1FA0BF00CF00
2FC4FE39CF50
09E96EC42EB0
ENDCHAR
STARTCHAR uni04300447.liga
ENCODING -1
SWIDTH 947 0
DWIDTH 11 0
BBX 13 6 -1 0
BITMAP
007DAFA7F47F40
06F64F7AF1AF10
0DE07F4CE3FD00
1FB0AF18EBFA00
2FA1ED0004F700
09E99E3001DC10
ENDCHAR
STARTCHAR uni04310451.liga
ENCODING -1
SWIDTH 746 0
DWIDTH 9 0
BBX 12 9 -1 0
BITMAP
001DFFF30000
000EED8391A1
0004A0000000
006CE405DD50
06F5693F8680
0DD079AF3C30
2FA0B6EFB400
1FB4D1EE2400
08EC307EE500
ENDCHAR
STARTCHAR uni04310436.liga
ENCODING -1
SWIDTH 1258 0
DWIDTH 15 0
BBX 17 9 -1 0
BITMAP
001BDDD90000000000
001EFFD20000000000
0004A0000000000000
006CE47CD34F54DD30
06F66D60E98F3E7510
0DE06D00DDEEDF1000
2FA0A701F5EA9E0000
1F91D386D3F78E0100
08EB32CC35F42DB700
ENDCHAR
STARTCHAR uni04310439.liga
ENCODING -1
SWIDTH 901 0
DWIDTH 11 0
BBX 12 9 -1 0
BITMAP
001BDDD6B106
001EFFB4F354
000490009960
006CE42F92F9
06F6695F65F6
0DE0699F38F3
2FA0A6CF0BE0
1F91D1ED1FC0
08EB309E9AE4
ENDCHAR
STARTCHAR uni0431045E.liga
ENCODING -1
SWIDTH 890 0
DWIDTH 11 0
BBX 12 12 -1 -3
BITMAP
001BDDD6B106
001EFFB4F354
000490009960
006CE42F93F9
06F5695F66F6
0DD0799F39F2
2FA0B6CE0CE0
1FB4D1ED5FB0
08EC309ECF80
00000018AF50
00000055AF10
0000002BE500
ENDCHAR
STARTCHAR uni04310456.liga
ENCODING -1
SWIDTH 639 0
DWIDTH 8 0
BBX 10 9 -1 0
BITMAP
001CEEE8C0
000EED69D1
0004A00000
006CE42F90
06F6695F60
0DE0699F30
2FA0A6CF00
1F91D1ED00
08EB309E50
ENDCHAR
STARTCHAR uni04310457.liga
ENCODING -1
SWIDTH 638 0
DWIDTH 8 0
BBX 10 9 -1 0
BITMAP
001DFFB000
000EEC4A49
0004A00000
006CE42F90
06F6695F60
0DE0699F30
2FA0A6CF00
1F91D1EC00
08EA309E40
ENDCHAR
STARTCHAR uni04310458.liga
ENCODING -1
SWIDTH 638 0
DWIDTH 8 0
BBX 9 12 -1 -3
BITMAP
0000008100
001EFFCAC0
0007EC49B0
006CA02F90
06F6665F60
0DE0698F30
2FA0A8CE00
1F91D2EC00
08EB43F800
00008AF500
000469F100
0001BE6000
ENDCHAR
STARTCHAR uni04320436.liga
ENCODING -1
SWIDTH 1275 0
DWIDTH 15 0
BBX 17 9 -1 0
BITMAP
0008D7000000000000
006E1B000000000000
01E90B000000000000
06F4384AE61F83CD40
0BF18540AD5F5DA670
0EC4C900AEDFCF4100
2FA07900C8BD6F2000
1FA0B4A3F2EA5F2010
07EB60CB52F71BC900
ENDCHAR
STARTCHAR uni04320437.liga
ENCODING -1
SWIDTH 752 0
DWIDTH 9 0
BBX 10 12 -1 -3
BITMAP
0008D70000
006E1B0000
01E90B0000
06F4383AE7
0BF18560DE
0EC4D800DE
2FA07A05F6
1FA0A68F90
07EB700BF1
0000018BF3
0000064BE0
000003CD40
ENDCHAR
STARTCHAR uni04320445.liga
ENCODING -1
SWIDTH 842 0
DWIDTH 10 0
BBX 11 9 -1 0
BITMAP
0008D7000000
006E1B000000
01E90B000000
06F4384EA3B0
0BF185ACF1C0
0EC4D907FA40
2FA07A06F700
1FA0A54AF900
07EB7490AE40
ENDCHAR
STARTCHAR uni04330437.liga
ENCODING -1
SWIDTH 768 0
DWIDTH 9 0
BBX 11 9 -1 -3
BITMAP
029EA019E900
080CF170AF20
018FA420BF20
0BF80602F900
3FA0616EC000
1BE92007F300
0000008AF500
00000479F200
000001BE6000
ENDCHAR
STARTCHAR uni04330445.liga
ENCODING -1
SWIDTH 725 0
DWIDTH 9 0
BBX 10 7 -1 0
BITMAP
0000000076
029EA5F52A
080CF3F994
018FA0EE70
0BF800DF00
3FA0299F30
1BEA712DC1
ENDCHAR
STARTCHAR uni04330447.liga
ENCODING -1
SWIDTH 834 0
DWIDTH 10 0
BBX 11 6 -1 0
BITMAP
029EA0CE0DD0
080CF1FB1FA0
008FA4FA8F70
0BF807CECF40
3FA052009F20
1BE930005E90
ENDCHAR
STARTCHAR uni04530437.liga
ENCODING -1
SWIDTH 768 0
DWIDTH 9 0
BBX 11 12 -1 -3
BITMAP
0000A8000000
0002D0000000
000230000000
029EA019E900
080CF170AF20
018FA420BF20
0BF80602F900
3FA0616EC000
1BE92007F300
0000008AF500
00000479F200
000001BE6000
ENDCHAR
STARTCHAR uni04530445.liga
ENCODING -1
SWIDTH 725 0
DWIDTH 9 0
BBX 10 9 -1 0
BITMAP
0000B70000
0004B00000
0000000076
029EA5F52A
080CF3F994
018FA0EE70
0BF800DF00
3FA0299F30
1BEA712DC1
ENDCHAR
STARTCHAR uni04530447.liga
ENCODING -1
SWIDTH 834 0
DWIDTH 10 0
BBX 11 9 -1 0
BITMAP
0000A8000000
0002D0000000
000230000000
029EA0CE0DD0
080CF1FB1FA0
008FA4FA8F70
0BF807CECF40
3FA052009F20
1BE930005E90
ENDCHAR
STARTCHAR uni04340447.liga
ENCODING -1
SWIDTH 965 0
DWIDTH 12 0
BBX 13 9 -1 -3
BITMAP
007DAFA3F74F70
06F64F76F47F40
0DE07F49F4DF10
1FB0AF1AEBFD00
2FA1EC3300FB00
09EAFC5000BD30
004AF500000000
0299F100000000
01BE6000000000
ENDCHAR
STARTCHAR uni04340458.liga
ENCODING -1
SWIDTH 715 0
DWIDTH 9 0
BBX 10 11 -1 -3
BITMAP
00000000BB
00000000A9
007DAFA3F8
06F64F76F5
0DE07F3AF1
1FB0AF0DD0
2FA1EC1FA0
09EAF96F70
0037F68F40
028BF4CE00
01DE8DE500
ENDCHAR
STARTCHAR uni04350437.liga
ENCODING -1
SWIDTH 804 0
DWIDTH 10 0
BBX 11 9 -1 -3
BITMAP
007DD308DC20
06F695513F90
0DE3D2504F80
1FEA3510AE20
2FA0241DF400
09EA5001FA00
00000048FC00
000000A2F800
0000007DB100
ENDCHAR
STARTCHAR uni04350445.liga
ENCODING -1
SWIDTH 747 0
DWIDTH 9 0
BBX 10 6 -1 0
BITMAP
007DD3EB4B
06F695CE1B
0DE3D19FB3
1FEA307F60
1FB003BF70
08EB960BE4
ENDCHAR
STARTCHAR uni04350447.liga
ENCODING -1
SWIDTH 844 0
DWIDTH 10 0
BBX 12 6 -1 0
BITMAP
007DD3AF1BF1
06F695DD0EC0
0DE3D3FA4F90
1FEA38EFEF60
2FA046007F40
09EA50004EB0
ENDCHAR
STARTCHAR uni04510437.liga
ENCODING -1
SWIDTH 804 0
DWIDTH 10 0
BBX 11 11 -1 -3
BITMAP
006B4D000000
000101000000
007DD308DC20
06F695513F90
0DE3D2504F80
1FEA3510AE20
2FA0241DF400
09EA5001FA00
00000048FC00
000000A2F800
0000007DB100
ENDCHAR
STARTCHAR uni04510445.liga
ENCODING -1
SWIDTH 747 0
DWIDTH 9 0
BBX 10 8 -1 0
BITMAP
006B4D0000
0001010000
007DD3EB4B
06F695CE1B
0DE3D19FB3
1FEA307F60
1FB003BF70
08EB960BE4
ENDCHAR
STARTCHAR uni04510447.liga
ENCODING -1
SWIDTH 844 0
DWIDTH 10 0
BBX 12 8 -1 0
BITMAP
006B4D000000
000101000000
007DD3AF1BF1
06F695DD0EC0
0DE3D3FA4F90
1FEA38EFEF60
2FA046007F40
09EA50004EB0
ENDCHAR
STARTCHAR uni04360447.liga
ENCODING -1
SWIDTH 1341 0
DWIDTH 16 0
BBX 17 6 -1 0
BITMAP
05BE43F64DD4BF0BF0
050CB6F4E852EC0EC0
000CDEFCF203FB8F90
140E6DB8F007BEBF50
694E2F87F135008F50
3CB44F51CC70003EB0
ENDCHAR
STARTCHAR uni04370437.liga
ENCODING -1
SWIDTH 849 0
DWIDTH 10 0
BBX 11 9 0 -3
BITMAP
05BE703AE800
370BF150AF20
800CF510BF10
704F7603F800
07FA066FB000
009F7108F300
04CF506AF500
38AE1479E200
2CE501BE5000
ENDCHAR
STARTCHAR uni04380447.liga
ENCODING -1
SWIDTH 964 0
DWIDTH 12 0
BBX 13 6 -1 0
BITMAP
04F75F63F74F70
08F38F37F47F40
0BF0BE0AF4DF10
0EC0EB0BEBFC00
1FB7FB6301FB10
0BE6BE6000BE40
ENDCHAR
STARTCHAR uni04390447.liga
ENCODING -1
SWIDTH 964 0
DWIDTH 12 0
BBX 13 9 -1 0
BITMAP
00160040000000
006F1630000000
001A9500000000
04F75F64F74F70
08F38F37F47F40
0BF0BE0AF4DF10
0EC0EB0BEBFC00
1FB7FB6301FB10
0BE6BE6000BE40
ENDCHAR
STARTCHAR uni043A0447.liga
ENCODING -1
SWIDTH 978 0
DWIDTH 12 0
BBX 13 6 -1 0
BITMAP
04F73BA1FA2F90
07F77014F75F60
0BFFF707F5BF30
0ED2FA09ECEF00
2F91FA5500DD10
5F60BE80008E60
ENDCHAR
STARTCHAR uni045C0447.liga
ENCODING -1
SWIDTH 978 0
DWIDTH 12 0
BBX 13 9 -1 0
BITMAP
00005C00000000
0000C300000000
00013000000000
04F73BA1FA2F90
07F77014F75F60
0BFFF707F5BF30
0ED2FA09ECEF00
2F91FA5500DD10
5F60BE80008E60
ENDCHAR
STARTCHAR uni043B0447.liga
ENCODING -1
SWIDTH 1015 0
DWIDTH 12 0
BBX 14 6 -1 0
BITMAP
0001BEF19F2AF1
00075CC0CD0DD0
000B1FA0FC6FA0
141B4F63CEBF70
6D576F46007F40
2CC13EA2003EA0
ENDCHAR
STARTCHAR uni043C0447.liga
ENCODING -1
SWIDTH 1231 0
DWIDTH 15 0
BBX 16 6 -1 0
BITMAP
0005F705F91FA1FA
0008F80CF64F75F7
000AF95EF37F7BF3
1409FABBE09ECDF1
6C46EE8DD5600DE2
2BA0EE18E90008E6
ENDCHAR
STARTCHAR uni043D0447.liga
ENCODING -1
SWIDTH 965 0
DWIDTH 12 0
BBX 13 6 -1 0
BITMAP
04F63F63F74F70
08F37F36F47F40
0BFBEF19F6DF10
0EB0EC0AEBFD00
2F80FA3300FB00
5F50AD5000AD30
ENDCHAR
STARTCHAR uni043E0436.liga
ENCODING -1
SWIDTH 1268 0
DWIDTH 15 0
BBX 17 6 -1 0
BITMAP
007DC45BE52F73CD40
06F68D70BB6F4E9530
0DE07A00BEDFCF3000
1FB0A620D6DC7F0000
2FA1D694E2F96F1010
09EB33CB43F61CC800
ENDCHAR
STARTCHAR uni043E0437.liga
ENCODING -1
SWIDTH 765 0
DWIDTH 9 0
BBX 11 9 -1 -3
BITMAP
007DC439E800
06F68C60BF20
0DE07900BF10
1FB09603F800
2FA1C16FB000
09EB3008F300
0000008AF500
00000469F200
000001BE6000
ENDCHAR
STARTCHAR uni043E043B.liga
ENCODING -1
SWIDTH 945 0
DWIDTH 11 0
BBX 13 6 -1 0
BITMAP
007DC30009DF40
06F65900589F10
0DE0690093DD00
1FB08700C1FA00
2FA1D3E3A3F700
09ECA5CC31DC10
ENDCHAR
STARTCHAR uni043E043C.liga
ENCODING -1
SWIDTH 1161 0
DWIDTH 14 0
BBX 15 6 -1 0
BITMAP
007DC3002FA02FD0
06F659005FB08FA0
0DE069008FC1EF70
1FB08700ADC7BF30
2FA1D3C29CDA9F10
09ECA6CA2BF45E70
ENDCHAR
STARTCHAR uni043E0445.liga
ENCODING -1
SWIDTH 835 0
DWIDTH 10 0
BBX 11 6 -1 0
BITMAP
007DC30EC4B0
06F6797DE1B0
0DE09C29FB30
2FB0961BF600
2FA1D2B4F900
09EB41C2AE50
ENDCHAR
STARTCHAR uni043F0447.liga
ENCODING -1
SWIDTH 965 0
DWIDTH 12 0
BBX 13 6 -1 0
BITMAP
04FCDB03F74F70
08F49F26F48F40
0BE0BF09F5DF10
0EC0EC0AEBFD00
2F91F92300FB00
5F50BD5000BD30
ENDCHAR
STARTCHAR uni04400437.liga
ENCODING -1
SWIDTH 818 0
DWIDTH 10 0
BBX 11 10 -1 -3
BITMAP
018400000000
05FCDC16BE40
08F46FA21FB0
0BF06F402FB0
0EC0AF108F30
2F93FA0BF600
5FDEA100DC00
9F200039DE00
CE0000A1EB00
D800005CC200
ENDCHAR
STARTCHAR uni04410437.liga
ENCODING -1
SWIDTH 804 0
DWIDTH 10 0
BBX 11 9 -1 -3
BITMAP
007DD308DC20
06F663513F90
0DE001504F80
1FB00510AE20
2FA0241DF400
09EA5001FA00
00000048FC00
000000A2F800
0000007DB100
ENDCHAR
STARTCHAR uni04410445.liga
ENCODING -1
SWIDTH 740 0
DWIDTH 9 0
BBX 10 6 -1 0
BITMAP
008DC3FA5A
07F5A3DC1A
0ED000AFA2
3F90008F40
2FA004BF60
09EB951CD3
ENDCHAR
STARTCHAR uni04410447.liga
ENCODING -1
SWIDTH 843 0
DWIDTH 10 0
BBX 11 6 -1 0
BITMAP
007DD3AF1BF0
06F684DC0EC0
0DE002FB5F90
1FB006BECF60
2FA044007F40
09EA40003EB0
ENDCHAR
STARTCHAR uni04420447.liga
ENCODING -1
SWIDTH 1211 0
DWIDTH 15 0
BBX 16 6 -1 0
BITMAP
04FCDC8DB04F75F6
08F49F49F17F38F3
0BE0CE0BE0AF5EF1
0EC0FB0EB0AEBFC0
2F93F81F93201FA0
5F56F50BD5000BD3
ENDCHAR
STARTCHAR uni04430447.liga
ENCODING -1
SWIDTH 943 0
DWIDTH 11 0
BBX 13 9 -1 -3
BITMAP
04F75F67F48F30
08F38F3AF1BE00
0BF0CE0EE4FC00
0EC0FB2CEBF800
1FC9F87104F910
0BEBFA4001DC10
008DF200000000
065DC000000000
03ED4000000000
ENDCHAR
STARTCHAR uni04430458.liga
ENCODING -1
SWIDTH 694 0
DWIDTH 8 0
BBX 10 11 -1 -3
BITMAP
00000001E7
00000001C6
04F75F67F4
08F38F3AF1
0BF0BE0DD0
0EC0EB2FA0
1FB7F85F60
0BECF69F30
007DF7DF00
066DE0EB00
03CEACC200
ENDCHAR
STARTCHAR uni045E0447.liga
ENCODING -1
SWIDTH 943 0
DWIDTH 11 0
BBX 13 12 -1 -3
BITMAP
00160040000000
006F1630000000
001A9500000000
04F75F67F48F30
08F38F3AF1BE00
0BF0CE0EE4FC00
0EC0FB2CEBF800
1FC9F87104F910
0BEBFA4001DC10
008DF200000000
065DC000000000
03ED4000000000
ENDCHAR
STARTCHAR uni045E0458.liga
ENCODING -1
SWIDTH 694 0
DWIDTH 8 0
BBX 10 12 -1 -3
BITMAP
0000001000
005E1452E8
002A9601B5
04F75F67F4
08F38F3AF1
0BF0BE0DD0
0EC0EB2FA0
1FB7F85F60
0BECF69F30
006CF2CF00
065EE3FB00
03ED8EC200
ENDCHAR
STARTCHAR uni04440437.liga
ENCODING -1
SWIDTH 1076 0
DWIDTH 13 0
BBX 14 12 -1 -3
BITMAP
00000130000000
000009E0000000
00000DB0000000
007EAFCCD16BE5
06F64F53FB30FD
0DE07F13F500FC
1FA0AD06F206F4
2F91EA0CB0AF70
0AE9FDDB200CE0
0006F400028CF1
0009F100082DD0
000B900004CD30
ENDCHAR
STARTCHAR uni04450447.liga
ENCODING -1
SWIDTH 981 0
DWIDTH 12 0
BBX 12 6 0 0
BITMAP
06DB3A0FB1FA
347F5B3F74F7
705FA16F7BF4
509F607ECDF1
065E81500DE0
4807E70008E5
ENDCHAR
STARTCHAR uni04470447.liga
ENCODING -1
SWIDTH 964 0
DWIDTH 12 0
BBX 12 6 0 0
BITMAP
5F75F63F74F7
8F38F37F47F4
AF4EE0AF4DF1
6EBFB0BEBFC0
001FB6301FB1
000BE6000BE4
ENDCHAR
STARTCHAR uni04480447.liga
ENCODING -1
SWIDTH 1211 0
DWIDTH 15 0
BBX 16 6 -1 0
BITMAP
04F75F65F54F75F6
08F38F39F27F38F3
0BF0BE0CE0AF4DF0
0EC0EB1FB0BEBFC0
1FB7FB8FA6201FB1
0BE6BE6CE6000BE3
ENDCHAR
STARTCHAR uni045F0447.liga
ENCODING -1
SWIDTH 964 0
DWIDTH 12 0
BBX 13 9 -1 -3
BITMAP
04F75F63F74F70
08F38F37F47F40
0BF0BE0AF4DF10
0EC0EB0BEBFC00
1FB7FB6301FB10
0BE7BE6000BE40
000C0000000000
002F6000000000
000B3000000000
ENDCHAR
STARTCHAR uni044B0447.liga
ENCODING -1
SWIDTH 1112 0
DWIDTH 13 0
BBX 15 6 -1 0
BITMAP
05F5003D37F47F40
08F207EE0AF1BF10
0BE6D5CB0DE1EC00
0EB0B5F82DEBF900
1F93E5F89104F910
09ED41DE5001DD10
ENDCHAR
STARTCHAR uni04550437.liga
ENCODING -1
SWIDTH 768 0
DWIDTH 9 0
BBX 11 10 -1 -3
BITMAP
000220000000
007F802AE900
009F9070AF20
045FA520BF20
1C1FB602F900
591FD26EC000
1ADC4007F300
0000008AF600
00000378F200
000001BE6000
ENDCHAR
STARTCHAR uni04550445.liga
ENCODING -1
SWIDTH 712 0
DWIDTH 9 0
BBX 10 7 -1 0
BITMAP
0015300094
008F86F547
008F93F8B2
053FA0FE50
1C1FB1EE00
591FD9BF20
1ADB303EB0
ENDCHAR
STARTCHAR uni04550447.liga
ENCODING -1
SWIDTH 864 0
DWIDTH 10 0
BBX 12 7 -1 0
BITMAP
001320000000
007F807F47F4
00AF90AF1BF1
054FA0EE4FD0
1C1FB69EBF90
571FD5004F80
1ADB20001DD2
ENDCHAR
STARTCHAR uni04540437.liga
ENCODING -1
SWIDTH 804 0
DWIDTH 10 0
BBX 11 9 -1 -3
BITMAP
007DD408DC20
06F452513F90
0DEB31504F80
1FA00510AE20
2FA0241DF400
09EA5001FA00
00000048FC00
000000A2F800
0000007DB100
ENDCHAR
STARTCHAR uni04540445.liga
ENCODING -1
SWIDTH 740 0
DWIDTH 9 0
BBX 10 6 -1 0
BITMAP
008DD3FA5A
07F372DD39
0EEB30AFA1
3F80008F30
2FA006BF70
09EB940CE3
ENDCHAR
STARTCHAR uni04540447.liga
ENCODING -1
SWIDTH 844 0
DWIDTH 10 0
BBX 12 6 -1 0
BITMAP
007DD3AF1BF1
06F463DC0EC0
0DEB32FB7F90
1FA006BEBF60
2FA043007F40
09E940003EB0
ENDCHAR
STARTCHAR uni044D0437.liga
ENCODING -1
SWIDTH 765 0
DWIDTH 9 0
BBX 11 9 -1 -3
BITMAP
02ADD34AE800
0401FD60BF20
007CF900BF10
0205F403F800
590BB06EB000
3CBA1008F300
0000008AF500
00000469F200
000001BE6000
ENDCHAR
STARTCHAR uni04560447.liga
ENCODING -1
SWIDTH 717 0
DWIDTH 9 0
BBX 10 9 -1 0
BITMAP
009A000000
00BB000000
0000000000
04F73F84F8
08F36F57F4
0BF09F5DF1
0EC0AEBED0
1FB6300FC1
0BE7000AE4
ENDCHAR
STARTCHAR uni04570447.liga
ENCODING -1
SWIDTH 718 0
DWIDTH 9 0
BBX 10 8 -1 0
BITMAP
0A77900000
0111100000
04F73F84F8
08F36F57F4
0BF09F5DF1
0EC0AEBED0
1FB6300FC1
0BE7000AE4
ENDCHAR
STARTCHAR uni04570457.liga
ENCODING -1
SWIDTH 476 0
DWIDTH 6 0
BBX 8 8 -1 0
BITMAP
0A7C6E6C
01110101
04F71FA0
08F35F60
0BF08F30
0EC0BF00
1FB5FE20
0BE88E60
ENDCHAR
STARTCHAR uni04580447.liga
ENCODING -1
SWIDTH 697 0
DWIDTH 8 0
BBX 12 11 -3 -3
BITMAP
0000CA000000
0000B8000000
0004F77F47F4
0007F4AF1AF1
000BF1DE4FC0
000EC1CEBF90
002F97104FA1
005FB4001DD1
07DF20000000
56CD00000000
3CD400000000
ENDCHAR
STARTCHAR uni04580458.liga
ENCODING -1
SWIDTH 449 0
DWIDTH 5 0
BBX 9 11 -3 -3
BITMAP
0000CA1D80
0000B81C70
0004F76F50
0007F3AF20
000AF0DE00
000DC1FA00
002F85F700
005F9BF400
05BF3BF100
56DE3EC000
3ED8ED3000
ENDCHAR
STARTCHAR uni045B0447.liga
ENCODING -1
SWIDTH 937 0
DWIDTH 11 0
BBX 13 12 -1 -3
BITMAP
00580000000000
00EC0000000000
09FEB100000000
05F60008F39F20
08FAC80CE0CE00
0BF2BE0ED4FA00
0EC0DB3CEBF700
2F91F87005F810
5F65FA3002DC00
007DF100000000
056BB000000000
03CD3000000000
ENDCHAR
STARTCHAR uni045B0458.liga
ENCODING -1
SWIDTH 691 0
DWIDTH 8 0
BBX 10 11 -1 -3
BITMAP
00AB0002E7
09FEB10010
05F60007F4
08FAC80BF1
0BF2BE0EC0
0EC0EC2F90
2F92F85F60
5F65F69F30
005BF2CE00
056DD3FA00
03ED9EC200
ENDCHAR
STARTCHAR uni044E0436.liga
ENCODING -1
SWIDTH 1503 0
DWIDTH 18 0
BBX 20 6 -1 0
BITMAP
04F619DC27BD35F45DD2
08F3AF4BD50E99F3F661
0BFBFC0A800EDEEDF100
0EB4F80C421F4F9AD000
2F84F73C876D3F69D010
5F50AEA24CB36F33DB70
ENDCHAR
STARTCHAR uni044E0437.liga
ENCODING -1
SWIDTH 1001 0
DWIDTH 12 0
BBX 13 9 -1 -3
BITMAP
04F619DC35AE60
08F3AF4BC40DE0
0BFBFC0A700EE0
0EB4F80C305F60
2F84F73C08F900
5F50AEA200BF10
0000000018CF20
0000000074CE00
000000003CD400
ENDCHAR
STARTCHAR uni044E043B.liga
ENCODING -1
SWIDTH 1181 0
DWIDTH 14 0
BBX 16 6 -1 0
BITMAP
04F619DC2001BEF1
08F3AF4860075CD0
0BFBFC09700B1FA0
0EB4F80B530B3F70
2F84F72C5D485F50
5F50AEC96CC12EA0
ENDCHAR
ENDFONT
